<?xml version="1.0" standalone="no"?>
<!DOCTYPE svg PUBLIC "-//W3C//DTD SVG 1.1//EN" "http://www.w3.org/Graphics/SVG/1.1/DTD/svg11.dtd" >
<svg>
<metadata>
Created by FontForge 20120731 at Tue Sep 15 16:49:10 2020
 By ffonts
Copyright \(c\) 2020 by MadeType. All rights reserved.
</metadata>
<defs>
<font id="MADETommySoft-Medium" horiz-adv-x="580" >
  <font-face 
    font-family="MADE Tommy Soft"
    font-weight="500"
    font-stretch="normal"
    units-per-em="1000"
    panose-1="2 0 6 3 0 0 0 2 0 4"
    ascent="800"
    descent="-200"
    x-height="507"
    cap-height="700"
    bbox="-51 -253 1239 970"
    underline-thickness="50"
    underline-position="-50"
    unicode-range="U+0020-F6C3"
  />
<missing-glyph horiz-adv-x="260" 
 />
    <glyph glyph-name=".notdef" horiz-adv-x="260" 
 />
    <glyph glyph-name="B" unicode="B" horiz-adv-x="612" 
d="M472 368c67 -31 104 -88 104 -166c0 -123 -87 -202 -248 -202h-228c-19 0 -35 16 -35 36v628c0 20 16 36 35 36h202c160 0 247 -76 247 -188c0 -65 -27 -112 -77 -142v-2zM302 583h-102v-174h102c62 0 111 24 111 89c0 64 -52 85 -111 85zM328 117c64 0 110 32 110 94
c0 66 -50 90 -110 90h-128v-184h128z" />
    <glyph glyph-name="C" unicode="C" horiz-adv-x="694" 
d="M396 117c61 0 110 21 146 54c12 12 30 13 44 4l53 -35c19 -12 21 -39 5 -55c-62 -61 -148 -97 -248 -97c-208 0 -356 157 -356 362s148 363 356 363c100 0 186 -37 248 -98c16 -16 14 -43 -5 -55l-53 -35c-14 -9 -32 -7 -44 4c-36 33 -85 54 -146 54
c-145 0 -220 -117 -220 -233s75 -233 220 -233z" />
    <glyph glyph-name="D" unicode="D" horiz-adv-x="695" 
d="M282 700c234 0 373 -144 373 -350s-139 -350 -373 -350h-182c-19 0 -35 16 -35 36v628c0 20 16 36 35 36h182zM282 126c128 0 237 68 237 224s-109 224 -237 224h-81v-448h81z" />
    <glyph glyph-name="E" unicode="E" horiz-adv-x="523" 
d="M201 126h242c20 0 36 -16 36 -36v-54c0 -20 -16 -36 -36 -36h-342c-20 0 -36 16 -36 36v628c0 20 16 36 36 36h333c19 0 35 -16 35 -36v-54c0 -20 -16 -36 -35 -36h-233v-157h210c19 0 35 -16 35 -36v-55c0 -19 -16 -35 -35 -35h-210v-165z" />
    <glyph glyph-name="F" unicode="F" horiz-adv-x="520" 
d="M475 610c0 -20 -16 -36 -36 -36h-238v-173h209c20 0 36 -16 36 -36v-54c0 -20 -16 -36 -36 -36h-209v-239c0 -20 -16 -36 -36 -36h-64c-20 0 -36 16 -36 36v628c0 20 16 36 36 36h338c20 0 36 -16 36 -36v-54z" />
    <glyph glyph-name="G" unicode="G" horiz-adv-x="772" 
d="M404 361c0 19 16 35 36 35h241c20 0 36 -16 36 -35v-334c0 -15 -12 -27 -27 -27h-24c-13 0 -24 9 -26 22l-14 78c-47 -68 -122 -112 -231 -112c-207 0 -355 157 -355 362s148 363 355 363c100 0 186 -37 249 -98c16 -16 14 -43 -5 -55l-53 -35c-14 -9 -32 -7 -44 4
c-36 33 -85 54 -147 54c-144 0 -220 -117 -220 -233s76 -233 220 -233c122 0 189 71 209 161h-164c-20 0 -36 16 -36 36v47z" />
    <glyph glyph-name="H" unicode="H" horiz-adv-x="692" 
d="M491 664c0 20 16 36 36 36h64c20 0 36 -16 36 -36v-628c0 -20 -16 -36 -36 -36h-64c-20 0 -36 16 -36 36v254h-290v-254c0 -20 -16 -36 -35 -36h-65c-19 0 -35 16 -35 36v628c0 20 16 36 35 36h65c19 0 35 -16 35 -36v-248h290v248z" />
    <glyph glyph-name="I" unicode="I" horiz-adv-x="265" 
d="M65 664c0 20 16 36 35 36h65c20 0 36 -16 36 -36v-628c0 -20 -16 -36 -36 -36h-65c-19 0 -35 16 -35 36v628z" />
    <glyph glyph-name="J" unicode="J" horiz-adv-x="581" 
d="M416 700h65c19 0 35 -16 35 -36v-421c0 -149 -67 -255 -247 -255c-131 0 -218 69 -242 164c-5 21 7 41 28 45l76 14c14 2 27 -6 31 -19c10 -36 40 -75 107 -75c88 0 111 56 111 126v421c0 20 16 36 36 36z" />
    <glyph glyph-name="K" unicode="K" horiz-adv-x="637" 
d="M593 36c11 -14 1 -36 -18 -36h-96c-13 0 -26 6 -35 17l-244 309v-290c0 -20 -16 -36 -35 -36h-65c-19 0 -35 16 -35 36v628c0 20 16 36 35 36h65c19 0 35 -16 35 -36v-297l228 315c8 11 22 18 36 18h88c18 0 28 -21 17 -36l-233 -309z" />
    <glyph glyph-name="L" unicode="L" horiz-adv-x="505" 
d="M201 126h234c20 0 35 -16 35 -36v-54c0 -20 -15 -36 -35 -36h-335c-19 0 -35 16 -35 36v628c0 20 16 36 35 36h65c20 0 36 -16 36 -36v-538z" />
    <glyph glyph-name="M" unicode="M" horiz-adv-x="865" 
d="M640 675c9 16 27 25 45 25h79c20 0 36 -16 36 -36v-628c0 -20 -16 -36 -36 -36h-64c-20 0 -36 16 -36 36v429l-201 -328c-5 -7 -14 -12 -23 -12h-15c-10 0 -18 5 -23 12l-202 327v-428c0 -20 -15 -36 -35 -36h-65c-19 0 -35 16 -35 36v628c0 20 16 36 35 36h80
c18 0 35 -10 45 -25l207 -335z" />
    <glyph glyph-name="N" unicode="N" horiz-adv-x="699" 
d="M498 664c0 20 16 36 36 36h64c20 0 36 -16 36 -36v-628c0 -20 -16 -36 -36 -36h-58c-18 0 -35 9 -45 24l-294 439v-427c0 -20 -16 -36 -36 -36h-64c-20 0 -36 16 -36 36v628c0 20 16 36 36 36h59c17 0 34 -9 44 -24l294 -439v427z" />
    <glyph glyph-name="O" unicode="O" horiz-adv-x="792" 
d="M396 712c207 0 356 -157 356 -362s-149 -363 -356 -363s-356 158 -356 363s149 362 356 362zM396 116c145 0 220 117 220 234c0 116 -75 233 -220 233s-220 -117 -220 -233c0 -117 75 -234 220 -234z" />
    <glyph glyph-name="P" unicode="P" horiz-adv-x="603" 
d="M300 700c166 0 268 -97 268 -242s-102 -241 -268 -241h-99v-181c0 -20 -16 -36 -36 -36h-64c-20 0 -36 16 -36 36v628c0 20 16 36 36 36h199zM300 343c82 0 130 42 130 115c0 74 -48 116 -130 116h-99v-231h99z" />
    <glyph glyph-name="Q" unicode="Q" horiz-adv-x="791" 
d="M751 350c0 -92 -30 -174 -81 -236l48 -49c11 -11 11 -27 0 -38l-43 -43c-11 -10 -28 -10 -38 0l-54 54c-53 -32 -117 -50 -188 -50c-207 0 -355 157 -355 362s148 363 355 363s356 -158 356 -363zM395 117c35 0 65 7 92 18l-77 77c-10 11 -10 28 0 38l44 43
c10 11 27 10 38 0l82 -83c27 41 41 90 41 140c0 116 -75 233 -220 233c-144 0 -220 -117 -220 -233s76 -233 220 -233z" />
    <glyph glyph-name="R" unicode="R" horiz-adv-x="632" 
d="M596 34c9 -15 -1 -34 -19 -34h-89c-16 0 -31 9 -39 23l-130 229h-11h-107v-216c0 -20 -16 -36 -36 -36h-64c-20 0 -36 16 -36 36v628c0 20 16 36 36 36h207c157 0 260 -95 260 -228c0 -89 -47 -156 -123 -192zM201 574v-205h107c69 0 122 32 122 103
c0 63 -47 102 -122 102h-107z" />
    <glyph glyph-name="S" unicode="S" horiz-adv-x="593" 
d="M342 402c166 -38 226 -86 226 -198c0 -110 -77 -216 -261 -216c-115 0 -220 41 -266 130c-10 20 0 44 21 50l63 20c16 5 33 -1 41 -15c20 -34 62 -67 140 -67c70 0 126 27 126 88c0 69 -79 74 -190 102c-141 35 -188 105 -188 202c0 132 101 215 247 215
c101 0 184 -44 224 -125c10 -20 -2 -44 -24 -50l-63 -15c-15 -4 -31 3 -39 17c-16 29 -50 54 -105 54c-57 0 -106 -30 -106 -87c0 -78 89 -90 154 -105z" />
    <glyph glyph-name="T" unicode="T" horiz-adv-x="542" 
d="M471 700c20 0 36 -16 36 -36v-54c0 -20 -16 -36 -36 -36h-133v-538c0 -20 -15 -36 -35 -36h-65c-19 0 -35 16 -35 36v538h-133c-19 0 -35 16 -35 36v54c0 20 16 36 35 36h401z" />
    <glyph glyph-name="U" unicode="U" horiz-adv-x="697" 
d="M532 700h65c19 0 35 -16 35 -36v-406c0 -165 -100 -270 -283 -270s-284 105 -284 270v406c0 20 16 36 36 36h64c20 0 36 -16 36 -36v-388c0 -116 71 -159 148 -159c76 0 148 43 148 159v388c0 20 16 36 35 36z" />
    <glyph glyph-name="V" unicode="V" horiz-adv-x="700" 
d="M531 670c6 18 23 30 42 30h74c18 0 31 -18 25 -36l-229 -634c-6 -18 -23 -30 -42 -30h-103c-19 0 -36 12 -42 30l-229 634c-6 18 7 36 25 36h74c19 0 36 -12 42 -30l181 -533z" />
    <glyph glyph-name="W" unicode="W" horiz-adv-x="996" 
d="M827 669c6 18 23 31 43 31h74c18 0 31 -18 26 -35l-205 -634c-5 -18 -23 -31 -42 -31h-56c-20 0 -37 13 -43 32l-126 428l-127 -428c-5 -19 -22 -32 -42 -32h-56c-20 0 -37 13 -43 31l-204 634c-5 17 8 35 26 35h74c19 0 37 -13 42 -31l137 -449l131 448
c6 19 23 32 43 32h38c19 0 37 -13 42 -32l132 -448z" />
    <glyph glyph-name="X" unicode="X" horiz-adv-x="652" 
d="M610 41c12 -18 -1 -41 -22 -41h-80c-18 0 -35 9 -45 25l-138 216l-137 -216c-10 -16 -27 -25 -45 -25h-80c-21 0 -34 23 -22 41l201 315l-185 303c-11 18 2 41 23 41h79c19 0 36 -10 46 -26l121 -205l120 205c10 16 27 26 46 26h79c21 0 34 -23 23 -41l-185 -302z" />
    <glyph glyph-name="Y" unicode="Y" horiz-adv-x="688" 
d="M626 700c21 0 34 -23 23 -40l-237 -398v-226c0 -20 -16 -36 -36 -36h-64c-20 0 -36 16 -36 36v226l-237 398c-11 17 2 40 23 40h70c20 0 37 -10 47 -27l165 -289l165 289c10 17 27 27 47 27h70z" />
    <glyph glyph-name="Z" unicode="Z" horiz-adv-x="582" 
d="M210 126h301c20 0 36 -16 36 -36v-54c0 -20 -16 -36 -36 -36h-440c-20 0 -36 16 -36 36v52c0 13 4 26 12 37l325 449h-284c-19 0 -35 16 -35 36v54c0 20 16 36 35 36h414c20 0 36 -16 36 -36v-52c0 -13 -4 -26 -11 -36z" />
    <glyph glyph-name="a" unicode="a" horiz-adv-x="626" 
d="M439 471c0 20 16 36 36 36h55c20 0 36 -16 36 -36v-435c0 -20 -16 -36 -36 -36h-55c-20 0 -36 16 -36 36v24c-32 -42 -83 -72 -162 -72c-157 0 -247 133 -247 265c0 133 90 266 247 266c79 0 130 -30 162 -72v24zM297 109c87 0 137 66 137 144c0 79 -50 144 -137 144
s-137 -66 -137 -144c0 -77 50 -144 137 -144z" />
    <glyph glyph-name="b" unicode="b" horiz-adv-x="626" 
d="M349 519c157 0 247 -133 247 -266c0 -132 -90 -265 -247 -265c-79 0 -130 30 -162 72v-24c0 -20 -16 -36 -36 -36h-55c-20 0 -36 16 -36 36v628c0 20 16 36 36 36h55c20 0 36 -16 36 -36v-217c32 42 83 72 162 72zM329 109c87 0 137 67 137 144c0 78 -50 144 -137 144
s-137 -65 -137 -144c0 -78 50 -144 137 -144z" />
    <glyph glyph-name="c" unicode="c" horiz-adv-x="541" 
d="M298 109c45 0 80 18 104 47c9 10 23 13 34 6l64 -37c14 -8 18 -26 8 -39c-48 -60 -123 -98 -210 -98c-152 0 -268 117 -268 265c0 149 116 266 268 266c87 0 162 -38 210 -98c10 -13 6 -31 -8 -40l-64 -36c-11 -7 -25 -4 -34 6c-24 28 -59 46 -104 46
c-85 0 -138 -65 -138 -144c0 -78 53 -144 138 -144z" />
    <glyph glyph-name="d" unicode="d" horiz-adv-x="626" 
d="M439 664c0 20 16 36 35 36h56c20 0 36 -16 36 -36v-628c0 -20 -16 -36 -36 -36h-56c-19 0 -35 16 -35 36v24c-33 -42 -83 -72 -162 -72c-157 0 -247 133 -247 265c0 133 90 266 247 266c79 0 129 -30 162 -72v217zM297 109c87 0 136 66 136 144c0 79 -49 144 -136 144
s-137 -66 -137 -144c0 -77 50 -144 137 -144z" />
    <glyph glyph-name="e" unicode="e" horiz-adv-x="574" 
d="M289 519c144 0 261 -101 254 -280c0 -19 -16 -35 -35 -35h-343c18 -67 74 -103 144 -103c46 0 80 19 100 36c9 8 21 9 31 3l57 -34c15 -9 17 -29 5 -42c-44 -44 -112 -76 -193 -76c-168 0 -279 111 -279 265c0 159 119 266 259 266zM165 302h252c-13 67 -58 104 -126 104
c-62 0 -111 -39 -126 -104z" />
    <glyph glyph-name="f" unicode="f" horiz-adv-x="372" 
d="M316 604c-62 -1 -83 -37 -83 -97h73c20 0 36 -16 36 -36v-44c0 -20 -16 -36 -36 -36h-73v-355c0 -20 -16 -36 -36 -36h-55c-20 0 -36 16 -36 36v355h-36c-19 0 -35 16 -35 36v44c0 20 16 36 35 36h36c0 104 46 206 183 206c12 0 20 0 28 -1c14 -1 25 -12 25 -26v-55
c0 -14 -12 -26 -26 -27z" />
    <glyph glyph-name="g" unicode="g" horiz-adv-x="623" 
d="M436 471c0 20 16 36 35 36h56c20 0 36 -16 36 -36v-416c0 -142 -95 -257 -275 -257c-88 0 -169 31 -217 76c-13 12 -11 33 4 42l58 34c10 6 23 5 31 -3c24 -19 64 -36 120 -36c98 0 152 55 152 153v38c-31 -45 -81 -79 -160 -79c-153 0 -246 118 -246 248
c0 131 93 248 246 248c79 0 129 -34 160 -78v30zM295 136c85 0 135 62 135 135c0 74 -50 135 -135 135c-82 0 -135 -59 -135 -135c0 -75 53 -135 135 -135z" />
    <glyph glyph-name="h" unicode="h" 
d="M334 519c128 0 186 -103 186 -211v-272c0 -20 -16 -36 -36 -36h-55c-20 0 -36 16 -36 36v246c0 65 -27 114 -99 114c-75 0 -108 -55 -108 -114v-246c0 -20 -15 -36 -35 -36h-56c-19 0 -35 16 -35 36v628c0 20 16 36 35 36h56c20 0 35 -16 35 -36v-219c28 41 74 74 148 74
z" />
    <glyph glyph-name="i" unicode="i" horiz-adv-x="247" 
d="M96 0c-20 0 -36 16 -36 36v435c0 20 16 36 36 36h55c20 0 36 -16 36 -36v-435c0 -20 -16 -36 -36 -36h-55zM123 581c-37 0 -67 31 -67 68s30 68 67 68c38 0 68 -31 68 -68s-30 -68 -68 -68z" />
    <glyph glyph-name="j" unicode="j" horiz-adv-x="247" 
d="M151 507c19 0 35 -16 35 -36v-462c0 -113 -57 -193 -184 -193h-19c-14 2 -25 13 -25 27v65c0 14 12 26 26 27c50 3 76 29 76 92v444c0 20 15 36 35 36h56zM123 581c-37 0 -68 31 -68 68s31 68 68 68s68 -31 68 -68s-31 -68 -68 -68z" />
    <glyph glyph-name="k" unicode="k" horiz-adv-x="536" 
d="M493 36c11 -15 1 -36 -18 -36h-87c-14 0 -27 7 -35 18l-167 223v-205c0 -20 -16 -36 -35 -36h-56c-20 0 -35 16 -35 36v628c0 20 15 36 35 36h56c19 0 35 -16 35 -36v-372l144 197c9 11 22 18 36 18h78c19 0 29 -21 18 -36l-153 -197z" />
    <glyph glyph-name="l" unicode="l" horiz-adv-x="247" 
d="M60 664c0 20 16 36 36 36h56c19 0 35 -16 35 -36v-628c0 -20 -16 -36 -35 -36h-56c-20 0 -36 16 -36 36v628z" />
    <glyph glyph-name="m" unicode="m" horiz-adv-x="851" 
d="M614 519c117 0 177 -94 177 -202v-281c0 -20 -16 -36 -35 -36h-56c-20 0 -36 16 -36 36v255c0 63 -26 105 -85 105s-90 -47 -90 -105v-255c0 -20 -16 -36 -36 -36h-55c-20 0 -36 16 -36 36v255c0 63 -26 105 -85 105s-90 -47 -90 -105v-255c0 -20 -16 -36 -36 -36h-55
c-20 0 -36 16 -36 36v435c0 20 16 36 36 36h55c20 0 36 -16 36 -36v-18c26 37 67 66 134 66c69 0 114 -32 140 -79c31 44 82 79 153 79z" />
    <glyph glyph-name="n" unicode="n" 
d="M334 519c128 0 186 -103 186 -211v-272c0 -20 -16 -36 -36 -36h-55c-20 0 -36 16 -36 36v246c0 65 -27 114 -99 114c-75 0 -108 -55 -108 -114v-246c0 -20 -16 -36 -35 -36h-56c-19 0 -35 16 -35 36v435c0 20 16 36 35 36h56c19 0 35 -16 35 -36v-26c28 41 74 74 148 74z
" />
    <glyph glyph-name="o" unicode="o" horiz-adv-x="595" 
d="M297 519c153 0 268 -117 268 -266c0 -148 -115 -266 -268 -266c-152 0 -267 118 -267 266c0 149 115 266 267 266zM297 109c85 0 138 65 138 144s-53 144 -138 144c-84 0 -137 -65 -137 -144s53 -144 137 -144z" />
    <glyph glyph-name="p" unicode="p" horiz-adv-x="626" 
d="M348 519c158 0 248 -133 248 -266c0 -132 -90 -265 -248 -265c-78 0 -129 30 -161 72v-218c0 -19 -16 -35 -36 -35h-56c-19 0 -35 16 -35 35v629c0 20 16 36 35 36h56c20 0 36 -16 36 -36v-24c32 42 83 72 161 72zM329 109c87 0 137 67 137 144c0 78 -50 144 -137 144
c-88 0 -137 -65 -137 -144c0 -78 49 -144 137 -144z" />
    <glyph glyph-name="q" unicode="q" horiz-adv-x="626" 
d="M439 471c0 20 16 36 36 36h56c19 0 35 -16 35 -36v-629c0 -19 -16 -35 -35 -35h-56c-20 0 -36 16 -36 35v218c-32 -42 -83 -72 -161 -72c-158 0 -248 133 -248 265c0 133 90 266 248 266c78 0 129 -30 161 -72v24zM297 109c87 0 137 66 137 144c0 79 -50 144 -137 144
s-137 -66 -137 -144c0 -77 50 -144 137 -144z" />
    <glyph glyph-name="r" unicode="r" horiz-adv-x="386" 
d="M187 425c32 52 86 83 139 92c16 2 30 -10 30 -27v-80c0 -15 -12 -27 -27 -27c-125 4 -142 -86 -142 -174v-173c0 -20 -16 -36 -35 -36h-56c-20 0 -36 16 -36 36v435c0 20 16 36 36 36h56c19 0 35 -16 35 -36v-46z" />
    <glyph glyph-name="s" unicode="s" horiz-adv-x="473" 
d="M269 303c125 -27 179 -61 179 -147c0 -99 -72 -168 -215 -168c-85 0 -170 29 -206 94c-8 14 -1 33 16 38l71 22c12 4 24 -1 31 -12c11 -18 37 -36 90 -36s83 20 83 54c0 47 -73 46 -133 58c-98 20 -148 68 -148 154c0 96 81 159 199 159c77 0 152 -33 184 -100
c7 -15 -2 -33 -18 -37l-65 -16c-11 -3 -23 2 -29 12c-12 19 -35 34 -72 34s-75 -13 -75 -51c0 -45 68 -49 108 -58z" />
    <glyph glyph-name="t" unicode="t" horiz-adv-x="382" 
d="M337 426c0 -19 -16 -35 -36 -35h-72v-185c0 -58 8 -92 78 -92h2c15 0 28 -12 28 -27v-66c0 -14 -10 -25 -23 -27c-9 -1 -18 -1 -30 -1c-130 0 -182 87 -182 192v206h-46c-19 0 -35 16 -35 35v45c0 20 16 36 35 36h46v70c0 20 15 36 35 36h56c20 0 36 -16 36 -36v-70h72
c20 0 36 -16 36 -36v-45z" />
    <glyph glyph-name="u" unicode="u" 
d="M428 507h56c20 0 36 -16 36 -36v-435c0 -20 -16 -36 -36 -36h-56c-19 0 -35 16 -35 36v26c-28 -41 -74 -74 -147 -74c-128 0 -186 103 -186 210v273c0 20 16 36 35 36h56c19 0 35 -16 35 -36v-246c0 -65 28 -114 99 -114c75 0 108 55 108 114v246c0 20 16 36 35 36z" />
    <glyph glyph-name="v" unicode="v" horiz-adv-x="545" 
d="M383 476c7 19 24 31 43 31h66c19 0 32 -19 25 -36l-164 -442c-6 -17 -23 -29 -41 -29h-78c-18 0 -35 12 -41 29l-164 442c-7 17 6 36 25 36h66c19 0 36 -12 43 -31l110 -328z" />
    <glyph glyph-name="w" unicode="w" horiz-adv-x="799" 
d="M638 475c6 19 23 32 43 32h67c18 0 31 -18 25 -35l-148 -442c-6 -18 -23 -30 -43 -30h-48c-19 0 -36 12 -43 30l-91 269l-91 -269c-6 -18 -23 -30 -42 -30h-49c-19 0 -36 12 -43 30l-148 442c-6 17 7 35 26 35h67c19 0 36 -13 42 -32l88 -290l100 298c5 14 19 24 34 24
h32c16 0 29 -10 34 -24l100 -298z" />
    <glyph glyph-name="x" unicode="x" horiz-adv-x="536" 
d="M498 35c10 -15 -1 -35 -19 -35h-81c-15 0 -29 8 -38 20l-92 144l-93 -144c-8 -12 -22 -20 -37 -20h-82c-18 0 -28 20 -18 35l149 226l-141 211c-10 15 1 35 19 35h80c16 0 30 -8 38 -21l84 -136l85 136c8 13 23 21 38 21h81c18 0 28 -20 18 -35l-141 -211z" />
    <glyph glyph-name="y" unicode="y" horiz-adv-x="554" 
d="M391 477c7 18 23 30 42 30h67c19 0 32 -19 25 -37c-42 -105 -161 -406 -187 -470c-48 -118 -93 -193 -195 -193c-9 0 -20 1 -31 3c-13 1 -23 13 -23 26v48c0 14 11 26 25 27c53 2 83 34 111 119c-7 17 -145 330 -194 439c-8 18 5 38 25 38h65c19 0 35 -11 42 -29
l118 -305z" />
    <glyph glyph-name="z" unicode="z" horiz-adv-x="492" 
d="M205 116h207c20 0 36 -16 36 -36v-44c0 -20 -16 -36 -36 -36h-331c-20 0 -36 16 -36 36v38c0 10 4 19 10 27l223 290h-188c-20 0 -36 16 -36 36v44c0 20 16 36 36 36h313c20 0 36 -16 36 -36v-38c0 -10 -3 -19 -10 -27z" />
    <glyph glyph-name="zero" unicode="0" horiz-adv-x="643" 
d="M321 712c206 0 282 -177 282 -362c0 -186 -76 -363 -282 -363c-205 0 -281 177 -281 363c0 185 76 362 281 362zM321 116c114 0 147 120 147 234c0 113 -33 233 -147 233c-113 0 -146 -120 -146 -233c0 -114 33 -234 146 -234z" />
    <glyph glyph-name="one" unicode="1" horiz-adv-x="447" 
d="M228 691c9 6 19 9 30 9h48c20 0 36 -16 36 -36v-628c0 -20 -16 -36 -36 -36h-64c-20 0 -36 16 -36 36v506l-92 -62c-17 -11 -40 -6 -50 11l-21 34c-10 17 -5 38 10 49z" />
    <glyph glyph-name="two" unicode="2" horiz-adv-x="555" 
d="M242 126h222c20 0 36 -16 36 -36v-54c0 -20 -16 -36 -36 -36h-375c-19 0 -35 16 -35 36v43c0 13 5 26 13 36c58 64 95 106 155 176c61 70 131 147 131 208c0 50 -29 91 -86 91c-51 0 -77 -31 -89 -64c-5 -13 -18 -20 -31 -17l-66 15c-21 5 -33 28 -25 48
c36 91 118 141 222 141c129 0 211 -99 211 -210c0 -98 -86 -192 -247 -377z" />
    <glyph glyph-name="three" unicode="3" horiz-adv-x="569" 
d="M409 362c76 -26 119 -79 119 -164c0 -117 -89 -210 -248 -210c-109 0 -201 47 -237 119c-10 21 2 45 24 50l70 16c12 3 24 -3 30 -13c14 -26 48 -50 113 -50c78 0 111 48 111 102c0 79 -74 90 -124 90h-32c-15 0 -27 12 -27 26v62c0 14 12 26 27 26h32
c54 0 115 18 115 88c0 57 -39 88 -99 88c-49 0 -79 -23 -93 -49c-6 -10 -18 -16 -30 -13l-62 14c-23 5 -35 31 -23 52c38 71 114 117 208 117c143 0 229 -84 229 -192c0 -71 -34 -128 -103 -159z" />
    <glyph glyph-name="four" unicode="4" horiz-adv-x="636" 
d="M555 255c20 0 36 -16 36 -36v-44c0 -20 -16 -36 -36 -36h-47v-103c0 -20 -16 -36 -35 -36h-65c-19 0 -35 16 -35 36v103h-292c-19 0 -35 16 -35 36v50c0 14 3 27 11 38l257 412c10 16 27 25 45 25h114c19 0 35 -16 35 -36v-409h47zM183 255h190v303z" />
    <glyph glyph-name="five" unicode="5" horiz-adv-x="570" 
d="M306 452c134 0 223 -90 223 -220s-88 -244 -248 -244c-99 0 -189 48 -226 118c-11 20 0 46 23 51l70 16c12 3 23 -2 29 -13c14 -26 46 -50 103 -50c82 0 116 60 116 120c0 66 -44 112 -115 112c-39 0 -73 -16 -95 -33c-14 -10 -31 -13 -47 -8l-46 13c-17 4 -28 21 -26 38
l37 317c2 18 17 31 35 31h310c20 0 36 -16 36 -36v-54c0 -20 -16 -36 -36 -36h-239l-18 -154c33 19 73 32 114 32z" />
    <glyph glyph-name="six" unicode="6" horiz-adv-x="590" 
d="M295 471c143 0 255 -87 255 -237c0 -139 -105 -246 -255 -246s-255 107 -255 246c0 97 53 167 78 205l159 234c11 17 31 27 51 27h72c18 0 28 -21 18 -35l-141 -194h18zM295 112c62 0 122 44 122 122c0 68 -49 121 -122 121c-67 0 -121 -47 -121 -121
c0 -78 59 -122 121 -122z" />
    <glyph glyph-name="seven" unicode="7" horiz-adv-x="527" 
d="M44 664c0 20 16 36 36 36h366c19 0 35 -16 35 -36v-61c0 -10 -2 -19 -5 -28l-233 -553c-6 -13 -19 -22 -33 -22h-73c-19 0 -32 20 -24 37l226 537h-259c-20 0 -36 16 -36 36v54z" />
    <glyph glyph-name="eight" unicode="8" horiz-adv-x="604" 
d="M454 375c66 -34 110 -92 110 -168c0 -132 -111 -220 -262 -220s-262 88 -262 220c0 76 43 134 110 168c-55 34 -84 87 -84 145c0 103 86 192 236 192s235 -89 235 -192c0 -58 -28 -111 -83 -145zM302 597c-52 0 -104 -31 -104 -92c0 -59 47 -89 104 -89
c56 0 104 30 104 89c0 61 -52 92 -104 92zM302 112c84 0 121 50 121 102c0 60 -47 104 -121 104c-75 0 -122 -44 -122 -104c0 -52 37 -102 122 -102z" />
    <glyph glyph-name="nine" unicode="9" horiz-adv-x="590" 
d="M295 229c-143 0 -255 87 -255 237c0 139 105 247 255 247c151 0 255 -108 255 -247c0 -97 -52 -167 -78 -205l-158 -234c-12 -17 -31 -27 -52 -27h-71c-19 0 -29 21 -18 35l141 194h-19zM295 588c-62 0 -121 -44 -121 -122c0 -68 49 -121 121 -121c67 0 122 47 122 121
c0 78 -60 122 -122 122z" />
    <glyph glyph-name="period" unicode="." horiz-adv-x="237" 
d="M119 135c40 0 73 -33 73 -74s-33 -74 -73 -74c-41 0 -74 33 -74 74s33 74 74 74z" />
    <glyph glyph-name="comma" unicode="," horiz-adv-x="259" 
d="M97 106c6 14 24 19 37 11l56 -31c13 -8 17 -25 9 -38l-90 -138c-8 -12 -23 -15 -36 -8l-36 21c-12 6 -17 22 -11 34z" />
    <glyph glyph-name="colon" unicode=":" horiz-adv-x="258" 
d="M129 135c40 0 74 -33 74 -74s-34 -74 -74 -74c-41 0 -74 33 -74 74s33 74 74 74zM129 371c-41 0 -74 33 -74 74s33 74 74 74c40 0 74 -33 74 -74s-34 -74 -74 -74z" />
    <glyph glyph-name="semicolon" unicode=";" horiz-adv-x="290" 
d="M161 372c-41 0 -74 33 -74 74c0 40 33 73 74 73s74 -33 74 -73c0 -41 -33 -74 -74 -74zM45 -77c-12 6 -16 22 -10 34l70 149c7 14 24 19 38 11l55 -31c13 -8 17 -25 9 -38l-90 -138c-7 -12 -23 -15 -35 -8z" />
    <glyph glyph-name="exclam" unicode="!" horiz-adv-x="278" 
d="M140 135c40 0 73 -33 73 -74c0 -40 -33 -73 -73 -73c-41 0 -74 33 -74 73c0 41 33 74 74 74zM194 261c-1 -20 -16 -35 -36 -35h-37c-20 0 -35 15 -36 35l-12 402c0 20 16 37 36 37h61c20 0 36 -17 36 -37z" />
    <glyph glyph-name="question" unicode="?" horiz-adv-x="488" 
d="M245 135c40 0 73 -33 73 -74c0 -40 -33 -73 -73 -73c-41 0 -74 33 -74 73c0 41 33 74 74 74zM237 597c-44 0 -70 -23 -83 -51c-7 -15 -24 -23 -40 -19l-47 12c-21 5 -33 28 -25 48c37 88 119 126 204 126c119 0 212 -89 212 -186c0 -144 -129 -163 -149 -271
c-4 -17 -18 -30 -35 -30h-50c-22 0 -39 20 -35 42c23 119 141 154 141 241c0 50 -31 88 -93 88z" />
    <glyph glyph-name="questiondown" unicode="&#xbf;" horiz-adv-x="488" 
d="M244 372c-41 0 -74 33 -74 74c0 40 33 73 74 73s74 -33 74 -73c0 -41 -33 -74 -74 -74zM252 -90c44 0 69 23 82 51c7 15 24 23 41 19l46 -12c21 -5 33 -28 25 -48c-37 -88 -119 -126 -203 -126c-119 0 -213 89 -213 185c0 145 130 164 150 272c3 17 18 30 35 30h49
c23 0 40 -20 36 -42c-23 -119 -142 -154 -142 -242c0 -49 31 -87 94 -87z" />
    <glyph glyph-name="exclamdown" unicode="&#xa1;" horiz-adv-x="277" 
d="M139 372c-41 0 -74 33 -74 74c0 40 33 73 74 73s74 -33 74 -73c0 -41 -33 -74 -74 -74zM84 246c1 19 17 35 36 35h38c19 0 35 -16 35 -35l12 -403c1 -20 -15 -36 -35 -36h-62c-20 0 -36 16 -35 36z" />
    <glyph glyph-name="hyphen" unicode="-" horiz-adv-x="450" 
d="M65 316c0 19 16 35 36 35h249c20 0 36 -16 36 -35v-36c0 -20 -16 -35 -36 -35h-249c-20 0 -36 15 -36 35v36z" />
    <glyph glyph-name="endash" unicode="&#x2013;" horiz-adv-x="504" 
d="M65 316c0 19 16 35 35 35h303c20 0 36 -16 36 -35v-36c0 -20 -16 -35 -36 -35h-303c-19 0 -35 15 -35 35v36z" />
    <glyph glyph-name="emdash" unicode="&#x2014;" horiz-adv-x="557" 
d="M65 316c0 19 16 35 35 35h357c19 0 35 -16 35 -35v-36c0 -20 -16 -35 -35 -35h-357c-19 0 -35 15 -35 35v36z" />
    <glyph glyph-name="underscore" unicode="_" horiz-adv-x="415" 
d="M25 -106c0 15 12 27 27 27h312c15 0 27 -12 27 -27v-36c0 -14 -12 -26 -27 -26h-312c-15 0 -27 12 -27 26v36z" />
    <glyph glyph-name="plus" unicode="+" horiz-adv-x="522" 
d="M420 351c20 0 36 -16 36 -35v-36c0 -20 -16 -35 -36 -35h-106v-107c0 -20 -16 -36 -36 -36h-36c-19 0 -35 16 -35 36v107h-107c-20 0 -36 15 -36 35v36c0 19 16 35 36 35h107v107c0 20 16 36 35 36h36c20 0 36 -16 36 -36v-107h106z" />
    <glyph glyph-name="multiply" unicode="&#xd7;" horiz-adv-x="463" 
d="M307 449c14 14 37 14 51 0l25 -25c14 -14 14 -37 0 -50l-76 -76l76 -76c14 -14 14 -36 0 -50l-25 -25c-14 -14 -37 -14 -51 0l-75 75l-76 -75c-14 -14 -36 -14 -50 0l-26 25c-13 14 -13 36 0 50l76 76l-76 76c-13 13 -13 36 0 50l26 25c14 14 36 14 50 0l76 -76z" />
    <glyph glyph-name="divide" unicode="&#xf7;" horiz-adv-x="522" 
d="M65 316c0 19 16 35 36 35h320c20 0 36 -16 36 -35v-36c0 -20 -16 -35 -36 -35h-320c-20 0 -36 15 -36 35v36zM261 438c-37 0 -67 29 -67 66s30 67 67 67s67 -30 67 -67s-30 -66 -67 -66zM261 158c37 0 67 -30 67 -66c0 -37 -30 -67 -67 -67s-67 30 -67 67
c0 36 30 66 67 66z" />
    <glyph glyph-name="equal" unicode="=" horiz-adv-x="504" 
d="M65 414c0 19 16 35 36 35h303c20 0 36 -16 36 -35v-36c0 -20 -16 -36 -36 -36h-303c-20 0 -36 16 -36 36v36zM101 147c-20 0 -36 16 -36 35v36c0 20 16 35 36 35h303c20 0 36 -15 36 -35v-36c0 -19 -16 -35 -36 -35h-303z" />
    <glyph glyph-name="notequal" unicode="&#x2260;" horiz-adv-x="504" 
d="M439 378c0 -20 -16 -36 -36 -36h-97l-38 -89h135c20 0 36 -15 36 -35v-36c0 -19 -16 -35 -36 -35h-182l-35 -83c-3 -6 -9 -10 -16 -10h-32c-13 0 -21 13 -16 24l29 69h-51c-19 0 -35 16 -35 35v36c0 20 16 35 35 35h97l39 89h-136c-19 0 -35 16 -35 36v36
c0 19 16 35 35 35h182l35 83c3 6 10 10 17 10h31c13 0 22 -13 17 -24l-30 -69h51c20 0 36 -16 36 -35v-36z" />
    <glyph glyph-name="less" unicode="&#x3c;" horiz-adv-x="504" 
d="M408 484c15 6 31 -5 31 -21v-49c0 -15 -9 -28 -22 -33l-260 -106l260 -105c13 -5 22 -18 22 -33v-49c0 -16 -16 -27 -31 -21l-321 136c-13 6 -22 19 -22 33v79c0 14 9 27 22 33z" />
    <glyph glyph-name="greater" unicode="&#x3e;" horiz-adv-x="504" 
d="M95 67c-14 -6 -31 5 -31 21v49c0 15 9 28 23 33l260 105l-260 106c-14 5 -23 18 -23 33v49c0 16 17 27 31 21l322 -136c13 -6 22 -19 22 -33v-79c0 -14 -9 -27 -22 -33z" />
    <glyph glyph-name="plusminus" unicode="&#xb1;" horiz-adv-x="522" 
d="M315 440h107c19 0 35 -16 35 -35v-36c0 -19 -16 -35 -35 -35h-107v-107c0 -20 -16 -36 -36 -36h-35c-20 0 -36 16 -36 36v107h-107c-20 0 -36 16 -36 35v36c0 19 16 35 36 35h107v107c0 20 16 36 36 36h35c20 0 36 -16 36 -36v-107zM101 0c-20 0 -36 16 -36 36v35
c0 20 16 36 36 36h321c19 0 35 -16 35 -36v-35c0 -20 -16 -36 -35 -36h-321z" />
    <glyph glyph-name="lessequal" unicode="&#x2264;" horiz-adv-x="504" 
d="M101 0c-20 0 -36 16 -36 36v35c0 20 16 36 36 36h303c19 0 35 -16 35 -36v-35c0 -20 -16 -36 -35 -36h-303zM409 565c15 6 30 -5 30 -21v-48c0 -15 -10 -29 -24 -34l-245 -83l245 -84c14 -5 24 -18 24 -34v-48c0 -16 -15 -27 -30 -21l-321 122c-14 5 -23 18 -23 33v63
c0 15 9 28 23 33z" />
    <glyph glyph-name="greaterequal" unicode="&#x2265;" horiz-adv-x="504" 
d="M403 0h-303c-19 0 -35 16 -35 36v35c0 20 16 36 35 36h303c20 0 36 -16 36 -36v-35c0 -20 -16 -36 -36 -36zM95 565l321 -122c14 -5 23 -18 23 -33v-63c0 -15 -9 -28 -23 -33l-321 -122c-15 -6 -30 5 -30 21v48c0 16 9 29 24 34l244 84l-244 83c-15 5 -24 19 -24 34v48
c0 16 15 27 30 21z" />
    <glyph glyph-name="guillemotleft" unicode="&#xab;" horiz-adv-x="587" 
d="M256 428c18 0 29 -20 19 -35l-97 -142l97 -142c10 -15 -1 -35 -19 -35h-68c-14 0 -28 7 -36 20l-90 132c-11 15 -11 35 0 50l90 132c8 13 22 20 36 20h68zM500 428c18 0 29 -20 19 -35l-97 -142l97 -142c10 -15 -1 -35 -19 -35h-67c-15 0 -29 7 -37 20l-90 132
c-11 15 -11 35 0 50l90 132c8 13 22 20 37 20h67z" />
    <glyph glyph-name="guillemotright" unicode="&#xbb;" horiz-adv-x="588" 
d="M332 428h68c15 0 29 -7 37 -20l90 -132c10 -15 10 -35 0 -50l-90 -132c-8 -13 -22 -20 -37 -20h-68c-17 0 -28 20 -18 35l97 142l-97 142c-10 15 1 35 18 35zM88 428h68c15 0 28 -7 37 -20l90 -132c10 -15 10 -35 0 -50l-90 -132c-9 -13 -22 -20 -37 -20h-68
c-18 0 -28 20 -18 35l96 142l-96 142c-10 15 0 35 18 35z" />
    <glyph glyph-name="asciitilde" unicode="~" horiz-adv-x="582" 
d="M456 366l43 -9c15 -3 25 -18 21 -32c-17 -64 -53 -99 -121 -99c-84 0 -142 46 -202 46c-25 0 -37 -11 -44 -26c-5 -12 -17 -19 -30 -16l-41 8c-16 3 -25 20 -20 35c20 59 60 97 129 97c77 0 137 -44 193 -44c26 0 38 12 43 25c5 11 17 18 29 15z" />
    <glyph glyph-name="approxequal" unicode="&#x2248;" horiz-adv-x="581" 
d="M197 370c-25 0 -37 -10 -43 -26c-5 -11 -17 -18 -30 -16l-41 9c-16 3 -25 19 -20 34c19 60 59 98 128 98c78 0 138 -44 194 -44c26 0 37 12 43 24c5 11 17 18 29 16l43 -9c15 -3 24 -18 20 -33c-16 -64 -53 -99 -120 -99c-84 0 -142 46 -203 46zM385 227
c26 0 37 12 43 25c5 11 17 18 29 15l43 -8c15 -3 24 -18 20 -33c-16 -64 -53 -99 -120 -99c-84 0 -142 46 -203 46c-25 0 -37 -10 -43 -26c-5 -11 -17 -18 -30 -16l-41 9c-16 3 -25 19 -20 34c19 60 59 98 128 98c78 0 138 -45 194 -45z" />
    <glyph glyph-name="asciicircum" unicode="^" horiz-adv-x="518" 
d="M456 435c8 -15 -3 -33 -20 -33h-50c-17 0 -32 9 -40 24l-87 170l-87 -170c-8 -15 -23 -24 -40 -24h-50c-17 0 -27 18 -19 33l130 242c8 14 23 23 39 23h54c17 0 32 -9 39 -23z" />
    <glyph glyph-name="dagger" unicode="&#x2020;" horiz-adv-x="525" 
d="M424 540c20 0 36 -16 36 -36v-35c0 -20 -16 -36 -36 -36h-99v-397c0 -20 -16 -36 -35 -36h-56c-19 0 -35 16 -35 36v397h-99c-20 0 -36 16 -36 36v35c0 20 16 36 36 36h99v124c0 20 16 36 35 36h56c19 0 35 -16 35 -36v-124h99z" />
    <glyph glyph-name="daggerdbl" unicode="&#x2021;" horiz-adv-x="525" 
d="M460 469c0 -20 -16 -36 -36 -36h-98v-166h98c20 0 36 -16 36 -35v-36c0 -20 -16 -36 -36 -36h-98v-124c0 -20 -16 -36 -36 -36h-55c-20 0 -36 16 -36 36v124h-99c-19 0 -35 16 -35 36v36c0 19 16 35 35 35h99v166h-99c-19 0 -35 16 -35 36v35c0 20 16 36 35 36h99v124
c0 20 16 36 36 36h55c20 0 36 -16 36 -36v-124h98c20 0 36 -16 36 -36v-35z" />
    <glyph glyph-name="paragraph" unicode="&#xb6;" horiz-adv-x="657" 
d="M602 664v-50c0 -20 -16 -35 -36 -35h-31v-632c0 -20 -16 -35 -36 -35h-35c-20 0 -36 15 -36 35v632h-99v-632c0 -20 -16 -35 -36 -35h-36c-19 0 -35 15 -35 35v421c-99 3 -187 60 -187 166c0 109 93 166 195 166h336c20 0 36 -16 36 -36z" />
    <glyph glyph-name="slash" unicode="/" horiz-adv-x="495" 
d="M324 766c6 18 23 30 42 30h47c18 0 31 -17 25 -34l-267 -828c-6 -18 -23 -30 -43 -30h-46c-19 0 -31 17 -26 35z" />
    <glyph glyph-name="braceleft" unicode="{" horiz-adv-x="410" 
d="M248 468c0 -54 -19 -102 -78 -116v-4c59 -14 78 -62 78 -115v-103c0 -75 3 -114 84 -114c12 0 23 -10 23 -22v-64c0 -14 -12 -26 -27 -26h-25c-114 0 -179 47 -179 172v148c0 50 -9 70 -38 75c-12 3 -21 13 -21 26v50c0 13 9 24 21 26c29 6 38 25 38 76v148
c0 125 65 171 179 171h25c15 0 27 -11 27 -26v-64c0 -12 -11 -22 -23 -22c-81 0 -84 -39 -84 -114v-102z" />
    <glyph glyph-name="guilsinglleft" unicode="&#x2039;" horiz-adv-x="343" 
d="M256 428c18 0 29 -20 19 -35l-97 -142l97 -142c10 -15 -1 -35 -19 -35h-68c-14 0 -28 7 -36 20l-90 132c-11 15 -11 35 0 50l90 132c8 13 22 20 36 20h68z" />
    <glyph glyph-name="guilsinglright" unicode="&#x203a;" horiz-adv-x="344" 
d="M88 428h68c15 0 28 -7 37 -20l90 -132c10 -15 10 -35 0 -50l-90 -132c-9 -13 -22 -20 -37 -20h-68c-18 0 -28 20 -18 35l96 142l-96 142c-10 15 0 35 18 35z" />
    <glyph glyph-name="minus" unicode="&#x2212;" horiz-adv-x="450" 
d="M65 316c0 19 16 35 36 35h249c20 0 36 -16 36 -35v-36c0 -20 -16 -35 -36 -35h-249c-20 0 -36 15 -36 35v36z" />
    <glyph glyph-name="bracketleft" unicode="[" horiz-adv-x="356" 
d="M301 719c0 -19 -16 -35 -36 -35h-76v-668h76c20 0 36 -16 36 -35v-42c0 -19 -16 -35 -36 -35h-165c-19 0 -35 16 -35 35v822c0 20 16 35 35 35h165c20 0 36 -15 36 -35v-42z" />
    <glyph glyph-name="parenleft" unicode="(" horiz-adv-x="341" 
d="M262 751c14 -10 18 -30 10 -45c-42 -78 -82 -204 -82 -356s40 -278 82 -356c8 -15 4 -34 -10 -45l-32 -24c-17 -12 -41 -7 -52 11c-55 92 -113 241 -113 414s58 322 113 414c11 19 35 23 52 11z" />
    <glyph glyph-name="bar" unicode="|" horiz-adv-x="246" 
d="M65 721c0 20 16 36 36 36h44c20 0 36 -16 36 -36v-834c0 -20 -16 -36 -36 -36h-44c-20 0 -36 16 -36 36v834z" />
    <glyph glyph-name="brokenbar" unicode="&#xa6;" horiz-adv-x="246" 
d="M100 -149c-20 0 -35 16 -35 36v284c0 19 15 35 35 35h45c19 0 35 -16 35 -35v-284c0 -20 -16 -36 -35 -36h-45zM65 721c0 20 15 36 35 36h45c19 0 35 -16 35 -36v-283c0 -20 -16 -36 -35 -36h-45c-20 0 -35 16 -35 36v283z" />
    <glyph glyph-name="parenright" unicode=")" horiz-adv-x="342" 
d="M112 775c16 12 41 8 51 -11c56 -92 113 -241 113 -414s-57 -322 -113 -414c-10 -18 -35 -23 -51 -11l-32 24c-14 11 -19 30 -10 45c41 78 82 204 82 356s-41 278 -82 356c-9 15 -4 35 10 45z" />
    <glyph glyph-name="bracketright" unicode="]" horiz-adv-x="356" 
d="M54 719v42c0 20 16 35 36 35h165c20 0 36 -15 36 -35v-822c0 -19 -16 -35 -36 -35h-165c-20 0 -36 16 -36 35v42c0 19 16 35 36 35h76v668h-76c-20 0 -36 16 -36 35z" />
    <glyph glyph-name="braceright" unicode="}" horiz-adv-x="410" 
d="M161 468v102c0 75 -2 114 -84 114c-12 0 -22 10 -22 22v64c0 15 12 26 26 26h25c114 0 180 -46 180 -171v-148c0 -51 8 -70 37 -76c13 -2 22 -13 22 -26v-50c0 -13 -9 -23 -22 -26c-29 -5 -37 -25 -37 -75v-148c0 -125 -66 -172 -180 -172h-25c-14 0 -26 12 -26 26v64
c0 12 10 22 22 22c82 0 84 39 84 114v103c0 53 20 101 78 115v4c-58 14 -78 62 -78 116z" />
    <glyph glyph-name="backslash" unicode="\" horiz-adv-x="495" 
d="M171 766l267 -827c6 -18 -7 -35 -25 -35h-47c-19 0 -36 12 -42 30l-268 828c-6 17 7 34 25 34h47c20 0 37 -12 43 -30z" />
    <glyph glyph-name="dollar" unicode="$" horiz-adv-x="593" 
d="M568 204c0 -102 -67 -201 -224 -215v-82c0 -9 -8 -17 -18 -17h-45c-9 0 -17 8 -17 17v83c-98 9 -184 50 -224 128c-10 20 0 44 21 50l64 20c15 5 33 -1 41 -15c19 -34 61 -67 139 -67c71 0 126 27 126 88c0 69 -79 74 -189 102c-141 35 -188 105 -188 202
c0 121 84 200 210 213v82c0 10 8 17 17 17h45c10 0 18 -7 18 -17v-83c81 -11 146 -53 180 -122c10 -20 -2 -44 -24 -50l-63 -15c-15 -4 -31 3 -39 17c-16 29 -50 54 -105 54c-57 0 -106 -30 -106 -87c0 -78 89 -90 155 -105c165 -38 226 -86 226 -198z" />
    <glyph glyph-name="cent" unicode="&#xa2;" horiz-adv-x="585" 
d="M313 206c44 0 80 18 104 47c8 10 22 12 34 6l64 -37c14 -8 17 -27 7 -40c-43 -54 -109 -90 -185 -97v-67c0 -10 -8 -18 -18 -18h-45c-9 0 -17 8 -17 18v72c-124 25 -212 130 -212 260s88 236 212 260v72c0 10 8 18 17 18h45c10 0 18 -8 18 -18v-67c76 -7 142 -43 185 -97
c10 -13 7 -32 -7 -40l-64 -37c-12 -6 -26 -3 -34 7c-24 28 -60 46 -104 46c-85 0 -138 -65 -138 -144s53 -144 138 -144z" />
    <glyph glyph-name="Euro" unicode="&#x20ac;" horiz-adv-x="748" 
d="M450 117c62 0 111 21 147 54c12 12 30 13 44 4l53 -35c19 -12 21 -39 5 -55c-63 -61 -149 -97 -249 -97c-172 0 -303 108 -343 262h-64c-10 0 -18 8 -18 18v36c0 9 8 17 18 17h53c-1 10 -1 19 -1 29s0 19 1 29h-53c-10 0 -18 8 -18 18v35c0 10 8 18 18 18h64
c40 154 171 263 343 263c100 0 186 -37 249 -98c16 -16 14 -43 -5 -55l-53 -35c-14 -9 -32 -7 -44 4c-36 33 -85 54 -147 54c-102 0 -169 -58 -200 -133h204c10 0 18 -8 18 -18v-35c0 -10 -8 -18 -18 -18h-222c-1 -10 -2 -19 -2 -29c0 -9 1 -19 2 -29h222c10 0 18 -8 18 -17
v-36c0 -10 -8 -18 -18 -18h-204c31 -75 98 -133 200 -133z" />
    <glyph glyph-name="yen" unicode="&#xa5;" horiz-adv-x="688" 
d="M627 700c20 0 33 -23 23 -40l-197 -330h93c9 0 17 -8 17 -17v-36c0 -10 -8 -18 -17 -18h-134v-57h134c9 0 17 -8 17 -18v-36c0 -9 -8 -17 -17 -17h-134v-95c0 -20 -15 -36 -35 -36h-65c-19 0 -35 16 -35 36v95h-133c-10 0 -18 8 -18 17v36c0 10 8 18 18 18h133v57h-133
c-10 0 -18 8 -18 18v36c0 9 8 17 18 17h92l-196 330c-11 17 2 40 23 40h70c19 0 37 -10 46 -27l166 -289l165 289c9 17 27 27 46 27h71z" />
    <glyph glyph-name="ruble" unicode="&#x20bd;" horiz-adv-x="687" 
d="M383 217h-99v-58h180c10 0 18 -8 18 -17v-36c0 -10 -8 -18 -18 -18h-180v-52c0 -20 -15 -36 -35 -36h-65c-19 0 -35 16 -35 36v52h-87c-10 0 -18 8 -18 18v36c0 9 8 17 18 17h87v58h-69c-20 0 -36 16 -36 35v55c0 20 16 36 36 36h69v321c0 20 16 36 35 36h199
c166 0 269 -97 269 -242s-103 -241 -269 -241zM284 574v-231h99c83 0 130 42 130 115c0 74 -47 116 -130 116h-99z" />
    <glyph glyph-name="bitcoin" unicode="&#x20bf;" horiz-adv-x="612" 
d="M577 202c0 -99 -56 -169 -161 -193v-102c0 -9 -8 -17 -18 -17h-44c-10 0 -18 8 -18 17v93h-8h-64v-93c0 -9 -8 -17 -17 -17h-45c-10 0 -18 8 -18 17v93h-83c-20 0 -36 16 -36 36v628c0 20 16 36 36 36h83v93c0 10 8 17 18 17h45c9 0 17 -7 17 -17v-93h38c12 0 23 0 34 -1
v94c0 10 8 17 18 17h44c10 0 18 -7 18 -17v-109c87 -28 133 -90 133 -172c0 -65 -27 -112 -77 -142v-2c68 -31 105 -88 105 -166zM413 498c0 64 -52 85 -111 85h-101v-174h101c62 0 111 24 111 89zM328 117c65 0 111 32 111 94c0 66 -51 90 -111 90h-127v-184h127z" />
    <glyph glyph-name="sterling" unicode="&#xa3;" horiz-adv-x="599" 
d="M179 126h330c20 0 36 -16 36 -36v-54c0 -20 -16 -36 -36 -36h-428c-20 0 -36 16 -36 36v68c0 14 7 26 17 35c50 40 76 80 76 149c0 6 0 12 -1 17h-74c-10 0 -18 8 -18 18v36c0 10 8 18 18 18h58c-14 39 -32 77 -32 135c0 114 81 201 225 201c93 0 165 -42 198 -118
c9 -20 -3 -43 -24 -48l-65 -16c-12 -3 -25 3 -30 15c-11 24 -35 46 -76 46c-44 0 -84 -28 -84 -89c0 -51 17 -85 28 -126h160c9 0 17 -8 17 -18v-36c0 -10 -8 -18 -17 -18h-150c0 -80 -46 -142 -92 -178v-1z" />
    <glyph glyph-name="currency" unicode="&#xa4;" horiz-adv-x="516" 
d="M459 206c7 -7 7 -18 0 -25l-31 -31c-7 -7 -19 -7 -26 0l-51 51c-27 -16 -58 -26 -92 -26s-66 10 -92 26l-52 -51c-7 -7 -18 -7 -25 0l-32 31c-7 7 -7 18 0 25l52 52c-17 27 -27 58 -27 92s10 65 27 92l-52 52c-7 7 -7 18 0 25l32 31c7 7 18 7 25 0l52 -51
c26 17 58 26 92 26s65 -9 92 -26l51 51c7 7 19 7 26 0l31 -31c7 -7 7 -18 0 -25l-51 -52c16 -27 26 -58 26 -92s-10 -65 -26 -92zM259 273c42 0 77 34 77 77s-35 77 -77 77c-43 0 -78 -34 -78 -77s35 -77 78 -77z" />
    <glyph glyph-name="asterisk" unicode="*" horiz-adv-x="460" 
d="M405 558c5 -14 -4 -30 -19 -34l-99 -22l67 -76c10 -11 8 -30 -4 -39l-31 -22c-12 -9 -30 -5 -38 8l-52 87l-51 -87c-8 -13 -26 -17 -39 -8l-30 22c-13 9 -15 28 -4 39l66 76l-98 22c-15 4 -24 20 -20 34l12 36c5 15 22 23 36 16l93 -40l-10 101c-1 16 11 29 27 29h37
c16 0 28 -13 27 -29l-10 -101l93 40c14 7 31 -1 36 -16z" />
    <glyph glyph-name="degree" unicode="&#xb0;" horiz-adv-x="407" 
d="M203 700c87 0 159 -71 159 -159c0 -87 -72 -158 -159 -158s-158 71 -158 158c0 88 71 159 158 159zM203 472c38 0 70 31 70 69c0 39 -32 70 -70 70s-69 -31 -69 -70c0 -38 31 -69 69 -69z" />
    <glyph glyph-name="numbersign" unicode="#" horiz-adv-x="649" 
d="M593 428c-2 -13 -14 -22 -27 -22h-70l-18 -110h63c16 0 29 -15 26 -31l-5 -36c-2 -13 -13 -22 -27 -22h-72l-22 -133c-2 -17 -17 -29 -35 -29h-38c-16 0 -29 14 -26 31l21 131h-125l-22 -133c-3 -17 -18 -29 -35 -29h-38c-17 0 -29 14 -27 31l22 131h-62
c-16 0 -29 14 -26 31l5 35c2 13 13 23 27 23h70l18 110h-63c-16 0 -29 14 -26 31l5 35c2 13 13 23 27 23h72l22 131c2 17 17 30 35 30h38c16 0 29 -15 26 -31l-21 -130h126l21 131c3 17 18 30 35 30h38c17 0 29 -15 27 -31l-22 -130h62c16 0 29 -15 26 -31zM378 296l18 110
h-126l-18 -110h126z" />
    <glyph glyph-name="copyright" unicode="&#xa9;" horiz-adv-x="819" 
d="M420 471c-74 0 -113 -61 -113 -121s39 -120 113 -120c32 0 57 11 76 28c6 6 15 7 22 2l28 -19c10 -6 11 -19 3 -27c-33 -32 -77 -51 -129 -51c-107 0 -183 81 -183 187s76 187 183 187c52 0 96 -19 129 -50c8 -8 7 -22 -3 -28l-28 -19c-7 -4 -16 -3 -22 2
c-19 18 -44 29 -76 29zM409 710c198 0 359 -162 359 -360s-161 -359 -359 -359s-359 161 -359 359s161 360 359 360zM409 53c164 0 297 133 297 297s-133 297 -297 297s-297 -133 -297 -297s133 -297 297 -297z" />
    <glyph glyph-name="registered" unicode="&#xae;" horiz-adv-x="819" 
d="M559 416c0 -49 -27 -87 -70 -105l78 -118c5 -9 -1 -21 -12 -21h-41c-9 0 -18 5 -22 13l-72 114h-70v-109c0 -10 -8 -18 -18 -18h-35c-9 0 -17 8 -17 18v329c0 10 8 18 17 18h127c83 0 135 -52 135 -121zM350 471v-111h74c36 0 63 18 63 56c0 33 -24 55 -63 55h-74z
M409 710c198 0 359 -162 359 -360s-161 -359 -359 -359s-359 161 -359 359s161 360 359 360zM409 53c164 0 297 133 297 297s-133 297 -297 297s-297 -133 -297 -297s133 -297 297 -297z" />
    <glyph glyph-name="percent" unicode="%" horiz-adv-x="876" 
d="M609 684c7 10 18 16 30 16h45c15 0 23 -16 15 -28l-433 -656c-6 -10 -17 -16 -29 -16h-46c-14 0 -23 16 -15 28zM385 528c0 -94 -77 -170 -170 -170c-94 0 -170 76 -170 170s76 170 170 170c93 0 170 -76 170 -170zM134 528c0 -45 36 -81 81 -81c44 0 81 36 81 81
s-37 81 -81 81c-45 0 -81 -36 -81 -81zM661 342c94 0 170 -76 170 -170s-76 -170 -170 -170s-170 76 -170 170s76 170 170 170zM661 91c45 0 81 37 81 81c0 45 -36 81 -81 81s-81 -36 -81 -81c0 -44 36 -81 81 -81z" />
    <glyph glyph-name="perthousand" unicode="&#x2030;" horiz-adv-x="1286" 
d="M609 684c7 10 18 16 30 16h45c14 0 23 -16 15 -28l-433 -656c-6 -10 -18 -16 -30 -16h-45c-14 0 -23 16 -15 28zM384 528c0 -94 -76 -170 -169 -170c-94 0 -170 76 -170 170s76 170 170 170c93 0 169 -76 169 -170zM134 528c0 -45 36 -81 81 -81c44 0 80 36 80 81
s-36 81 -80 81c-45 0 -81 -36 -81 -81zM661 342c93 0 170 -76 170 -170s-77 -170 -170 -170c-94 0 -170 76 -170 170s76 170 170 170zM661 91c44 0 81 37 81 81c0 45 -37 81 -81 81c-45 0 -81 -36 -81 -81c0 -44 36 -81 81 -81zM1070 342c93 0 169 -76 169 -170
s-76 -170 -169 -170c-94 0 -170 76 -170 170s76 170 170 170zM1070 91c44 0 80 37 80 81c0 45 -36 81 -80 81c-45 0 -81 -36 -81 -81c0 -44 36 -81 81 -81z" />
    <glyph glyph-name="afii61352" unicode="&#x2116;" horiz-adv-x="1110" 
d="M783 183c-20 0 -36 16 -36 35v45c0 19 16 35 36 35h233c20 0 36 -16 36 -35v-45c0 -19 -16 -35 -36 -35h-233zM899 372c-90 0 -164 73 -164 164c0 90 74 164 164 164c91 0 164 -74 164 -164c0 -91 -73 -164 -164 -164zM899 602c-36 0 -66 -30 -66 -66
c0 -37 30 -67 66 -67c37 0 67 30 67 67c0 36 -30 66 -67 66zM497 664c0 20 16 36 36 36h65c19 0 35 -16 35 -36v-628c0 -20 -16 -36 -35 -36h-59c-18 0 -35 9 -45 24l-293 439v-427c0 -20 -16 -36 -36 -36h-65c-19 0 -35 16 -35 36v628c0 20 16 36 35 36h59
c18 0 35 -9 44 -24l294 -439v427z" />
    <glyph glyph-name="section" unicode="&#xa7;" horiz-adv-x="576" 
d="M521 294c0 -58 -35 -113 -76 -142c19 -23 31 -52 31 -90c0 -119 -99 -179 -203 -179c-91 0 -161 35 -189 97c-7 15 2 33 19 37l65 13c12 3 23 -4 29 -14c10 -20 33 -40 73 -40c53 0 79 31 79 70c0 120 -294 62 -294 255c0 58 34 113 76 142c-20 24 -32 53 -32 91
c0 118 100 179 204 179c90 0 160 -36 189 -98c7 -15 -3 -33 -19 -37l-66 -13c-11 -2 -23 4 -29 15c-10 19 -33 39 -73 39c-52 0 -79 -31 -79 -69c0 -120 295 -62 295 -256zM318 226c19 -7 38 -14 56 -23c19 15 34 39 34 66c0 62 -92 80 -150 101c-20 6 -39 14 -56 22
c-19 -14 -35 -38 -35 -65c0 -63 92 -81 151 -101z" />
    <glyph glyph-name="fraction" unicode="&#x2044;" horiz-adv-x="495" 
d="M324 766c6 18 23 30 42 30h47c18 0 31 -17 25 -34l-267 -828c-6 -18 -23 -30 -43 -30h-46c-19 0 -31 17 -26 35z" />
    <glyph glyph-name="longs" unicode="&#x17f;" horiz-adv-x="372" 
d="M316 604c-62 -1 -83 -37 -83 -97v-471c0 -20 -16 -36 -36 -36h-55c-20 0 -36 16 -36 36v355h-36c-19 0 -35 16 -35 36v44c0 20 16 36 35 36h36c0 104 46 206 183 206c12 0 20 0 28 -1c14 -1 25 -12 25 -26v-55c0 -14 -12 -26 -26 -27z" />
    <glyph glyph-name="ampersand" unicode="&#x26;" horiz-adv-x="747" 
d="M583 137c37 -32 73 -64 103 -90c19 -16 8 -47 -17 -47h-68c-15 0 -30 5 -41 15c-16 14 -35 30 -49 43c-49 -37 -118 -70 -216 -70c-161 0 -260 95 -260 209c0 99 73 158 143 192c-23 39 -55 86 -55 146c0 108 87 178 204 178c102 0 186 -69 186 -163
c0 -113 -82 -155 -173 -188c13 -12 32 -32 46 -46l14 -13c33 -31 68 -63 102 -94c17 30 28 60 34 84c5 18 21 29 39 27l36 -5c21 -3 35 -23 30 -44c-12 -46 -30 -92 -58 -134zM319 624c-59 0 -87 -46 -87 -89c0 -42 24 -76 44 -105c88 35 121 64 121 120c0 40 -30 74 -78 74
zM289 86c70 0 114 19 139 46c-34 30 -68 62 -101 94l-14 12c-26 25 -57 54 -79 78c-49 -19 -84 -61 -84 -119c0 -71 71 -111 139 -111z" />
    <glyph glyph-name="quotedblleft" unicode="&#x201c;" horiz-adv-x="481" 
d="M69 492c-13 8 -17 25 -9 37l95 153c7 12 23 16 36 9l24 -14c12 -7 16 -22 11 -34l-75 -164c-6 -15 -24 -20 -37 -12zM355 682c7 12 23 16 36 9l24 -14c12 -7 17 -22 11 -34l-75 -164c-6 -15 -24 -20 -37 -12l-44 25c-14 8 -18 25 -10 37z" />
    <glyph glyph-name="quotedblright" unicode="&#x201d;" horiz-adv-x="481" 
d="M330 677c7 14 24 20 38 12l44 -26c13 -7 17 -24 9 -37l-94 -152c-8 -12 -24 -16 -36 -9l-24 14c-12 6 -17 21 -11 34zM66 479c-12 6 -16 21 -11 34l75 164c6 14 24 20 37 12l45 -26c13 -7 17 -24 9 -37l-95 -152c-7 -12 -23 -16 -35 -9z" />
    <glyph glyph-name="quotedblbase" unicode="&#x201e;" horiz-adv-x="451" 
d="M299 108c7 15 24 20 38 12l44 -25c13 -8 18 -25 10 -37l-95 -153c-8 -12 -23 -16 -36 -9l-24 14c-12 7 -17 22 -11 34zM36 -90c-12 7 -17 22 -11 34l74 164c7 15 24 20 38 12l44 -25c13 -8 17 -25 9 -37l-94 -153c-8 -12 -24 -16 -36 -9z" />
    <glyph glyph-name="quotesingle" unicode="'" horiz-adv-x="236" 
d="M64 673c0 15 12 27 26 27h54c15 0 27 -12 27 -27v-178c0 -15 -12 -27 -27 -27h-54c-14 0 -26 12 -26 27v178z" />
    <glyph glyph-name="at" unicode="@" horiz-adv-x="926" 
d="M468 729c260 0 402 -174 402 -358c0 -158 -88 -236 -170 -236c-58 0 -98 25 -119 73c-29 -40 -76 -68 -142 -68c-113 0 -185 91 -185 196c0 101 73 196 181 196c63 0 105 -28 132 -66v30c0 15 12 27 27 27h30c15 0 27 -12 27 -27v-190c0 -49 5 -92 55 -92
c54 0 84 78 84 157c0 163 -125 290 -329 287c-181 -3 -329 -148 -326 -330c3 -201 160 -314 318 -314c80 0 138 25 169 46c12 7 27 6 35 -5l15 -17c11 -12 8 -31 -6 -40c-44 -28 -114 -55 -213 -55c-233 0 -398 163 -398 391c0 232 164 395 413 395zM459 231
c73 0 105 53 105 105c0 58 -42 105 -105 105c-61 0 -105 -44 -105 -105c0 -58 39 -105 105 -105z" />
    <glyph glyph-name="bullet" unicode="&#x2022;" horiz-adv-x="344" 
d="M172 432c64 0 117 -52 117 -117c0 -64 -53 -116 -117 -116c-65 0 -117 52 -117 116c0 65 52 117 117 117z" />
    <glyph glyph-name="quotedbl" unicode="&#x22;" horiz-adv-x="411" 
d="M91 468c-14 0 -26 12 -26 27v178c0 15 12 27 26 27h54c14 0 26 -12 26 -27v-178c0 -15 -12 -27 -26 -27h-54zM238 673c0 15 12 27 27 27h53c15 0 27 -12 27 -27v-178c0 -15 -12 -27 -27 -27h-53c-15 0 -27 12 -27 27v178z" />
    <glyph glyph-name="AE" unicode="&#xc6;" horiz-adv-x="943" 
d="M620 126h242c20 0 35 -16 35 -36v-54c0 -20 -15 -36 -35 -36h-342c-19 0 -35 16 -35 36v103h-261l-53 -113c-8 -16 -23 -26 -41 -26h-72c-20 0 -33 21 -24 38l307 632c9 18 28 30 48 30h464c19 0 35 -16 35 -36v-54c0 -20 -16 -36 -35 -36h-233v-157h210
c19 0 35 -16 35 -36v-55c0 -19 -16 -35 -35 -35h-210v-165zM280 260h205v314h-58z" />
    <glyph glyph-name="OE" unicode="&#x152;" horiz-adv-x="944" 
d="M620 126h242c20 0 36 -16 36 -36v-54c0 -20 -16 -36 -36 -36h-450c-233 0 -372 144 -372 350s139 350 372 350h441c19 0 35 -16 35 -36v-54c0 -20 -16 -36 -35 -36h-233v-157h210c20 0 36 -16 36 -36v-55c0 -19 -16 -35 -36 -35h-210v-165zM412 126h73v448h-73
c-128 0 -236 -68 -236 -224s108 -224 236 -224z" />
    <glyph glyph-name="Dcroat" unicode="&#x110;" horiz-adv-x="733" 
d="M321 700c233 0 372 -144 372 -350s-139 -350 -372 -350h-182c-19 0 -35 16 -35 36v278h-71c-10 0 -18 8 -18 18v36c0 10 8 18 18 18h71v278c0 20 16 36 35 36h182zM321 126c128 0 237 68 237 224s-109 224 -237 224h-82v-188h141c10 0 18 -8 18 -18v-36
c0 -10 -8 -18 -18 -18h-141v-188h82z" />
    <glyph glyph-name="Oslash" unicode="&#xd8;" horiz-adv-x="792" 
d="M685 566c42 -60 65 -134 65 -216c0 -205 -148 -362 -355 -362c-97 0 -181 34 -243 91l-47 -43c-8 -7 -19 -6 -26 1l-24 27c-7 7 -6 18 1 25l49 45c-42 60 -65 134 -65 216c0 205 148 363 355 363c97 0 181 -35 243 -93l48 44c7 6 18 6 25 -1l24 -27c7 -8 7 -19 -1 -25z
M175 350c0 -43 11 -87 31 -124l334 304c-36 33 -84 53 -145 53c-145 0 -220 -117 -220 -233zM395 117c144 0 220 117 220 233c0 43 -11 86 -31 124l-333 -305c35 -32 84 -52 144 -52z" />
    <glyph glyph-name="Thorn" unicode="&#xde;" horiz-adv-x="603" 
d="M300 592c166 0 268 -97 268 -242s-102 -242 -268 -242h-99v-72c0 -20 -16 -36 -36 -36h-64c-20 0 -36 16 -36 36v628c0 20 16 36 36 36h64c20 0 36 -16 36 -36v-72h99zM300 234c82 0 130 43 130 116s-48 116 -130 116h-99v-232h99z" />
    <glyph glyph-name="Hbar" unicode="&#x126;" horiz-adv-x="758" 
d="M730 596c9 0 17 -8 17 -18v-36c0 -9 -8 -17 -17 -17h-71v-489c0 -20 -16 -36 -36 -36h-64c-20 0 -36 16 -36 36v254h-289v-254c0 -20 -16 -36 -36 -36h-64c-20 0 -36 16 -36 36v489h-70c-10 0 -18 8 -18 17v36c0 10 8 18 18 18h70v68c0 20 16 36 36 36h64
c20 0 36 -16 36 -36v-68h289v68c0 20 16 36 36 36h64c20 0 36 -16 36 -36v-68h71zM523 416v109h-289v-109h289z" />
    <glyph glyph-name="Tbar" unicode="&#x166;" horiz-adv-x="542" 
d="M507 610c0 -20 -16 -36 -36 -36h-132v-162h102c9 0 17 -8 17 -17v-36c0 -10 -8 -18 -17 -18h-102v-305c0 -20 -16 -36 -36 -36h-64c-20 0 -36 16 -36 36v305h-102c-10 0 -18 8 -18 18v36c0 9 8 17 18 17h102v162h-132c-20 0 -36 16 -36 36v54c0 20 16 36 36 36h400
c20 0 36 -16 36 -36v-54z" />
    <glyph glyph-name="Eng" unicode="&#x14a;" horiz-adv-x="699" 
d="M499 664c0 20 16 36 36 36h64c19 0 35 -16 35 -36v-651c0 -128 -46 -224 -184 -224c-10 0 -20 1 -30 2c-18 1 -32 17 -32 35v59c0 14 12 26 26 26c75 1 84 38 85 108l-298 444v-427c0 -20 -16 -36 -35 -36h-65c-20 0 -36 16 -36 36v628c0 20 16 36 36 36h59
c18 0 34 -9 44 -24l295 -439v427z" />
    <glyph glyph-name="Lslash" unicode="&#x141;" horiz-adv-x="547" 
d="M243 126h234c19 0 35 -16 35 -36v-54c0 -20 -16 -36 -35 -36h-335c-19 0 -35 16 -35 36v205l-52 -30c-9 -5 -20 -1 -25 7l-16 29c-5 9 -2 20 7 24l86 49v344c0 20 16 36 35 36h65c20 0 36 -16 36 -36v-268l98 55c8 5 19 2 24 -7l16 -29c5 -8 2 -19 -7 -24l-131 -74v-191z
" />
    <glyph glyph-name="ae" unicode="&#xe6;" horiz-adv-x="1033" 
d="M749 519c144 0 260 -101 254 -280c0 -19 -16 -35 -35 -35h-343c18 -67 74 -103 144 -103c46 0 80 19 100 36c9 8 21 9 31 3l57 -34c15 -9 17 -29 5 -42c-44 -44 -112 -76 -193 -76c-84 0 -154 27 -203 75v-36c0 -15 -12 -27 -26 -27h-74c-15 0 -26 12 -26 27v33
c-33 -42 -84 -72 -162 -72c-158 0 -248 133 -248 265c0 133 90 266 248 266c78 0 129 -30 162 -72v33c0 15 11 27 26 27h74c14 0 26 -12 26 -27v-35c48 47 112 74 183 74zM297 109c88 0 137 66 137 144c0 79 -49 144 -137 144c-87 0 -137 -66 -137 -144
c0 -77 50 -144 137 -144zM624 302h253c-13 67 -58 104 -126 104c-63 0 -111 -39 -127 -104z" />
    <glyph glyph-name="oe" unicode="&#x153;" horiz-adv-x="977" 
d="M691 519c144 0 261 -101 255 -280c-1 -19 -17 -35 -36 -35h-343c18 -67 74 -103 145 -103c45 0 79 19 100 36c8 8 21 9 31 3l56 -34c15 -9 17 -29 5 -42c-43 -44 -111 -76 -192 -76c-93 0 -166 33 -212 89c-48 -55 -120 -89 -203 -89c-152 0 -268 117 -268 265
c0 149 116 266 268 266c83 0 154 -34 203 -89c45 56 113 89 191 89zM297 109c85 0 138 66 138 144c0 79 -53 144 -138 144s-138 -65 -138 -144c0 -78 53 -144 138 -144zM567 302h252c-12 67 -58 104 -125 104c-63 0 -111 -39 -127 -104z" />
    <glyph glyph-name="dcroat" unicode="&#x111;" horiz-adv-x="626" 
d="M609 605c10 0 18 -8 18 -18v-18c0 -9 -8 -17 -18 -17h-43v-516c0 -20 -16 -36 -35 -36h-56c-20 0 -36 16 -36 36v17c-32 -38 -83 -65 -161 -65c-158 0 -248 115 -248 248s90 266 248 266c78 0 129 -31 161 -72v122h-115c-10 0 -18 8 -18 17v18c0 10 8 18 18 18h115v59
c0 20 16 36 36 36h56c19 0 35 -16 35 -36v-59h43zM297 92c87 0 137 65 137 144c0 78 -50 144 -137 144s-137 -67 -137 -144c0 -78 50 -144 137 -144z" />
    <glyph glyph-name="eth" unicode="&#xf0;" horiz-adv-x="584" 
d="M382 615c91 -87 173 -210 173 -372s-105 -255 -264 -255c-150 0 -261 100 -261 246c0 139 104 237 243 237c45 0 81 -13 97 -23l1 1c-15 38 -50 79 -92 115l-107 -52c-9 -5 -20 -1 -24 8l-8 16c-4 9 -1 19 8 24l84 41c-28 20 -57 38 -83 51c-14 8 -16 29 -2 38l49 34
c11 8 26 8 38 1c31 -18 68 -42 105 -72l104 51c9 4 20 1 24 -8l8 -16c4 -9 1 -20 -8 -24zM291 103c87 0 130 65 130 131c0 68 -51 130 -130 130c-78 0 -131 -57 -131 -130c0 -81 64 -131 131 -131z" />
    <glyph glyph-name="oslash" unicode="&#xf8;" horiz-adv-x="596" 
d="M513 414c33 -45 52 -100 52 -161c0 -148 -115 -265 -268 -265c-70 0 -132 25 -179 66l-38 -35c-7 -6 -18 -6 -25 2l-12 13c-6 7 -6 18 1 25l38 34c-33 44 -52 100 -52 160c0 149 115 266 267 266c70 0 133 -25 180 -66l37 34c7 7 19 7 25 -1l12 -13c7 -7 6 -18 -1 -25z
M159 253c0 -26 7 -51 18 -73l207 188c-23 19 -52 29 -87 29c-85 0 -138 -65 -138 -144zM297 109c85 0 138 66 138 144c0 27 -6 52 -18 74l-206 -188c23 -19 52 -30 86 -30z" />
    <glyph glyph-name="thorn" unicode="&#xfe;" horiz-adv-x="626" 
d="M349 519c157 0 247 -133 247 -266c0 -132 -90 -265 -247 -265c-79 0 -130 30 -162 72v-218c0 -19 -16 -35 -36 -35h-55c-20 0 -36 16 -36 35v822c0 20 16 36 36 36h55c20 0 36 -16 36 -36v-217c32 42 83 72 162 72zM329 109c87 0 137 67 137 144c0 78 -50 144 -137 144
s-137 -65 -137 -144c0 -78 50 -144 137 -144z" />
    <glyph glyph-name="quotesinglbase" unicode="&#x201a;" horiz-adv-x="250" 
d="M36 -90c-12 7 -17 22 -11 34l74 164c7 15 24 20 38 12l44 -25c13 -8 17 -25 9 -37l-94 -153c-8 -12 -24 -16 -36 -9z" />
    <glyph glyph-name="quoteleft" unicode="&#x2018;" horiz-adv-x="281" 
d="M69 492c-13 8 -17 25 -9 37l95 153c7 12 23 16 36 9l24 -14c12 -7 16 -22 11 -34l-75 -164c-6 -15 -24 -20 -37 -12z" />
    <glyph glyph-name="quoteright" unicode="&#x2019;" horiz-adv-x="281" 
d="M66 479c-12 6 -16 21 -11 34l75 164c6 14 24 20 37 12l45 -26c13 -7 17 -24 9 -37l-95 -152c-7 -12 -23 -16 -35 -9z" />
    <glyph glyph-name="hbar" unicode="&#x127;" 
d="M335 501c127 0 186 -103 186 -210v-255c0 -20 -16 -36 -36 -36h-56c-19 0 -35 16 -35 36v228c0 65 -27 114 -99 114c-75 0 -108 -55 -108 -114v-228c0 -20 -16 -36 -35 -36h-56c-20 0 -36 16 -36 36v516h-43c-9 0 -17 8 -17 17v18c0 10 8 18 17 18h43v59
c0 20 16 36 36 36h56c19 0 35 -16 35 -36v-59h116c10 0 18 -8 18 -18v-18c0 -9 -8 -17 -18 -17h-116v-125c28 42 74 74 148 74z" />
    <glyph glyph-name="tbar" unicode="&#x167;" horiz-adv-x="382" 
d="M337 427c0 -20 -16 -36 -35 -36h-73v-71h90c10 0 18 -8 18 -18v-18c0 -10 -8 -18 -18 -18h-90v-60c0 -58 8 -92 78 -92h3c15 0 27 -12 27 -27v-66c0 -13 -10 -24 -23 -26c-8 -1 -17 -2 -30 -2c-130 0 -182 87 -182 192v81h-63c-10 0 -18 8 -18 18v18c0 10 8 18 18 18h63
v71h-45c-20 0 -36 16 -36 36v45c0 19 16 35 36 35h45v71c0 19 16 35 36 35h56c19 0 35 -16 35 -35v-71h73c19 0 35 -16 35 -35v-45z" />
    <glyph glyph-name="eng" unicode="&#x14b;" horiz-adv-x="581" 
d="M334 519c128 0 186 -103 186 -211v-299c0 -113 -57 -193 -185 -193c-6 0 -12 0 -19 1c-14 1 -24 12 -24 26v65c0 14 11 26 24 27c52 2 77 28 77 92v255c0 65 -27 114 -99 114c-75 0 -108 -55 -108 -114v-246c0 -20 -15 -36 -35 -36h-56c-19 0 -35 16 -35 36v435
c0 20 16 36 35 36h56c20 0 35 -16 35 -36v-26c28 41 74 74 148 74z" />
    <glyph glyph-name="lslash" unicode="&#x142;" horiz-adv-x="330" 
d="M315 431c5 -8 2 -19 -6 -24l-82 -49v-322c0 -20 -16 -36 -35 -36h-56c-20 0 -35 16 -35 36v245l-54 -33c-9 -5 -20 -2 -25 6l-9 15c-5 9 -2 20 6 25l82 49v321c0 20 15 36 35 36h56c19 0 35 -16 35 -36v-244l54 33c9 5 20 2 25 -6z" />
    <glyph glyph-name="napostrophe" unicode="&#x149;" horiz-adv-x="612" 
d="M365 519c128 0 186 -103 186 -211v-272c0 -20 -16 -36 -36 -36h-55c-20 0 -36 16 -36 36v246c0 65 -27 114 -99 114c-75 0 -108 -55 -108 -114v-246c0 -20 -16 -36 -35 -36h-56c-19 0 -35 16 -35 36v435c0 20 16 36 35 36h56c19 0 35 -16 35 -36v-26c28 41 74 74 148 74z
M35 677c6 14 19 23 34 23h70c13 0 22 -14 15 -26l-56 -104c-6 -12 -18 -19 -31 -19h-53c-12 0 -21 12 -16 24z" />
    <glyph glyph-name="germandbls" unicode="&#xdf;" horiz-adv-x="593" 
d="M428 366c80 -27 135 -82 135 -174c0 -132 -102 -212 -255 -195c-13 1 -23 13 -23 26v48c0 16 12 28 28 27c85 -3 124 39 124 102c0 70 -56 92 -127 93c-14 1 -25 13 -25 27v58c0 13 10 24 23 26c53 8 80 43 80 95c0 53 -38 92 -99 92c-59 0 -102 -37 -102 -126v-429
c0 -20 -16 -36 -36 -36h-56c-19 0 -35 16 -35 36v444c0 136 99 233 229 233c139 0 221 -102 221 -207c0 -62 -30 -110 -82 -140z" />
    <glyph glyph-name="ogonek" unicode="&#x2db;" horiz-adv-x="296" 
d="M149 -108c0 -25 15 -43 52 -43h11c10 1 18 -7 18 -18v-40c0 -13 -9 -24 -22 -26c-7 -1 -16 -2 -25 -2c-67 0 -118 37 -118 98c0 62 43 106 80 131c7 5 16 8 25 8h31c9 0 12 -11 6 -16c-36 -27 -58 -57 -58 -92z" />
    <glyph glyph-name="cedilla" unicode="&#xb8;" horiz-adv-x="352" 
d="M177 -46c61 -4 110 -32 110 -100c0 -61 -51 -107 -121 -107c-28 0 -53 5 -74 13c-15 5 -22 23 -14 38l14 24c4 8 14 11 22 8c10 -4 22 -7 38 -7c33 0 53 17 53 42c0 34 -29 38 -46 38c-8 0 -15 -1 -21 -3c-8 -2 -15 0 -20 6l-8 10c-6 9 -7 19 -2 29l20 40
c4 9 14 15 24 15h19c13 0 22 -14 16 -26z" />
    <glyph glyph-name="commaaccent" unicode="&#xf6c3;" horiz-adv-x="310" 
d="M112 -105c5 14 18 23 33 23h70c14 0 22 -15 16 -26l-57 -105c-6 -11 -18 -18 -31 -18h-52c-13 0 -21 12 -17 24z" />
    <glyph glyph-name="Aogonek" unicode="&#x104;" horiz-adv-x="700" 
d="M604 -108c0 -25 15 -43 52 -43h10c11 1 19 -7 19 -18v-40c0 -13 -9 -24 -22 -26c-8 -1 -16 -2 -25 -2c-68 0 -119 37 -119 98c0 69 54 115 92 139h-38c-19 0 -36 12 -42 30l-37 109h-288l-37 -109c-6 -18 -23 -30 -42 -30h-74c-19 0 -32 18 -25 36l228 635
c6 17 23 29 42 29h104c19 0 35 -12 42 -29l234 -651c4 -12 0 -24 -10 -31c-40 -28 -64 -60 -64 -97zM247 260h206l-103 303z" />
    <glyph glyph-name="tilde" unicode="&#x2dc;" horiz-adv-x="445" 
d="M323 691l41 -8c9 -1 16 -10 15 -19c-6 -55 -36 -88 -84 -88c-51 0 -86 30 -127 30c-16 0 -24 -11 -27 -23c-2 -9 -11 -14 -20 -13l-41 7c-9 2 -15 10 -14 20c6 57 37 88 83 88c51 0 87 -30 126 -30c18 0 25 11 28 22c3 9 11 15 20 14z" />
    <glyph glyph-name="grave" unicode="`" horiz-adv-x="330" 
d="M177 727c13 0 26 -8 32 -20l44 -95c5 -11 -3 -25 -16 -25h-56c-12 0 -23 6 -30 15l-67 97c-8 12 1 28 15 28h78z" />
    <glyph glyph-name="acute" unicode="&#xb4;" horiz-adv-x="329" 
d="M153 727h77c15 0 23 -16 15 -28l-67 -97c-7 -9 -18 -15 -29 -15h-56c-13 0 -22 14 -17 25l44 95c6 12 19 20 33 20z" />
    <glyph glyph-name="circumflex" unicode="&#x2c6;" horiz-adv-x="473" 
d="M386 616c10 -12 1 -29 -14 -29h-53c-14 0 -27 7 -36 18l-45 63l-46 -63c-8 -11 -21 -18 -36 -18h-53c-15 0 -23 17 -14 29l74 94c9 11 22 17 35 17h79c14 0 27 -6 35 -17z" />
    <glyph glyph-name="Ccedilla" unicode="&#xc7;" horiz-adv-x="694" 
d="M396 117c62 0 111 21 146 54c13 12 31 13 44 4l53 -35c19 -12 22 -39 5 -55c-62 -61 -148 -97 -247 -97l-17 -35c61 -3 110 -32 110 -99c0 -61 -50 -107 -121 -107c-28 0 -53 4 -74 12c-15 6 -22 24 -14 38l14 24c4 8 14 12 22 8c10 -4 22 -7 38 -7c33 0 53 17 53 43
c0 33 -29 38 -46 38c-8 0 -15 -2 -21 -3c-7 -3 -15 0 -20 6l-8 10c-6 8 -7 19 -2 28l24 48c-175 28 -295 174 -295 358c0 205 149 363 356 363c100 0 186 -37 248 -98c17 -16 14 -43 -5 -55l-53 -35c-13 -9 -31 -7 -44 4c-35 33 -84 54 -146 54c-145 0 -220 -117 -220 -233
s75 -233 220 -233z" />
    <glyph glyph-name="breve" unicode="&#x2d8;" horiz-adv-x="448" 
d="M317 723h37c16 0 29 -14 26 -31c-12 -73 -68 -118 -156 -118s-144 45 -156 118c-3 17 10 31 26 31h37c12 0 23 -8 26 -20c6 -26 26 -49 67 -49s61 23 67 49c3 12 14 20 26 20z" />
    <glyph glyph-name="dotaccent" unicode="&#x2d9;" horiz-adv-x="267" 
d="M133 716c38 0 69 -30 69 -68s-31 -69 -69 -69c-37 0 -68 31 -68 69s31 68 68 68z" />
    <glyph glyph-name="Eogonek" unicode="&#x118;" horiz-adv-x="523" 
d="M478 15c0 -9 -4 -18 -12 -22c-43 -29 -69 -62 -69 -101c0 -25 15 -43 52 -43h10c10 1 19 -7 19 -18v-40c0 -13 -9 -24 -22 -26c-8 -1 -16 -2 -26 -2c-67 0 -118 37 -118 98c0 69 54 115 92 139h-304c-19 0 -35 16 -35 36v628c0 20 16 36 35 36h333c20 0 36 -16 36 -36
v-54c0 -20 -16 -36 -36 -36h-232v-157h209c20 0 36 -16 36 -36v-55c0 -19 -16 -35 -36 -35h-209v-165h241c20 0 36 -16 36 -36v-75z" />
    <glyph glyph-name="macron" unicode="&#xaf;" horiz-adv-x="421" 
d="M65 670c0 15 12 27 27 27h237c15 0 27 -12 27 -27v-44c0 -15 -12 -27 -27 -27h-237c-15 0 -27 12 -27 27v44z" />
    <glyph glyph-name="Iogonek" unicode="&#x12e;" horiz-adv-x="265" 
d="M200 19c0 -11 -6 -22 -16 -29c-41 -28 -66 -60 -66 -98c0 -25 15 -43 53 -43h10c10 1 19 -7 19 -18v-40c0 -13 -10 -24 -22 -26c-8 -1 -17 -2 -26 -2c-67 0 -118 37 -118 98c0 69 54 115 92 139h-27c-19 0 -35 16 -35 36v628c0 20 16 36 35 36h65c20 0 36 -16 36 -36
v-645z" />
    <glyph glyph-name="Scedilla" unicode="&#x15e;" horiz-adv-x="593" 
d="M568 204c0 -107 -74 -212 -250 -216l-17 -35c62 -3 111 -32 111 -99c0 -61 -51 -107 -121 -107c-29 0 -53 4 -74 12c-15 6 -22 24 -14 38l13 24c5 8 14 12 23 8s21 -7 38 -7c33 0 53 17 53 43c0 33 -29 38 -47 38c-8 0 -15 -2 -21 -3c-7 -3 -15 0 -19 6l-8 10
c-6 8 -7 19 -3 28l23 47c-94 10 -175 52 -214 128c-10 19 0 43 21 49l63 20c16 5 33 -1 41 -15c20 -34 62 -67 140 -67c70 0 126 27 126 87c0 70 -79 75 -190 103c-141 35 -188 105 -188 202c0 132 101 215 247 215c102 0 184 -44 224 -125c10 -20 -2 -44 -24 -50l-63 -15
c-15 -4 -31 3 -39 17c-16 29 -50 54 -105 54c-57 0 -106 -30 -106 -87c0 -78 89 -90 154 -105c166 -38 226 -86 226 -198z" />
    <glyph glyph-name="caron" unicode="&#x2c7;" horiz-adv-x="472" 
d="M87 698c-9 12 -1 29 14 29h54c14 0 27 -7 35 -18l46 -62l45 62c9 11 22 18 36 18h54c14 0 23 -17 14 -29l-75 -94c-8 -11 -21 -17 -35 -17h-79c-13 0 -26 6 -35 17z" />
    <glyph glyph-name="ring" unicode="&#x2da;" horiz-adv-x="357" 
d="M179 770c62 0 113 -51 113 -113c0 -63 -51 -114 -113 -114c-63 0 -114 51 -114 114c0 62 51 113 114 113zM179 606c28 0 51 23 51 51s-23 51 -51 51c-29 0 -52 -23 -52 -51s23 -51 52 -51z" />
    <glyph glyph-name="dieresis" unicode="&#xa8;" horiz-adv-x="479" 
d="M134 716c38 0 68 -30 68 -68s-30 -69 -68 -69s-69 31 -69 69s31 68 69 68zM345 716c38 0 69 -30 69 -68s-31 -69 -69 -69c-37 0 -68 31 -68 69s31 68 68 68z" />
    <glyph glyph-name="Uogonek" unicode="&#x172;" horiz-adv-x="697" 
d="M532 700h65c19 0 35 -16 35 -36v-406c0 -123 -56 -214 -161 -251c-50 -31 -81 -73 -81 -115c0 -25 15 -43 52 -43h10c10 1 19 -7 19 -18v-40c0 -13 -9 -24 -22 -26c-8 -1 -16 -2 -26 -2c-67 0 -118 37 -118 98c0 59 40 102 76 128c-11 -1 -21 -1 -32 -1
c-183 0 -284 105 -284 270v406c0 20 16 36 36 36h64c20 0 36 -16 36 -36v-388c0 -116 71 -159 148 -159c76 0 147 43 147 159v388c0 20 16 36 36 36z" />
    <glyph glyph-name="hungarumlaut" unicode="&#x2dd;" horiz-adv-x="525" 
d="M349 727h77c15 0 23 -16 15 -28l-67 -97c-7 -9 -18 -15 -29 -15h-56c-13 0 -22 14 -17 25l44 95c6 12 19 20 33 20zM154 727h77c14 0 23 -16 15 -28l-67 -97c-7 -9 -18 -15 -30 -15h-56c-13 0 -21 14 -16 25l44 95c6 12 19 20 33 20z" />
    <glyph glyph-name="aogonek" unicode="&#x105;" horiz-adv-x="626" 
d="M566 19c0 -11 -5 -22 -15 -29c-41 -28 -66 -60 -66 -98c0 -25 15 -43 52 -43h11c10 1 18 -7 18 -18v-40c0 -13 -9 -24 -22 -26c-7 -1 -16 -2 -25 -2c-67 0 -118 37 -118 98c0 69 54 115 92 139h-18c-19 0 -35 16 -35 36v24c-33 -42 -84 -72 -162 -72
c-158 0 -248 133 -248 265c0 133 90 266 248 266c78 0 129 -30 162 -72v24c0 20 16 36 35 36h56c20 0 35 -16 35 -36v-452zM297 109c88 0 137 66 137 144c0 79 -49 144 -137 144c-86 0 -137 -66 -137 -144c0 -77 51 -144 137 -144z" />
    <glyph glyph-name="ccedilla" unicode="&#xe7;" horiz-adv-x="541" 
d="M298 109c44 0 80 18 104 47c8 10 23 13 34 6l64 -37c14 -8 18 -27 7 -40c-47 -59 -120 -96 -206 -97l-17 -35c62 -3 111 -32 111 -99c0 -61 -51 -107 -121 -107c-29 0 -53 4 -74 12c-15 6 -22 24 -14 38l13 24c5 8 14 12 23 8s21 -7 38 -7c33 0 53 17 53 43
c0 33 -29 38 -46 38c-9 0 -16 -2 -22 -3c-7 -3 -15 0 -19 6l-8 10c-6 8 -7 19 -3 28l25 50c-123 25 -210 131 -210 259c0 149 115 266 268 266c87 0 161 -38 210 -98c10 -13 6 -31 -8 -40l-64 -36c-11 -7 -26 -4 -34 6c-24 28 -60 46 -104 46c-85 0 -138 -65 -138 -144
c0 -78 53 -144 138 -144z" />
    <glyph glyph-name="eogonek" unicode="&#x119;" horiz-adv-x="574" 
d="M165 302h252c-13 67 -58 104 -125 104c-63 0 -111 -39 -127 -104zM299 -108c0 -25 15 -43 52 -43h11c10 1 18 -7 18 -18v-40c0 -13 -9 -24 -22 -26c-7 -1 -16 -2 -25 -2c-67 0 -118 37 -118 98c0 59 39 102 74 127c-157 9 -259 117 -259 265c0 159 119 266 259 266
c144 0 261 -101 255 -280c-1 -19 -17 -35 -36 -35h-343c18 -67 74 -103 145 -103c45 0 79 19 99 36c9 8 22 9 31 3l57 -34c15 -9 17 -29 5 -42c-32 -32 -77 -58 -130 -70c-35 -23 -73 -57 -73 -102z" />
    <glyph glyph-name="iogonek" unicode="&#x12f;" horiz-adv-x="247" 
d="M96 0c-20 0 -36 16 -36 36v435c0 20 16 36 36 36h56c19 0 35 -16 35 -36v-452c0 -11 -6 -22 -15 -29c-41 -28 -66 -60 -66 -98c0 -25 15 -43 52 -43h10c10 1 19 -7 19 -18v-40c0 -13 -9 -24 -22 -26c-8 -1 -16 -2 -25 -2c-68 0 -119 37 -119 98c0 69 54 115 92 139h-17z
M124 581c-38 0 -68 31 -68 68s30 68 68 68c37 0 67 -31 67 -68s-30 -68 -67 -68z" />
    <glyph glyph-name="scedilla" unicode="&#x15f;" horiz-adv-x="473" 
d="M449 156c0 -94 -65 -161 -193 -168l-17 -35c62 -3 111 -32 111 -99c0 -61 -51 -107 -122 -107c-28 0 -53 4 -73 12c-16 6 -22 24 -15 38l14 24c4 8 14 12 22 8c10 -4 22 -7 39 -7c33 0 53 17 53 43c0 33 -30 38 -47 38c-8 0 -15 -2 -21 -3c-7 -3 -15 0 -20 6l-7 10
c-7 8 -8 19 -3 28l23 46c-70 8 -136 37 -166 92c-8 14 0 33 16 38l71 22c12 4 25 -1 31 -12c12 -18 37 -36 91 -36c52 0 83 20 83 54c0 47 -74 46 -133 58c-99 20 -149 68 -149 154c0 96 81 159 199 159c77 0 152 -33 184 -100c7 -15 -1 -33 -18 -37l-64 -16
c-12 -3 -23 2 -30 12c-11 19 -35 34 -71 34c-38 0 -75 -13 -75 -51c0 -45 67 -49 108 -58c124 -27 179 -61 179 -147z" />
    <glyph glyph-name="uogonek" unicode="&#x173;" 
d="M520 19c0 -11 -6 -22 -16 -29c-40 -28 -65 -60 -65 -98c0 -25 15 -43 52 -43h10c10 1 19 -7 19 -18v-40c0 -13 -9 -24 -22 -26c-8 -1 -16 -2 -26 -2c-67 0 -118 37 -118 98c0 69 54 115 92 139h-17c-20 0 -36 16 -36 36v26c-28 -41 -73 -74 -147 -74
c-128 0 -186 103 -186 210v273c0 20 16 36 36 36h55c20 0 36 -16 36 -36v-246c0 -65 27 -114 99 -114c75 0 107 55 107 114v246c0 20 16 36 36 36h55c20 0 36 -16 36 -36v-452z" />
    <glyph glyph-name="dcaron" unicode="&#x10f;" horiz-adv-x="697" 
d="M439 664c0 20 16 36 35 36h56c20 0 36 -16 36 -36v-628c0 -20 -16 -36 -36 -36h-56c-19 0 -35 16 -35 36v24c-33 -42 -83 -72 -162 -72c-157 0 -247 133 -247 265c0 133 90 266 247 266c79 0 129 -30 162 -72v217zM297 109c87 0 136 66 136 144c0 79 -49 144 -136 144
s-137 -66 -137 -144c0 -77 50 -144 137 -144zM664 677c5 14 18 23 33 23h70c14 0 22 -15 16 -26l-57 -105c-6 -11 -18 -18 -31 -18h-52c-13 0 -21 12 -17 24z" />
    <glyph glyph-name="tcaron" unicode="&#x165;" horiz-adv-x="382" 
d="M337 426c0 -19 -16 -35 -36 -35h-72v-185c0 -58 8 -92 78 -92h2c15 0 28 -12 28 -27v-66c0 -14 -10 -25 -23 -27c-9 -1 -18 -1 -30 -1c-130 0 -182 87 -182 192v206h-46c-19 0 -35 16 -35 35v45c0 20 16 36 35 36h46v70c0 20 15 36 35 36h56c20 0 36 -16 36 -36v-70h72
c20 0 36 -16 36 -36v-45zM350 689c5 14 18 23 33 23h70c14 0 22 -15 16 -26l-57 -105c-6 -11 -18 -18 -31 -18h-52c-13 0 -21 12 -17 24z" />
    <glyph glyph-name="Ldot" unicode="&#x13f;" horiz-adv-x="505" 
d="M360 279c-38 0 -69 31 -69 69s31 69 69 69s69 -31 69 -69s-31 -69 -69 -69zM201 126h234c20 0 35 -16 35 -36v-54c0 -20 -15 -36 -35 -36h-335c-19 0 -35 16 -35 36v628c0 20 16 36 35 36h65c20 0 36 -16 36 -36v-538z" />
    <glyph glyph-name="ldot" unicode="&#x140;" horiz-adv-x="419" 
d="M335 400c38 0 69 -31 69 -69c0 -39 -31 -69 -69 -69s-69 30 -69 69c0 38 31 69 69 69zM60 664c0 20 16 36 36 36h56c19 0 35 -16 35 -36v-628c0 -20 -16 -36 -35 -36h-56c-20 0 -36 16 -36 36v628z" />
    <glyph glyph-name="lcaron" unicode="&#x13e;" horiz-adv-x="318" 
d="M60 664c0 20 16 36 36 36h56c19 0 35 -16 35 -36v-628c0 -20 -16 -36 -35 -36h-56c-20 0 -36 16 -36 36v628zM285 677c5 14 18 23 33 23h70c14 0 22 -15 16 -26l-57 -105c-6 -11 -18 -18 -31 -18h-52c-13 0 -21 12 -17 24z" />
    <glyph glyph-name="space" unicode=" " horiz-adv-x="260" 
 />
    <glyph glyph-name="Aacute" unicode="&#xc1;" horiz-adv-x="700" 
d="M574 0c-19 0 -36 12 -42 30l-37 109h-288l-37 -109c-6 -18 -23 -30 -42 -30h-74c-19 0 -32 18 -26 36l229 635c6 17 23 29 42 29h104c19 0 35 -12 42 -29l228 -635c6 -18 -7 -36 -25 -36h-74zM248 260h206l-103 303zM388 927h77c15 0 23 -16 15 -28l-67 -97
c-7 -9 -18 -15 -29 -15h-56c-13 0 -22 14 -17 25l44 95c6 12 19 20 33 20z" />
    <glyph glyph-name="Abreve" unicode="&#x102;" horiz-adv-x="700" 
d="M574 0c-19 0 -36 12 -42 30l-37 109h-288l-37 -109c-6 -18 -23 -30 -42 -30h-74c-19 0 -32 18 -26 36l229 635c6 17 23 29 42 29h104c19 0 35 -12 42 -29l228 -635c6 -18 -7 -36 -25 -36h-74zM248 260h206l-103 303zM443 923h37c16 0 29 -14 26 -31
c-12 -73 -68 -118 -156 -118s-144 45 -156 118c-3 17 10 31 26 31h37c12 0 23 -8 26 -20c6 -26 26 -49 67 -49s61 23 67 49c3 12 14 20 26 20z" />
    <glyph glyph-name="Acircumflex" unicode="&#xc2;" horiz-adv-x="700" 
d="M574 0c-19 0 -36 12 -42 30l-37 109h-288l-37 -109c-6 -18 -23 -30 -42 -30h-74c-19 0 -32 18 -26 36l229 635c6 17 23 29 42 29h104c19 0 35 -12 42 -29l228 -635c6 -18 -7 -36 -25 -36h-74zM248 260h206l-103 303zM500 816c10 -12 1 -29 -14 -29h-53
c-14 0 -27 7 -36 18l-45 63l-46 -63c-8 -11 -21 -18 -36 -18h-53c-15 0 -23 17 -14 29l74 94c9 11 22 17 35 17h79c14 0 27 -6 35 -17z" />
    <glyph glyph-name="Agrave" unicode="&#xc0;" horiz-adv-x="700" 
d="M574 0c-19 0 -36 12 -42 30l-37 109h-288l-37 -109c-6 -18 -23 -30 -42 -30h-74c-19 0 -32 18 -26 36l229 635c6 17 23 29 42 29h104c19 0 35 -12 42 -29l228 -635c6 -18 -7 -36 -25 -36h-74zM248 260h206l-103 303zM312 927c13 0 26 -8 32 -20l44 -95
c5 -11 -3 -25 -16 -25h-56c-12 0 -23 6 -30 15l-67 97c-8 12 1 28 15 28h78z" />
    <glyph glyph-name="Adieresis" unicode="&#xc4;" horiz-adv-x="700" 
d="M574 0c-19 0 -36 12 -42 30l-37 109h-288l-37 -109c-6 -18 -23 -30 -42 -30h-74c-19 0 -32 18 -26 36l229 635c6 17 23 29 42 29h104c19 0 35 -12 42 -29l228 -635c6 -18 -7 -36 -25 -36h-74zM248 260h206l-103 303zM245 916c38 0 68 -30 68 -68s-30 -69 -68 -69
s-69 31 -69 69s31 68 69 68zM456 916c38 0 69 -30 69 -68s-31 -69 -69 -69c-37 0 -68 31 -68 69s31 68 68 68z" />
    <glyph glyph-name="Amacron" unicode="&#x100;" horiz-adv-x="700" 
d="M574 0c-19 0 -36 12 -42 30l-37 109h-288l-37 -109c-6 -18 -23 -30 -42 -30h-74c-19 0 -32 18 -26 36l229 635c6 17 23 29 42 29h104c19 0 35 -12 42 -29l228 -635c6 -18 -7 -36 -25 -36h-74zM248 260h206l-103 303zM204 870c0 15 12 27 27 27h237c15 0 27 -12 27 -27
v-44c0 -15 -12 -27 -27 -27h-237c-15 0 -27 12 -27 27v44z" />
    <glyph glyph-name="Aring" unicode="&#xc5;" horiz-adv-x="700" 
d="M574 0c-19 0 -36 12 -42 30l-37 109h-288l-37 -109c-6 -18 -23 -30 -42 -30h-74c-19 0 -32 18 -26 36l229 635c6 17 23 29 42 29h104c19 0 35 -12 42 -29l228 -635c6 -18 -7 -36 -25 -36h-74zM248 260h206l-103 303zM350 970c62 0 113 -51 113 -113
c0 -63 -51 -114 -113 -114c-63 0 -114 51 -114 114c0 62 51 113 114 113zM350 806c28 0 51 23 51 51s-23 51 -51 51c-29 0 -52 -23 -52 -51s23 -51 52 -51z" />
    <glyph glyph-name="Atilde" unicode="&#xc3;" horiz-adv-x="700" 
d="M574 0c-19 0 -36 12 -42 30l-37 109h-288l-37 -109c-6 -18 -23 -30 -42 -30h-74c-19 0 -32 18 -26 36l229 635c6 17 23 29 42 29h104c19 0 35 -12 42 -29l228 -635c6 -18 -7 -36 -25 -36h-74zM248 260h206l-103 303zM451 891l41 -8c9 -1 16 -10 15 -19
c-6 -55 -36 -88 -84 -88c-51 0 -86 30 -127 30c-16 0 -24 -11 -27 -23c-2 -9 -11 -14 -20 -13l-41 7c-9 2 -15 10 -14 20c6 57 37 88 83 88c51 0 87 -30 126 -30c18 0 25 11 28 22c3 9 11 15 20 14z" />
    <glyph glyph-name="Edotaccent" unicode="&#x116;" horiz-adv-x="523" 
d="M201 126h242c20 0 36 -16 36 -36v-54c0 -20 -16 -36 -36 -36h-342c-20 0 -36 16 -36 36v628c0 20 16 36 36 36h333c19 0 35 -16 35 -36v-54c0 -20 -16 -36 -35 -36h-233v-157h210c19 0 35 -16 35 -36v-55c0 -19 -16 -35 -35 -35h-210v-165zM271 916c38 0 69 -30 69 -68
s-31 -69 -69 -69c-37 0 -68 31 -68 69s31 68 68 68z" />
    <glyph glyph-name="Scaron" unicode="&#x160;" horiz-adv-x="593" 
d="M342 402c166 -38 226 -86 226 -198c0 -110 -77 -216 -261 -216c-115 0 -220 41 -266 130c-10 20 0 44 21 50l63 20c16 5 33 -1 41 -15c20 -34 62 -67 140 -67c70 0 126 27 126 88c0 69 -79 74 -190 102c-141 35 -188 105 -188 202c0 132 101 215 247 215
c101 0 184 -44 224 -125c10 -20 -2 -44 -24 -50l-63 -15c-15 -4 -31 3 -39 17c-16 29 -50 54 -105 54c-57 0 -106 -30 -106 -87c0 -78 89 -90 154 -105zM147 898c-9 12 -1 29 14 29h54c14 0 27 -7 35 -18l46 -62l45 62c9 11 22 18 36 18h54c14 0 23 -17 14 -29l-75 -94
c-8 -11 -21 -17 -35 -17h-79c-13 0 -26 6 -35 17z" />
    <glyph glyph-name="Uhungarumlaut" unicode="&#x170;" horiz-adv-x="697" 
d="M532 700h65c19 0 35 -16 35 -36v-406c0 -165 -100 -270 -283 -270s-284 105 -284 270v406c0 20 16 36 36 36h64c20 0 36 -16 36 -36v-388c0 -116 71 -159 148 -159c76 0 148 43 148 159v388c0 20 16 36 35 36zM475 927h77c15 0 23 -16 15 -28l-67 -97
c-7 -9 -18 -15 -29 -15h-56c-13 0 -22 14 -17 25l44 95c6 12 19 20 33 20zM280 927h77c14 0 23 -16 15 -28l-67 -97c-7 -9 -18 -15 -30 -15h-56c-13 0 -21 14 -16 25l44 95c6 12 19 20 33 20z" />
    <glyph glyph-name="AEacute" unicode="&#x1fc;" horiz-adv-x="943" 
d="M620 126h242c20 0 35 -16 35 -36v-54c0 -20 -15 -36 -35 -36h-342c-19 0 -35 16 -35 36v103h-261l-53 -113c-8 -16 -23 -26 -41 -26h-72c-20 0 -33 21 -24 38l307 632c9 18 28 30 48 30h464c19 0 35 -16 35 -36v-54c0 -20 -16 -36 -35 -36h-233v-157h210
c19 0 35 -16 35 -36v-55c0 -19 -16 -35 -35 -35h-210v-165zM280 260h205v314h-58zM615 927h77c15 0 23 -16 15 -28l-67 -97c-7 -9 -18 -15 -29 -15h-56c-13 0 -22 14 -17 25l44 95c6 12 19 20 33 20z" />
    <glyph glyph-name="Cacute" unicode="&#x106;" horiz-adv-x="694" 
d="M396 117c61 0 110 21 146 54c12 12 30 13 44 4l53 -35c19 -12 21 -39 5 -55c-62 -61 -148 -97 -248 -97c-208 0 -356 157 -356 362s148 363 356 363c100 0 186 -37 248 -98c16 -16 14 -43 -5 -55l-53 -35c-14 -9 -32 -7 -44 4c-36 33 -85 54 -146 54
c-145 0 -220 -117 -220 -233s75 -233 220 -233zM405 927h77c15 0 23 -16 15 -28l-67 -97c-7 -9 -18 -15 -29 -15h-56c-13 0 -22 14 -17 25l44 95c6 12 19 20 33 20z" />
    <glyph glyph-name="Ccaron" unicode="&#x10c;" horiz-adv-x="694" 
d="M396 117c61 0 110 21 146 54c12 12 30 13 44 4l53 -35c19 -12 21 -39 5 -55c-62 -61 -148 -97 -248 -97c-208 0 -356 157 -356 362s148 363 356 363c100 0 186 -37 248 -98c16 -16 14 -43 -5 -55l-53 -35c-14 -9 -32 -7 -44 4c-36 33 -85 54 -146 54
c-145 0 -220 -117 -220 -233s75 -233 220 -233zM228 898c-9 12 -1 29 14 29h54c14 0 27 -7 35 -18l46 -62l45 62c9 11 22 18 36 18h54c14 0 23 -17 14 -29l-75 -94c-8 -11 -21 -17 -35 -17h-79c-13 0 -26 6 -35 17z" />
    <glyph glyph-name="Ccircumflex" unicode="&#x108;" horiz-adv-x="694" 
d="M396 117c61 0 110 21 146 54c12 12 30 13 44 4l53 -35c19 -12 21 -39 5 -55c-62 -61 -148 -97 -248 -97c-208 0 -356 157 -356 362s148 363 356 363c100 0 186 -37 248 -98c16 -16 14 -43 -5 -55l-53 -35c-14 -9 -32 -7 -44 4c-36 33 -85 54 -146 54
c-145 0 -220 -117 -220 -233s75 -233 220 -233zM526 816c10 -12 1 -29 -14 -29h-53c-14 0 -27 7 -36 18l-45 63l-46 -63c-8 -11 -21 -18 -36 -18h-53c-15 0 -23 17 -14 29l74 94c9 11 22 17 35 17h79c14 0 27 -6 35 -17z" />
    <glyph glyph-name="Cdotaccent" unicode="&#x10a;" horiz-adv-x="694" 
d="M396 117c61 0 110 21 146 54c12 12 30 13 44 4l53 -35c19 -12 21 -39 5 -55c-62 -61 -148 -97 -248 -97c-208 0 -356 157 -356 362s148 363 356 363c100 0 186 -37 248 -98c16 -16 14 -43 -5 -55l-53 -35c-14 -9 -32 -7 -44 4c-36 33 -85 54 -146 54
c-145 0 -220 -117 -220 -233s75 -233 220 -233zM376 916c38 0 69 -30 69 -68s-31 -69 -69 -69c-37 0 -68 31 -68 69s31 68 68 68z" />
    <glyph glyph-name="Dcaron" unicode="&#x10e;" horiz-adv-x="695" 
d="M282 700c234 0 373 -144 373 -350s-139 -350 -373 -350h-182c-19 0 -35 16 -35 36v628c0 20 16 36 35 36h182zM282 126c128 0 237 68 237 224s-109 224 -237 224h-81v-448h81zM191 898c-9 12 -1 29 14 29h54c14 0 27 -7 35 -18l46 -62l45 62c9 11 22 18 36 18h54
c14 0 23 -17 14 -29l-75 -94c-8 -11 -21 -17 -35 -17h-79c-13 0 -26 6 -35 17z" />
    <glyph glyph-name="Eacute" unicode="&#xc9;" horiz-adv-x="523" 
d="M201 126h242c20 0 36 -16 36 -36v-54c0 -20 -16 -36 -36 -36h-342c-20 0 -36 16 -36 36v628c0 20 16 36 36 36h333c19 0 35 -16 35 -36v-54c0 -20 -16 -36 -35 -36h-233v-157h210c19 0 35 -16 35 -36v-55c0 -19 -16 -35 -35 -35h-210v-165zM300 927h77
c15 0 23 -16 15 -28l-67 -97c-7 -9 -18 -15 -29 -15h-56c-13 0 -22 14 -17 25l44 95c6 12 19 20 33 20z" />
    <glyph glyph-name="Ebreve" unicode="&#x114;" horiz-adv-x="523" 
d="M201 126h242c20 0 36 -16 36 -36v-54c0 -20 -16 -36 -36 -36h-342c-20 0 -36 16 -36 36v628c0 20 16 36 36 36h333c19 0 35 -16 35 -36v-54c0 -20 -16 -36 -35 -36h-233v-157h210c19 0 35 -16 35 -36v-55c0 -19 -16 -35 -35 -35h-210v-165zM364 923h37
c16 0 29 -14 26 -31c-12 -73 -68 -118 -156 -118s-144 45 -156 118c-3 17 10 31 26 31h37c12 0 23 -8 26 -20c6 -26 26 -49 67 -49s61 23 67 49c3 12 14 20 26 20z" />
    <glyph glyph-name="Ecaron" unicode="&#x11a;" horiz-adv-x="523" 
d="M201 126h242c20 0 36 -16 36 -36v-54c0 -20 -16 -36 -36 -36h-342c-20 0 -36 16 -36 36v628c0 20 16 36 36 36h333c19 0 35 -16 35 -36v-54c0 -20 -16 -36 -35 -36h-233v-157h210c19 0 35 -16 35 -36v-55c0 -19 -16 -35 -35 -35h-210v-165zM122 898c-9 12 -1 29 14 29h54
c14 0 27 -7 35 -18l46 -62l45 62c9 11 22 18 36 18h54c14 0 23 -17 14 -29l-75 -94c-8 -11 -21 -17 -35 -17h-79c-13 0 -26 6 -35 17z" />
    <glyph glyph-name="Ecircumflex" unicode="&#xca;" horiz-adv-x="523" 
d="M201 126h242c20 0 36 -16 36 -36v-54c0 -20 -16 -36 -36 -36h-342c-20 0 -36 16 -36 36v628c0 20 16 36 36 36h333c19 0 35 -16 35 -36v-54c0 -20 -16 -36 -35 -36h-233v-157h210c19 0 35 -16 35 -36v-55c0 -19 -16 -35 -35 -35h-210v-165zM421 816c10 -12 1 -29 -14 -29
h-53c-14 0 -27 7 -36 18l-45 63l-46 -63c-8 -11 -21 -18 -36 -18h-53c-15 0 -23 17 -14 29l74 94c9 11 22 17 35 17h79c14 0 27 -6 35 -17z" />
    <glyph glyph-name="Edieresis" unicode="&#xcb;" horiz-adv-x="523" 
d="M201 126h242c20 0 36 -16 36 -36v-54c0 -20 -16 -36 -36 -36h-342c-20 0 -36 16 -36 36v628c0 20 16 36 36 36h333c19 0 35 -16 35 -36v-54c0 -20 -16 -36 -35 -36h-233v-157h210c19 0 35 -16 35 -36v-55c0 -19 -16 -35 -35 -35h-210v-165zM166 916c38 0 68 -30 68 -68
s-30 -69 -68 -69s-69 31 -69 69s31 68 69 68zM377 916c38 0 69 -30 69 -68s-31 -69 -69 -69c-37 0 -68 31 -68 69s31 68 68 68z" />
    <glyph glyph-name="Egrave" unicode="&#xc8;" horiz-adv-x="523" 
d="M201 126h242c20 0 36 -16 36 -36v-54c0 -20 -16 -36 -36 -36h-342c-20 0 -36 16 -36 36v628c0 20 16 36 36 36h333c19 0 35 -16 35 -36v-54c0 -20 -16 -36 -35 -36h-233v-157h210c19 0 35 -16 35 -36v-55c0 -19 -16 -35 -35 -35h-210v-165zM243 927c13 0 26 -8 32 -20
l44 -95c5 -11 -3 -25 -16 -25h-56c-12 0 -23 6 -30 15l-67 97c-8 12 1 28 15 28h78z" />
    <glyph glyph-name="Emacron" unicode="&#x112;" horiz-adv-x="523" 
d="M201 126h242c20 0 36 -16 36 -36v-54c0 -20 -16 -36 -36 -36h-342c-20 0 -36 16 -36 36v628c0 20 16 36 36 36h333c19 0 35 -16 35 -36v-54c0 -20 -16 -36 -35 -36h-233v-157h210c19 0 35 -16 35 -36v-55c0 -19 -16 -35 -35 -35h-210v-165zM126 870c0 15 12 27 27 27h237
c15 0 27 -12 27 -27v-44c0 -15 -12 -27 -27 -27h-237c-15 0 -27 12 -27 27v44z" />
    <glyph glyph-name="Gbreve" unicode="&#x11e;" horiz-adv-x="772" 
d="M404 361c0 19 16 35 36 35h241c20 0 36 -16 36 -35v-334c0 -15 -12 -27 -27 -27h-24c-13 0 -24 9 -26 22l-14 78c-47 -68 -122 -112 -231 -112c-207 0 -355 157 -355 362s148 363 355 363c100 0 186 -37 249 -98c16 -16 14 -43 -5 -55l-53 -35c-14 -9 -32 -7 -44 4
c-36 33 -85 54 -147 54c-144 0 -220 -117 -220 -233s76 -233 220 -233c122 0 189 71 209 161h-164c-20 0 -36 16 -36 36v47zM477 923h37c16 0 29 -14 26 -31c-12 -73 -68 -118 -156 -118s-144 45 -156 118c-3 17 10 31 26 31h37c12 0 23 -8 26 -20c6 -26 26 -49 67 -49
s61 23 67 49c3 12 14 20 26 20z" />
    <glyph glyph-name="Gcircumflex" unicode="&#x11c;" horiz-adv-x="772" 
d="M404 361c0 19 16 35 36 35h241c20 0 36 -16 36 -35v-334c0 -15 -12 -27 -27 -27h-24c-13 0 -24 9 -26 22l-14 78c-47 -68 -122 -112 -231 -112c-207 0 -355 157 -355 362s148 363 355 363c100 0 186 -37 249 -98c16 -16 14 -43 -5 -55l-53 -35c-14 -9 -32 -7 -44 4
c-36 33 -85 54 -147 54c-144 0 -220 -117 -220 -233s76 -233 220 -233c122 0 189 71 209 161h-164c-20 0 -36 16 -36 36v47zM534 816c10 -12 1 -29 -14 -29h-53c-14 0 -27 7 -36 18l-45 63l-46 -63c-8 -11 -21 -18 -36 -18h-53c-15 0 -23 17 -14 29l74 94c9 11 22 17 35 17
h79c14 0 27 -6 35 -17z" />
    <glyph glyph-name="Gcommaaccent" unicode="&#x122;" horiz-adv-x="772" 
d="M404 361c0 19 16 35 36 35h241c20 0 36 -16 36 -35v-334c0 -15 -12 -27 -27 -27h-24c-13 0 -24 9 -26 22l-14 78c-47 -68 -122 -112 -231 -112c-207 0 -355 157 -355 362s148 363 355 363c100 0 186 -37 249 -98c16 -16 14 -43 -5 -55l-53 -35c-14 -9 -32 -7 -44 4
c-36 33 -85 54 -147 54c-144 0 -220 -117 -220 -233s76 -233 220 -233c122 0 189 71 209 161h-164c-20 0 -36 16 -36 36v47zM321 -105c5 14 18 23 33 23h70c14 0 22 -15 16 -26l-57 -105c-6 -11 -18 -18 -31 -18h-52c-13 0 -21 12 -17 24z" />
    <glyph glyph-name="Gdotaccent" unicode="&#x120;" horiz-adv-x="772" 
d="M404 361c0 19 16 35 36 35h241c20 0 36 -16 36 -35v-334c0 -15 -12 -27 -27 -27h-24c-13 0 -24 9 -26 22l-14 78c-47 -68 -122 -112 -231 -112c-207 0 -355 157 -355 362s148 363 355 363c100 0 186 -37 249 -98c16 -16 14 -43 -5 -55l-53 -35c-14 -9 -32 -7 -44 4
c-36 33 -85 54 -147 54c-144 0 -220 -117 -220 -233s76 -233 220 -233c122 0 189 71 209 161h-164c-20 0 -36 16 -36 36v47zM384 916c38 0 69 -30 69 -68s-31 -69 -69 -69c-37 0 -68 31 -68 69s31 68 68 68z" />
    <glyph glyph-name="Hcircumflex" unicode="&#x124;" horiz-adv-x="692" 
d="M491 664c0 20 16 36 36 36h64c20 0 36 -16 36 -36v-628c0 -20 -16 -36 -36 -36h-64c-20 0 -36 16 -36 36v254h-290v-254c0 -20 -16 -36 -35 -36h-65c-19 0 -35 16 -35 36v628c0 20 16 36 35 36h65c19 0 35 -16 35 -36v-248h290v248zM495 816c10 -12 1 -29 -14 -29h-53
c-14 0 -27 7 -36 18l-45 63l-46 -63c-8 -11 -21 -18 -36 -18h-53c-15 0 -23 17 -14 29l74 94c9 11 22 17 35 17h79c14 0 27 -6 35 -17z" />
    <glyph glyph-name="Iacute" unicode="&#xcd;" horiz-adv-x="265" 
d="M65 664c0 20 16 36 35 36h65c20 0 36 -16 36 -36v-628c0 -20 -16 -36 -36 -36h-65c-19 0 -35 16 -35 36v628zM169 927h77c15 0 23 -16 15 -28l-67 -97c-7 -9 -18 -15 -29 -15h-56c-13 0 -22 14 -17 25l44 95c6 12 19 20 33 20z" />
    <glyph glyph-name="Ibreve" unicode="&#x12c;" horiz-adv-x="265" 
d="M65 664c0 20 16 36 35 36h65c20 0 36 -16 36 -36v-628c0 -20 -16 -36 -36 -36h-65c-19 0 -35 16 -35 36v628zM227 923h37c16 0 29 -14 26 -31c-12 -73 -68 -118 -156 -118s-144 45 -156 118c-3 17 10 31 26 31h37c12 0 23 -8 26 -20c6 -26 26 -49 67 -49s61 23 67 49
c3 12 14 20 26 20z" />
    <glyph glyph-name="Icircumflex" unicode="&#xce;" horiz-adv-x="265" 
d="M65 664c0 20 16 36 35 36h65c20 0 36 -16 36 -36v-628c0 -20 -16 -36 -36 -36h-65c-19 0 -35 16 -35 36v628zM282 816c10 -12 1 -29 -14 -29h-53c-14 0 -27 7 -36 18l-45 63l-46 -63c-8 -11 -21 -18 -36 -18h-53c-15 0 -23 17 -14 29l74 94c9 11 22 17 35 17h79
c14 0 27 -6 35 -17z" />
    <glyph glyph-name="Idieresis" unicode="&#xcf;" horiz-adv-x="265" 
d="M65 664c0 20 16 36 35 36h65c20 0 36 -16 36 -36v-628c0 -20 -16 -36 -36 -36h-65c-19 0 -35 16 -35 36v628zM27 916c38 0 68 -30 68 -68s-30 -69 -68 -69s-69 31 -69 69s31 68 69 68zM238 916c38 0 69 -30 69 -68s-31 -69 -69 -69c-37 0 -68 31 -68 69s31 68 68 68z" />
    <glyph glyph-name="Idotaccent" unicode="&#x130;" horiz-adv-x="265" 
d="M65 664c0 20 16 36 35 36h65c20 0 36 -16 36 -36v-628c0 -20 -16 -36 -36 -36h-65c-19 0 -35 16 -35 36v628zM132 916c38 0 69 -30 69 -68s-31 -69 -69 -69c-37 0 -68 31 -68 69s31 68 68 68z" />
    <glyph glyph-name="Igrave" unicode="&#xcc;" horiz-adv-x="265" 
d="M65 664c0 20 16 36 35 36h65c20 0 36 -16 36 -36v-628c0 -20 -16 -36 -36 -36h-65c-19 0 -35 16 -35 36v628zM95 927c13 0 26 -8 32 -20l44 -95c5 -11 -3 -25 -16 -25h-56c-12 0 -23 6 -30 15l-67 97c-8 12 1 28 15 28h78z" />
    <glyph glyph-name="Imacron" unicode="&#x12a;" horiz-adv-x="265" 
d="M65 664c0 20 16 36 35 36h65c20 0 36 -16 36 -36v-628c0 -20 -16 -36 -36 -36h-65c-19 0 -35 16 -35 36v628zM-13 870c0 15 12 27 27 27h237c15 0 27 -12 27 -27v-44c0 -15 -12 -27 -27 -27h-237c-15 0 -27 12 -27 27v44z" />
    <glyph glyph-name="Itilde" unicode="&#x128;" horiz-adv-x="265" 
d="M65 664c0 20 16 36 35 36h65c20 0 36 -16 36 -36v-628c0 -20 -16 -36 -36 -36h-65c-19 0 -35 16 -35 36v628zM233 891l41 -8c9 -1 16 -10 15 -19c-6 -55 -36 -88 -84 -88c-51 0 -86 30 -127 30c-16 0 -24 -11 -27 -23c-2 -9 -11 -14 -20 -13l-41 7c-9 2 -15 10 -14 20
c6 57 37 88 83 88c51 0 87 -30 126 -30c18 0 25 11 28 22c3 9 11 15 20 14z" />
    <glyph glyph-name="IJ" unicode="&#x132;" horiz-adv-x="821" 
d="M65 664c0 20 16 36 35 36h65c20 0 36 -16 36 -36v-628c0 -20 -16 -36 -36 -36h-65c-19 0 -35 16 -35 36v628zM656 700h65c19 0 35 -16 35 -36v-421c0 -149 -67 -255 -247 -255c-131 0 -218 69 -242 164c-5 21 7 41 28 45l76 14c14 2 27 -6 31 -19c10 -36 40 -75 107 -75
c88 0 111 56 111 126v421c0 20 16 36 36 36z" />
    <glyph glyph-name="Jcircumflex" unicode="&#x134;" horiz-adv-x="581" 
d="M416 700h65c19 0 35 -16 35 -36v-421c0 -149 -67 -255 -247 -255c-131 0 -218 69 -242 164c-5 21 7 41 28 45l76 14c14 2 27 -6 31 -19c10 -36 40 -75 107 -75c88 0 111 56 111 126v421c0 20 16 36 36 36zM595 816c10 -12 1 -29 -14 -29h-53c-14 0 -27 7 -36 18l-45 63
l-46 -63c-8 -11 -21 -18 -36 -18h-53c-15 0 -23 17 -14 29l74 94c9 11 22 17 35 17h79c14 0 27 -6 35 -17z" />
    <glyph glyph-name="Kcommaaccent" unicode="&#x136;" horiz-adv-x="637" 
d="M593 36c11 -14 1 -36 -18 -36h-96c-13 0 -26 6 -35 17l-244 309v-290c0 -20 -16 -36 -35 -36h-65c-19 0 -35 16 -35 36v628c0 20 16 36 35 36h65c19 0 35 -16 35 -36v-297l228 315c8 11 22 18 36 18h88c18 0 28 -21 17 -36l-233 -309zM260 -105c5 14 18 23 33 23h70
c14 0 22 -15 16 -26l-57 -105c-6 -11 -18 -18 -31 -18h-52c-13 0 -21 12 -17 24z" />
    <glyph glyph-name="Lacute" unicode="&#x139;" horiz-adv-x="505" 
d="M201 126h234c20 0 35 -16 35 -36v-54c0 -20 -15 -36 -35 -36h-335c-19 0 -35 16 -35 36v628c0 20 16 36 35 36h65c20 0 36 -16 36 -36v-538zM176 927h77c15 0 23 -16 15 -28l-67 -97c-7 -9 -18 -15 -29 -15h-56c-13 0 -22 14 -17 25l44 95c6 12 19 20 33 20z" />
    <glyph glyph-name="Lcaron" unicode="&#x13d;" horiz-adv-x="505" 
d="M201 126h234c20 0 35 -16 35 -36v-54c0 -20 -15 -36 -35 -36h-335c-19 0 -35 16 -35 36v628c0 20 16 36 35 36h65c20 0 36 -16 36 -36v-538zM297 677c5 14 18 23 33 23h70c14 0 22 -15 16 -26l-57 -105c-6 -11 -18 -18 -31 -18h-52c-13 0 -21 12 -17 24z" />
    <glyph glyph-name="Lcommaaccent" unicode="&#x13b;" horiz-adv-x="505" 
d="M201 126h234c20 0 35 -16 35 -36v-54c0 -20 -15 -36 -35 -36h-335c-19 0 -35 16 -35 36v628c0 20 16 36 35 36h65c20 0 36 -16 36 -36v-538zM204 -105c5 14 18 23 33 23h70c14 0 22 -15 16 -26l-57 -105c-6 -11 -18 -18 -31 -18h-52c-13 0 -21 12 -17 24z" />
    <glyph glyph-name="Nacute" unicode="&#x143;" horiz-adv-x="699" 
d="M498 664c0 20 16 36 36 36h64c20 0 36 -16 36 -36v-628c0 -20 -16 -36 -36 -36h-58c-18 0 -35 9 -45 24l-294 439v-427c0 -20 -16 -36 -36 -36h-64c-20 0 -36 16 -36 36v628c0 20 16 36 36 36h59c17 0 34 -9 44 -24l294 -439v427zM378 927h77c15 0 23 -16 15 -28l-67 -97
c-7 -9 -18 -15 -29 -15h-56c-13 0 -22 14 -17 25l44 95c6 12 19 20 33 20z" />
    <glyph glyph-name="Ncaron" unicode="&#x147;" horiz-adv-x="699" 
d="M498 664c0 20 16 36 36 36h64c20 0 36 -16 36 -36v-628c0 -20 -16 -36 -36 -36h-58c-18 0 -35 9 -45 24l-294 439v-427c0 -20 -16 -36 -36 -36h-64c-20 0 -36 16 -36 36v628c0 20 16 36 36 36h59c17 0 34 -9 44 -24l294 -439v427zM200 898c-9 12 -1 29 14 29h54
c14 0 27 -7 35 -18l46 -62l45 62c9 11 22 18 36 18h54c14 0 23 -17 14 -29l-75 -94c-8 -11 -21 -17 -35 -17h-79c-13 0 -26 6 -35 17z" />
    <glyph glyph-name="Ncommaaccent" unicode="&#x145;" horiz-adv-x="699" 
d="M498 664c0 20 16 36 36 36h64c20 0 36 -16 36 -36v-628c0 -20 -16 -36 -36 -36h-58c-18 0 -35 9 -45 24l-294 439v-427c0 -20 -16 -36 -36 -36h-64c-20 0 -36 16 -36 36v628c0 20 16 36 36 36h59c17 0 34 -9 44 -24l294 -439v427zM286 -105c5 14 18 23 33 23h70
c14 0 22 -15 16 -26l-57 -105c-6 -11 -18 -18 -31 -18h-52c-13 0 -21 12 -17 24z" />
    <glyph glyph-name="Ntilde" unicode="&#xd1;" horiz-adv-x="699" 
d="M498 664c0 20 16 36 36 36h64c20 0 36 -16 36 -36v-628c0 -20 -16 -36 -36 -36h-58c-18 0 -35 9 -45 24l-294 439v-427c0 -20 -16 -36 -36 -36h-64c-20 0 -36 16 -36 36v628c0 20 16 36 36 36h59c17 0 34 -9 44 -24l294 -439v427zM450 891l41 -8c9 -1 16 -10 15 -19
c-6 -55 -36 -88 -84 -88c-51 0 -86 30 -127 30c-16 0 -24 -11 -27 -23c-2 -9 -11 -14 -20 -13l-41 7c-9 2 -15 10 -14 20c6 57 37 88 83 88c51 0 87 -30 126 -30c18 0 25 11 28 22c3 9 11 15 20 14z" />
    <glyph glyph-name="Oacute" unicode="&#xd3;" horiz-adv-x="792" 
d="M396 712c207 0 356 -157 356 -362s-149 -363 -356 -363s-356 158 -356 363s149 362 356 362zM396 116c145 0 220 117 220 234c0 116 -75 233 -220 233s-220 -117 -220 -233c0 -117 75 -234 220 -234zM434 927h77c15 0 23 -16 15 -28l-67 -97c-7 -9 -18 -15 -29 -15h-56
c-13 0 -22 14 -17 25l44 95c6 12 19 20 33 20z" />
    <glyph glyph-name="Obreve" unicode="&#x14e;" horiz-adv-x="792" 
d="M396 712c207 0 356 -157 356 -362s-149 -363 -356 -363s-356 158 -356 363s149 362 356 362zM396 116c145 0 220 117 220 234c0 116 -75 233 -220 233s-220 -117 -220 -233c0 -117 75 -234 220 -234zM489 923h37c16 0 29 -14 26 -31c-12 -73 -68 -118 -156 -118
s-144 45 -156 118c-3 17 10 31 26 31h37c12 0 23 -8 26 -20c6 -26 26 -49 67 -49s61 23 67 49c3 12 14 20 26 20z" />
    <glyph glyph-name="Ocircumflex" unicode="&#xd4;" horiz-adv-x="792" 
d="M396 712c207 0 356 -157 356 -362s-149 -363 -356 -363s-356 158 -356 363s149 362 356 362zM396 116c145 0 220 117 220 234c0 116 -75 233 -220 233s-220 -117 -220 -233c0 -117 75 -234 220 -234zM546 816c10 -12 1 -29 -14 -29h-53c-14 0 -27 7 -36 18l-45 63
l-46 -63c-8 -11 -21 -18 -36 -18h-53c-15 0 -23 17 -14 29l74 94c9 11 22 17 35 17h79c14 0 27 -6 35 -17z" />
    <glyph glyph-name="Odieresis" unicode="&#xd6;" horiz-adv-x="792" 
d="M396 712c207 0 356 -157 356 -362s-149 -363 -356 -363s-356 158 -356 363s149 362 356 362zM396 116c145 0 220 117 220 234c0 116 -75 233 -220 233s-220 -117 -220 -233c0 -117 75 -234 220 -234zM291 916c38 0 68 -30 68 -68s-30 -69 -68 -69s-69 31 -69 69
s31 68 69 68zM502 916c38 0 69 -30 69 -68s-31 -69 -69 -69c-37 0 -68 31 -68 69s31 68 68 68z" />
    <glyph glyph-name="Ograve" unicode="&#xd2;" horiz-adv-x="792" 
d="M396 712c207 0 356 -157 356 -362s-149 -363 -356 -363s-356 158 -356 363s149 362 356 362zM396 116c145 0 220 117 220 234c0 116 -75 233 -220 233s-220 -117 -220 -233c0 -117 75 -234 220 -234zM358 927c13 0 26 -8 32 -20l44 -95c5 -11 -3 -25 -16 -25h-56
c-12 0 -23 6 -30 15l-67 97c-8 12 1 28 15 28h78z" />
    <glyph glyph-name="Ohungarumlaut" unicode="&#x150;" horiz-adv-x="792" 
d="M396 712c207 0 356 -157 356 -362s-149 -363 -356 -363s-356 158 -356 363s149 362 356 362zM396 116c145 0 220 117 220 234c0 116 -75 233 -220 233s-220 -117 -220 -233c0 -117 75 -234 220 -234zM532 927h77c15 0 23 -16 15 -28l-67 -97c-7 -9 -18 -15 -29 -15h-56
c-13 0 -22 14 -17 25l44 95c6 12 19 20 33 20zM337 927h77c14 0 23 -16 15 -28l-67 -97c-7 -9 -18 -15 -30 -15h-56c-13 0 -21 14 -16 25l44 95c6 12 19 20 33 20z" />
    <glyph glyph-name="Omacron" unicode="&#x14c;" horiz-adv-x="792" 
d="M396 712c207 0 356 -157 356 -362s-149 -363 -356 -363s-356 158 -356 363s149 362 356 362zM396 116c145 0 220 117 220 234c0 116 -75 233 -220 233s-220 -117 -220 -233c0 -117 75 -234 220 -234zM251 870c0 15 12 27 27 27h237c15 0 27 -12 27 -27v-44
c0 -15 -12 -27 -27 -27h-237c-15 0 -27 12 -27 27v44z" />
    <glyph glyph-name="Oslashacute" unicode="&#x1fe;" horiz-adv-x="792" 
d="M685 566c42 -60 65 -134 65 -216c0 -205 -148 -362 -355 -362c-97 0 -181 34 -243 91l-47 -43c-8 -7 -19 -6 -26 1l-24 27c-7 7 -6 18 1 25l49 45c-42 60 -65 134 -65 216c0 205 148 363 355 363c97 0 181 -35 243 -93l48 44c7 6 18 6 25 -1l24 -27c7 -8 7 -19 -1 -25z
M175 350c0 -43 11 -87 31 -124l334 304c-36 33 -84 53 -145 53c-145 0 -220 -117 -220 -233zM395 117c144 0 220 117 220 233c0 43 -11 86 -31 124l-333 -305c35 -32 84 -52 144 -52zM434 927h77c15 0 23 -16 15 -28l-67 -97c-7 -9 -18 -15 -29 -15h-56c-13 0 -22 14 -17 25
l44 95c6 12 19 20 33 20z" />
    <glyph glyph-name="Otilde" unicode="&#xd5;" horiz-adv-x="792" 
d="M396 712c207 0 356 -157 356 -362s-149 -363 -356 -363s-356 158 -356 363s149 362 356 362zM396 116c145 0 220 117 220 234c0 116 -75 233 -220 233s-220 -117 -220 -233c0 -117 75 -234 220 -234zM497 891l41 -8c9 -1 16 -10 15 -19c-6 -55 -36 -88 -84 -88
c-51 0 -86 30 -127 30c-16 0 -24 -11 -27 -23c-2 -9 -11 -14 -20 -13l-41 7c-9 2 -15 10 -14 20c6 57 37 88 83 88c51 0 87 -30 126 -30c18 0 25 11 28 22c3 9 11 15 20 14z" />
    <glyph glyph-name="Racute" unicode="&#x154;" horiz-adv-x="632" 
d="M596 34c9 -15 -1 -34 -19 -34h-89c-16 0 -31 9 -39 23l-130 229h-11h-107v-216c0 -20 -16 -36 -36 -36h-64c-20 0 -36 16 -36 36v628c0 20 16 36 36 36h207c157 0 260 -95 260 -228c0 -89 -47 -156 -123 -192zM201 574v-205h107c69 0 122 32 122 103
c0 63 -47 102 -122 102h-107zM319 927h77c15 0 23 -16 15 -28l-67 -97c-7 -9 -18 -15 -29 -15h-56c-13 0 -22 14 -17 25l44 95c6 12 19 20 33 20z" />
    <glyph glyph-name="Rcaron" unicode="&#x158;" horiz-adv-x="632" 
d="M596 34c9 -15 -1 -34 -19 -34h-89c-16 0 -31 9 -39 23l-130 229h-11h-107v-216c0 -20 -16 -36 -36 -36h-64c-20 0 -36 16 -36 36v628c0 20 16 36 36 36h207c157 0 260 -95 260 -228c0 -89 -47 -156 -123 -192zM201 574v-205h107c69 0 122 32 122 103
c0 63 -47 102 -122 102h-107zM152 898c-9 12 -1 29 14 29h54c14 0 27 -7 35 -18l46 -62l45 62c9 11 22 18 36 18h54c14 0 23 -17 14 -29l-75 -94c-8 -11 -21 -17 -35 -17h-79c-13 0 -26 6 -35 17z" />
    <glyph glyph-name="Rcommaaccent" unicode="&#x156;" horiz-adv-x="632" 
d="M596 34c9 -15 -1 -34 -19 -34h-89c-16 0 -31 9 -39 23l-130 229h-11h-107v-216c0 -20 -16 -36 -36 -36h-64c-20 0 -36 16 -36 36v628c0 20 16 36 36 36h207c157 0 260 -95 260 -228c0 -89 -47 -156 -123 -192zM201 574v-205h107c69 0 122 32 122 103
c0 63 -47 102 -122 102h-107zM268 -105c5 14 18 23 33 23h70c14 0 22 -15 16 -26l-57 -105c-6 -11 -18 -18 -31 -18h-52c-13 0 -21 12 -17 24z" />
    <glyph glyph-name="Sacute" unicode="&#x15a;" horiz-adv-x="593" 
d="M342 402c166 -38 226 -86 226 -198c0 -110 -77 -216 -261 -216c-115 0 -220 41 -266 130c-10 20 0 44 21 50l63 20c16 5 33 -1 41 -15c20 -34 62 -67 140 -67c70 0 126 27 126 88c0 69 -79 74 -190 102c-141 35 -188 105 -188 202c0 132 101 215 247 215
c101 0 184 -44 224 -125c10 -20 -2 -44 -24 -50l-63 -15c-15 -4 -31 3 -39 17c-16 29 -50 54 -105 54c-57 0 -106 -30 -106 -87c0 -78 89 -90 154 -105zM325 927h77c15 0 23 -16 15 -28l-67 -97c-7 -9 -18 -15 -29 -15h-56c-13 0 -22 14 -17 25l44 95c6 12 19 20 33 20z" />
    <glyph glyph-name="Scircumflex" unicode="&#x15c;" horiz-adv-x="593" 
d="M342 402c166 -38 226 -86 226 -198c0 -110 -77 -216 -261 -216c-115 0 -220 41 -266 130c-10 20 0 44 21 50l63 20c16 5 33 -1 41 -15c20 -34 62 -67 140 -67c70 0 126 27 126 88c0 69 -79 74 -190 102c-141 35 -188 105 -188 202c0 132 101 215 247 215
c101 0 184 -44 224 -125c10 -20 -2 -44 -24 -50l-63 -15c-15 -4 -31 3 -39 17c-16 29 -50 54 -105 54c-57 0 -106 -30 -106 -87c0 -78 89 -90 154 -105zM446 816c10 -12 1 -29 -14 -29h-53c-14 0 -27 7 -36 18l-45 63l-46 -63c-8 -11 -21 -18 -36 -18h-53
c-15 0 -23 17 -14 29l74 94c9 11 22 17 35 17h79c14 0 27 -6 35 -17z" />
    <glyph glyph-name="Scommaaccent" unicode="&#x218;" horiz-adv-x="593" 
d="M342 402c166 -38 226 -86 226 -198c0 -110 -77 -216 -261 -216c-115 0 -220 41 -266 130c-10 20 0 44 21 50l63 20c16 5 33 -1 41 -15c20 -34 62 -67 140 -67c70 0 126 27 126 88c0 69 -79 74 -190 102c-141 35 -188 105 -188 202c0 132 101 215 247 215
c101 0 184 -44 224 -125c10 -20 -2 -44 -24 -50l-63 -15c-15 -4 -31 3 -39 17c-16 29 -50 54 -105 54c-57 0 -106 -30 -106 -87c0 -78 89 -90 154 -105zM226 -105c5 14 18 23 33 23h70c14 0 22 -15 16 -26l-57 -105c-6 -11 -18 -18 -31 -18h-52c-13 0 -21 12 -17 24z" />
    <glyph glyph-name="Tcaron" unicode="&#x164;" horiz-adv-x="542" 
d="M471 700c20 0 36 -16 36 -36v-54c0 -20 -16 -36 -36 -36h-133v-538c0 -20 -15 -36 -35 -36h-65c-19 0 -35 16 -35 36v538h-133c-19 0 -35 16 -35 36v54c0 20 16 36 35 36h401zM122 898c-9 12 -1 29 14 29h54c14 0 27 -7 35 -18l46 -62l45 62c9 11 22 18 36 18h54
c14 0 23 -17 14 -29l-75 -94c-8 -11 -21 -17 -35 -17h-79c-13 0 -26 6 -35 17z" />
    <glyph glyph-name="Tcommaaccent" unicode="&#x162;" horiz-adv-x="542" 
d="M471 700c20 0 36 -16 36 -36v-54c0 -20 -16 -36 -36 -36h-133v-538c0 -20 -15 -36 -35 -36h-65c-19 0 -35 16 -35 36v538h-133c-19 0 -35 16 -35 36v54c0 20 16 36 35 36h401zM198 -105c5 14 18 23 33 23h70c14 0 22 -15 16 -26l-57 -105c-6 -11 -18 -18 -31 -18h-52
c-13 0 -21 12 -17 24z" />
    <glyph glyph-name="Uacute" unicode="&#xda;" horiz-adv-x="697" 
d="M532 700h65c19 0 35 -16 35 -36v-406c0 -165 -100 -270 -283 -270s-284 105 -284 270v406c0 20 16 36 36 36h64c20 0 36 -16 36 -36v-388c0 -116 71 -159 148 -159c76 0 148 43 148 159v388c0 20 16 36 35 36zM387 927h77c15 0 23 -16 15 -28l-67 -97
c-7 -9 -18 -15 -29 -15h-56c-13 0 -22 14 -17 25l44 95c6 12 19 20 33 20z" />
    <glyph glyph-name="Ubreve" unicode="&#x16c;" horiz-adv-x="697" 
d="M532 700h65c19 0 35 -16 35 -36v-406c0 -165 -100 -270 -283 -270s-284 105 -284 270v406c0 20 16 36 36 36h64c20 0 36 -16 36 -36v-388c0 -116 71 -159 148 -159c76 0 148 43 148 159v388c0 20 16 36 35 36zM441 923h37c16 0 29 -14 26 -31c-12 -73 -68 -118 -156 -118
s-144 45 -156 118c-3 17 10 31 26 31h37c12 0 23 -8 26 -20c6 -26 26 -49 67 -49s61 23 67 49c3 12 14 20 26 20z" />
    <glyph glyph-name="Ucircumflex" unicode="&#xdb;" horiz-adv-x="697" 
d="M532 700h65c19 0 35 -16 35 -36v-406c0 -165 -100 -270 -283 -270s-284 105 -284 270v406c0 20 16 36 36 36h64c20 0 36 -16 36 -36v-388c0 -116 71 -159 148 -159c76 0 148 43 148 159v388c0 20 16 36 35 36zM498 816c10 -12 1 -29 -14 -29h-53c-14 0 -27 7 -36 18
l-45 63l-46 -63c-8 -11 -21 -18 -36 -18h-53c-15 0 -23 17 -14 29l74 94c9 11 22 17 35 17h79c14 0 27 -6 35 -17z" />
    <glyph glyph-name="Udieresis" unicode="&#xdc;" horiz-adv-x="697" 
d="M532 700h65c19 0 35 -16 35 -36v-406c0 -165 -100 -270 -283 -270s-284 105 -284 270v406c0 20 16 36 36 36h64c20 0 36 -16 36 -36v-388c0 -116 71 -159 148 -159c76 0 148 43 148 159v388c0 20 16 36 35 36zM243 916c38 0 68 -30 68 -68s-30 -69 -68 -69s-69 31 -69 69
s31 68 69 68zM454 916c38 0 69 -30 69 -68s-31 -69 -69 -69c-37 0 -68 31 -68 69s31 68 68 68z" />
    <glyph glyph-name="Ugrave" unicode="&#xd9;" horiz-adv-x="697" 
d="M532 700h65c19 0 35 -16 35 -36v-406c0 -165 -100 -270 -283 -270s-284 105 -284 270v406c0 20 16 36 36 36h64c20 0 36 -16 36 -36v-388c0 -116 71 -159 148 -159c76 0 148 43 148 159v388c0 20 16 36 35 36zM330 927c13 0 26 -8 32 -20l44 -95c5 -11 -3 -25 -16 -25
h-56c-12 0 -23 6 -30 15l-67 97c-8 12 1 28 15 28h78z" />
    <glyph glyph-name="Umacron" unicode="&#x16a;" horiz-adv-x="697" 
d="M532 700h65c19 0 35 -16 35 -36v-406c0 -165 -100 -270 -283 -270s-284 105 -284 270v406c0 20 16 36 36 36h64c20 0 36 -16 36 -36v-388c0 -116 71 -159 148 -159c76 0 148 43 148 159v388c0 20 16 36 35 36zM203 870c0 15 12 27 27 27h237c15 0 27 -12 27 -27v-44
c0 -15 -12 -27 -27 -27h-237c-15 0 -27 12 -27 27v44z" />
    <glyph glyph-name="Uring" unicode="&#x16e;" horiz-adv-x="697" 
d="M532 700h65c19 0 35 -16 35 -36v-406c0 -165 -100 -270 -283 -270s-284 105 -284 270v406c0 20 16 36 36 36h64c20 0 36 -16 36 -36v-388c0 -116 71 -159 148 -159c76 0 148 43 148 159v388c0 20 16 36 35 36zM349 970c62 0 113 -51 113 -113c0 -63 -51 -114 -113 -114
c-63 0 -114 51 -114 114c0 62 51 113 114 113zM349 806c28 0 51 23 51 51s-23 51 -51 51c-29 0 -52 -23 -52 -51s23 -51 52 -51z" />
    <glyph glyph-name="Utilde" unicode="&#x168;" horiz-adv-x="697" 
d="M532 700h65c19 0 35 -16 35 -36v-406c0 -165 -100 -270 -283 -270s-284 105 -284 270v406c0 20 16 36 36 36h64c20 0 36 -16 36 -36v-388c0 -116 71 -159 148 -159c76 0 148 43 148 159v388c0 20 16 36 35 36zM449 891l41 -8c9 -1 16 -10 15 -19c-6 -55 -36 -88 -84 -88
c-51 0 -86 30 -127 30c-16 0 -24 -11 -27 -23c-2 -9 -11 -14 -20 -13l-41 7c-9 2 -15 10 -14 20c6 57 37 88 83 88c51 0 87 -30 126 -30c18 0 25 11 28 22c3 9 11 15 20 14z" />
    <glyph glyph-name="Wacute" unicode="&#x1e82;" horiz-adv-x="996" 
d="M827 669c6 18 23 31 43 31h74c18 0 31 -18 26 -35l-205 -634c-5 -18 -23 -31 -42 -31h-56c-20 0 -37 13 -43 32l-126 428l-127 -428c-5 -19 -22 -32 -42 -32h-56c-20 0 -37 13 -43 31l-204 634c-5 17 8 35 26 35h74c19 0 37 -13 42 -31l137 -449l131 448
c6 19 23 32 43 32h38c19 0 37 -13 42 -32l132 -448zM546 927h77c15 0 23 -16 15 -28l-67 -97c-7 -9 -18 -15 -29 -15h-56c-13 0 -22 14 -17 25l44 95c6 12 19 20 33 20z" />
    <glyph glyph-name="Wcircumflex" unicode="&#x174;" horiz-adv-x="996" 
d="M827 669c6 18 23 31 43 31h74c18 0 31 -18 26 -35l-205 -634c-5 -18 -23 -31 -42 -31h-56c-20 0 -37 13 -43 32l-126 428l-127 -428c-5 -19 -22 -32 -42 -32h-56c-20 0 -37 13 -43 31l-204 634c-5 17 8 35 26 35h74c19 0 37 -13 42 -31l137 -449l131 448
c6 19 23 32 43 32h38c19 0 37 -13 42 -32l132 -448zM647 816c10 -12 1 -29 -14 -29h-53c-14 0 -27 7 -36 18l-45 63l-46 -63c-8 -11 -21 -18 -36 -18h-53c-15 0 -23 17 -14 29l74 94c9 11 22 17 35 17h79c14 0 27 -6 35 -17z" />
    <glyph glyph-name="Wdieresis" unicode="&#x1e84;" horiz-adv-x="996" 
d="M827 669c6 18 23 31 43 31h74c18 0 31 -18 26 -35l-205 -634c-5 -18 -23 -31 -42 -31h-56c-20 0 -37 13 -43 32l-126 428l-127 -428c-5 -19 -22 -32 -42 -32h-56c-20 0 -37 13 -43 31l-204 634c-5 17 8 35 26 35h74c19 0 37 -13 42 -31l137 -449l131 448
c6 19 23 32 43 32h38c19 0 37 -13 42 -32l132 -448zM393 916c38 0 68 -30 68 -68s-30 -69 -68 -69s-69 31 -69 69s31 68 69 68zM604 916c38 0 69 -30 69 -68s-31 -69 -69 -69c-37 0 -68 31 -68 69s31 68 68 68z" />
    <glyph glyph-name="Wgrave" unicode="&#x1e80;" horiz-adv-x="996" 
d="M827 669c6 18 23 31 43 31h74c18 0 31 -18 26 -35l-205 -634c-5 -18 -23 -31 -42 -31h-56c-20 0 -37 13 -43 32l-126 428l-127 -428c-5 -19 -22 -32 -42 -32h-56c-20 0 -37 13 -43 31l-204 634c-5 17 8 35 26 35h74c19 0 37 -13 42 -31l137 -449l131 448
c6 19 23 32 43 32h38c19 0 37 -13 42 -32l132 -448zM460 927c13 0 26 -8 32 -20l44 -95c5 -11 -3 -25 -16 -25h-56c-12 0 -23 6 -30 15l-67 97c-8 12 1 28 15 28h78z" />
    <glyph glyph-name="Yacute" unicode="&#xdd;" horiz-adv-x="688" 
d="M626 700c21 0 34 -23 23 -40l-237 -398v-226c0 -20 -16 -36 -36 -36h-64c-20 0 -36 16 -36 36v226l-237 398c-11 17 2 40 23 40h70c20 0 37 -10 47 -27l165 -289l165 289c10 17 27 27 47 27h70zM372 927h77c15 0 23 -16 15 -28l-67 -97c-7 -9 -18 -15 -29 -15h-56
c-13 0 -22 14 -17 25l44 95c6 12 19 20 33 20z" />
    <glyph glyph-name="Ycircumflex" unicode="&#x176;" horiz-adv-x="688" 
d="M626 700c21 0 34 -23 23 -40l-237 -398v-226c0 -20 -16 -36 -36 -36h-64c-20 0 -36 16 -36 36v226l-237 398c-11 17 2 40 23 40h70c20 0 37 -10 47 -27l165 -289l165 289c10 17 27 27 47 27h70zM494 816c10 -12 1 -29 -14 -29h-53c-14 0 -27 7 -36 18l-45 63l-46 -63
c-8 -11 -21 -18 -36 -18h-53c-15 0 -23 17 -14 29l74 94c9 11 22 17 35 17h79c14 0 27 -6 35 -17z" />
    <glyph glyph-name="Ydieresis" unicode="&#x178;" horiz-adv-x="688" 
d="M626 700c21 0 34 -23 23 -40l-237 -398v-226c0 -20 -16 -36 -36 -36h-64c-20 0 -36 16 -36 36v226l-237 398c-11 17 2 40 23 40h70c20 0 37 -10 47 -27l165 -289l165 289c10 17 27 27 47 27h70zM239 916c38 0 68 -30 68 -68s-30 -69 -68 -69s-69 31 -69 69s31 68 69 68z
M450 916c38 0 69 -30 69 -68s-31 -69 -69 -69c-37 0 -68 31 -68 69s31 68 68 68z" />
    <glyph glyph-name="Ygrave" unicode="&#x1ef2;" horiz-adv-x="688" 
d="M626 700c21 0 34 -23 23 -40l-237 -398v-226c0 -20 -16 -36 -36 -36h-64c-20 0 -36 16 -36 36v226l-237 398c-11 17 2 40 23 40h70c20 0 37 -10 47 -27l165 -289l165 289c10 17 27 27 47 27h70zM316 927c13 0 26 -8 32 -20l44 -95c5 -11 -3 -25 -16 -25h-56
c-12 0 -23 6 -30 15l-67 97c-8 12 1 28 15 28h78z" />
    <glyph glyph-name="Zacute" unicode="&#x179;" horiz-adv-x="582" 
d="M210 126h301c20 0 36 -16 36 -36v-54c0 -20 -16 -36 -36 -36h-440c-20 0 -36 16 -36 36v52c0 13 4 26 12 37l325 449h-284c-19 0 -35 16 -35 36v54c0 20 16 36 35 36h414c20 0 36 -16 36 -36v-52c0 -13 -4 -26 -11 -36zM319 927h77c15 0 23 -16 15 -28l-67 -97
c-7 -9 -18 -15 -29 -15h-56c-13 0 -22 14 -17 25l44 95c6 12 19 20 33 20z" />
    <glyph glyph-name="Zcaron" unicode="&#x17d;" horiz-adv-x="582" 
d="M210 126h301c20 0 36 -16 36 -36v-54c0 -20 -16 -36 -36 -36h-440c-20 0 -36 16 -36 36v52c0 13 4 26 12 37l325 449h-284c-19 0 -35 16 -35 36v54c0 20 16 36 35 36h414c20 0 36 -16 36 -36v-52c0 -13 -4 -26 -11 -36zM142 898c-9 12 -1 29 14 29h54c14 0 27 -7 35 -18
l46 -62l45 62c9 11 22 18 36 18h54c14 0 23 -17 14 -29l-75 -94c-8 -11 -21 -17 -35 -17h-79c-13 0 -26 6 -35 17z" />
    <glyph glyph-name="Zdotaccent" unicode="&#x17b;" horiz-adv-x="582" 
d="M210 126h301c20 0 36 -16 36 -36v-54c0 -20 -16 -36 -36 -36h-440c-20 0 -36 16 -36 36v52c0 13 4 26 12 37l325 449h-284c-19 0 -35 16 -35 36v54c0 20 16 36 35 36h414c20 0 36 -16 36 -36v-52c0 -13 -4 -26 -11 -36zM291 916c38 0 69 -30 69 -68s-31 -69 -69 -69
c-37 0 -68 31 -68 69s31 68 68 68z" />
    <glyph glyph-name="aacute" unicode="&#xe1;" horiz-adv-x="626" 
d="M439 471c0 20 16 36 36 36h55c20 0 36 -16 36 -36v-435c0 -20 -16 -36 -36 -36h-55c-20 0 -36 16 -36 36v24c-32 -42 -83 -72 -162 -72c-157 0 -247 133 -247 265c0 133 90 266 247 266c79 0 130 -30 162 -72v24zM297 109c87 0 137 66 137 144c0 79 -50 144 -137 144
s-137 -66 -137 -144c0 -77 50 -144 137 -144zM327 727h77c15 0 23 -16 15 -28l-67 -97c-7 -9 -18 -15 -29 -15h-56c-13 0 -22 14 -17 25l44 95c6 12 19 20 33 20z" />
    <glyph glyph-name="abreve" unicode="&#x103;" horiz-adv-x="626" 
d="M439 471c0 20 16 36 36 36h55c20 0 36 -16 36 -36v-435c0 -20 -16 -36 -36 -36h-55c-20 0 -36 16 -36 36v24c-32 -42 -83 -72 -162 -72c-157 0 -247 133 -247 265c0 133 90 266 247 266c79 0 130 -30 162 -72v24zM297 109c87 0 137 66 137 144c0 79 -50 144 -137 144
s-137 -66 -137 -144c0 -77 50 -144 137 -144zM411 723h37c16 0 29 -14 26 -31c-12 -73 -68 -118 -156 -118s-144 45 -156 118c-3 17 10 31 26 31h37c12 0 23 -8 26 -20c6 -26 26 -49 67 -49s61 23 67 49c3 12 14 20 26 20z" />
    <glyph glyph-name="acircumflex" unicode="&#xe2;" horiz-adv-x="626" 
d="M439 471c0 20 16 36 36 36h55c20 0 36 -16 36 -36v-435c0 -20 -16 -36 -36 -36h-55c-20 0 -36 16 -36 36v24c-32 -42 -83 -72 -162 -72c-157 0 -247 133 -247 265c0 133 90 266 247 266c79 0 130 -30 162 -72v24zM297 109c87 0 137 66 137 144c0 79 -50 144 -137 144
s-137 -66 -137 -144c0 -77 50 -144 137 -144zM468 616c10 -12 1 -29 -14 -29h-53c-14 0 -27 7 -36 18l-45 63l-46 -63c-8 -11 -21 -18 -36 -18h-53c-15 0 -23 17 -14 29l74 94c9 11 22 17 35 17h79c14 0 27 -6 35 -17z" />
    <glyph glyph-name="adieresis" unicode="&#xe4;" horiz-adv-x="626" 
d="M439 471c0 20 16 36 36 36h55c20 0 36 -16 36 -36v-435c0 -20 -16 -36 -36 -36h-55c-20 0 -36 16 -36 36v24c-32 -42 -83 -72 -162 -72c-157 0 -247 133 -247 265c0 133 90 266 247 266c79 0 130 -30 162 -72v24zM297 109c87 0 137 66 137 144c0 79 -50 144 -137 144
s-137 -66 -137 -144c0 -77 50 -144 137 -144zM213 716c38 0 68 -30 68 -68s-30 -69 -68 -69s-69 31 -69 69s31 68 69 68zM424 716c38 0 69 -30 69 -68s-31 -69 -69 -69c-37 0 -68 31 -68 69s31 68 68 68z" />
    <glyph glyph-name="agrave" unicode="&#xe0;" horiz-adv-x="626" 
d="M439 471c0 20 16 36 36 36h55c20 0 36 -16 36 -36v-435c0 -20 -16 -36 -36 -36h-55c-20 0 -36 16 -36 36v24c-32 -42 -83 -72 -162 -72c-157 0 -247 133 -247 265c0 133 90 266 247 266c79 0 130 -30 162 -72v24zM297 109c87 0 137 66 137 144c0 79 -50 144 -137 144
s-137 -66 -137 -144c0 -77 50 -144 137 -144zM280 727c13 0 26 -8 32 -20l44 -95c5 -11 -3 -25 -16 -25h-56c-12 0 -23 6 -30 15l-67 97c-8 12 1 28 15 28h78z" />
    <glyph glyph-name="amacron" unicode="&#x101;" horiz-adv-x="626" 
d="M439 471c0 20 16 36 36 36h55c20 0 36 -16 36 -36v-435c0 -20 -16 -36 -36 -36h-55c-20 0 -36 16 -36 36v24c-32 -42 -83 -72 -162 -72c-157 0 -247 133 -247 265c0 133 90 266 247 266c79 0 130 -30 162 -72v24zM297 109c87 0 137 66 137 144c0 79 -50 144 -137 144
s-137 -66 -137 -144c0 -77 50 -144 137 -144zM173 670c0 15 12 27 27 27h237c15 0 27 -12 27 -27v-44c0 -15 -12 -27 -27 -27h-237c-15 0 -27 12 -27 27v44z" />
    <glyph glyph-name="aring" unicode="&#xe5;" horiz-adv-x="626" 
d="M439 471c0 20 16 36 36 36h55c20 0 36 -16 36 -36v-435c0 -20 -16 -36 -36 -36h-55c-20 0 -36 16 -36 36v24c-32 -42 -83 -72 -162 -72c-157 0 -247 133 -247 265c0 133 90 266 247 266c79 0 130 -30 162 -72v24zM297 109c87 0 137 66 137 144c0 79 -50 144 -137 144
s-137 -66 -137 -144c0 -77 50 -144 137 -144zM309 780c62 0 113 -51 113 -113c0 -63 -51 -114 -113 -114c-63 0 -114 51 -114 114c0 62 51 113 114 113zM309 616c28 0 51 23 51 51s-23 51 -51 51c-29 0 -52 -23 -52 -51s23 -51 52 -51z" />
    <glyph glyph-name="uring" unicode="&#x16f;" 
d="M428 507h56c20 0 36 -16 36 -36v-435c0 -20 -16 -36 -36 -36h-56c-19 0 -35 16 -35 36v26c-28 -41 -74 -74 -147 -74c-128 0 -186 103 -186 210v273c0 20 16 36 35 36h56c19 0 35 -16 35 -36v-246c0 -65 28 -114 99 -114c75 0 108 55 108 114v246c0 20 16 36 35 36z
M290 780c62 0 113 -51 113 -113c0 -63 -51 -114 -113 -114c-63 0 -114 51 -114 114c0 62 51 113 114 113zM290 616c28 0 51 23 51 51s-23 51 -51 51c-29 0 -52 -23 -52 -51s23 -51 52 -51z" />
    <glyph glyph-name="atilde" unicode="&#xe3;" horiz-adv-x="626" 
d="M439 471c0 20 16 36 36 36h55c20 0 36 -16 36 -36v-435c0 -20 -16 -36 -36 -36h-55c-20 0 -36 16 -36 36v24c-32 -42 -83 -72 -162 -72c-157 0 -247 133 -247 265c0 133 90 266 247 266c79 0 130 -30 162 -72v24zM297 109c87 0 137 66 137 144c0 79 -50 144 -137 144
s-137 -66 -137 -144c0 -77 50 -144 137 -144zM409 691l41 -8c9 -1 16 -10 15 -19c-6 -55 -36 -88 -84 -88c-51 0 -86 30 -127 30c-16 0 -24 -11 -27 -23c-2 -9 -11 -14 -20 -13l-41 7c-9 2 -15 10 -14 20c6 57 37 88 83 88c51 0 87 -30 126 -30c18 0 25 11 28 22
c3 9 11 15 20 14z" />
    <glyph glyph-name="aeacute" unicode="&#x1fd;" horiz-adv-x="1033" 
d="M749 519c144 0 260 -101 254 -280c0 -19 -16 -35 -35 -35h-343c18 -67 74 -103 144 -103c46 0 80 19 100 36c9 8 21 9 31 3l57 -34c15 -9 17 -29 5 -42c-44 -44 -112 -76 -193 -76c-84 0 -154 27 -203 75v-36c0 -15 -12 -27 -26 -27h-74c-15 0 -26 12 -26 27v33
c-33 -42 -84 -72 -162 -72c-158 0 -248 133 -248 265c0 133 90 266 248 266c78 0 129 -30 162 -72v33c0 15 11 27 26 27h74c14 0 26 -12 26 -27v-35c48 47 112 74 183 74zM297 109c88 0 137 66 137 144c0 79 -49 144 -137 144c-87 0 -137 -66 -137 -144
c0 -77 50 -144 137 -144zM624 302h253c-13 67 -58 104 -126 104c-63 0 -111 -39 -127 -104zM550 727h77c15 0 23 -16 15 -28l-67 -97c-7 -9 -18 -15 -29 -15h-56c-13 0 -22 14 -17 25l44 95c6 12 19 20 33 20z" />
    <glyph glyph-name="cacute" unicode="&#x107;" horiz-adv-x="541" 
d="M298 109c45 0 80 18 104 47c9 10 23 13 34 6l64 -37c14 -8 18 -26 8 -39c-48 -60 -123 -98 -210 -98c-152 0 -268 117 -268 265c0 149 116 266 268 266c87 0 162 -38 210 -98c10 -13 6 -31 -8 -40l-64 -36c-11 -7 -25 -4 -34 6c-24 28 -59 46 -104 46
c-85 0 -138 -65 -138 -144c0 -78 53 -144 138 -144zM306 727h77c15 0 23 -16 15 -28l-67 -97c-7 -9 -18 -15 -29 -15h-56c-13 0 -22 14 -17 25l44 95c6 12 19 20 33 20z" />
    <glyph glyph-name="ccaron" unicode="&#x10d;" horiz-adv-x="541" 
d="M298 109c45 0 80 18 104 47c9 10 23 13 34 6l64 -37c14 -8 18 -26 8 -39c-48 -60 -123 -98 -210 -98c-152 0 -268 117 -268 265c0 149 116 266 268 266c87 0 162 -38 210 -98c10 -13 6 -31 -8 -40l-64 -36c-11 -7 -25 -4 -34 6c-24 28 -59 46 -104 46
c-85 0 -138 -65 -138 -144c0 -78 53 -144 138 -144zM139 698c-9 12 -1 29 14 29h54c14 0 27 -7 35 -18l46 -62l45 62c9 11 22 18 36 18h54c14 0 23 -17 14 -29l-75 -94c-8 -11 -21 -17 -35 -17h-79c-13 0 -26 6 -35 17z" />
    <glyph glyph-name="ccircumflex" unicode="&#x109;" horiz-adv-x="541" 
d="M298 109c45 0 80 18 104 47c9 10 23 13 34 6l64 -37c14 -8 18 -26 8 -39c-48 -60 -123 -98 -210 -98c-152 0 -268 117 -268 265c0 149 116 266 268 266c87 0 162 -38 210 -98c10 -13 6 -31 -8 -40l-64 -36c-11 -7 -25 -4 -34 6c-24 28 -59 46 -104 46
c-85 0 -138 -65 -138 -144c0 -78 53 -144 138 -144zM447 616c10 -12 1 -29 -14 -29h-53c-14 0 -27 7 -36 18l-45 63l-46 -63c-8 -11 -21 -18 -36 -18h-53c-15 0 -23 17 -14 29l74 94c9 11 22 17 35 17h79c14 0 27 -6 35 -17z" />
    <glyph glyph-name="cdotaccent" unicode="&#x10b;" horiz-adv-x="541" 
d="M298 109c45 0 80 18 104 47c9 10 23 13 34 6l64 -37c14 -8 18 -26 8 -39c-48 -60 -123 -98 -210 -98c-152 0 -268 117 -268 265c0 149 116 266 268 266c87 0 162 -38 210 -98c10 -13 6 -31 -8 -40l-64 -36c-11 -7 -25 -4 -34 6c-24 28 -59 46 -104 46
c-85 0 -138 -65 -138 -144c0 -78 53 -144 138 -144zM297 716c38 0 69 -30 69 -68s-31 -69 -69 -69c-37 0 -68 31 -68 69s31 68 68 68z" />
    <glyph glyph-name="eacute" unicode="&#xe9;" horiz-adv-x="574" 
d="M289 519c144 0 261 -101 254 -280c0 -19 -16 -35 -35 -35h-343c18 -67 74 -103 144 -103c46 0 80 19 100 36c9 8 21 9 31 3l57 -34c15 -9 17 -29 5 -42c-44 -44 -112 -76 -193 -76c-168 0 -279 111 -279 265c0 159 119 266 259 266zM165 302h252c-13 67 -58 104 -126 104
c-62 0 -111 -39 -126 -104zM315 727h77c15 0 23 -16 15 -28l-67 -97c-7 -9 -18 -15 -29 -15h-56c-13 0 -22 14 -17 25l44 95c6 12 19 20 33 20z" />
    <glyph glyph-name="ebreve" unicode="&#x115;" horiz-adv-x="574" 
d="M289 519c144 0 261 -101 254 -280c0 -19 -16 -35 -35 -35h-343c18 -67 74 -103 144 -103c46 0 80 19 100 36c9 8 21 9 31 3l57 -34c15 -9 17 -29 5 -42c-44 -44 -112 -76 -193 -76c-168 0 -279 111 -279 265c0 159 119 266 259 266zM165 302h252c-13 67 -58 104 -126 104
c-62 0 -111 -39 -126 -104zM390 723h37c16 0 29 -14 26 -31c-12 -73 -68 -118 -156 -118s-144 45 -156 118c-3 17 10 31 26 31h37c12 0 23 -8 26 -20c6 -26 26 -49 67 -49s61 23 67 49c3 12 14 20 26 20z" />
    <glyph glyph-name="ecaron" unicode="&#x11b;" horiz-adv-x="574" 
d="M289 519c144 0 261 -101 254 -280c0 -19 -16 -35 -35 -35h-343c18 -67 74 -103 144 -103c46 0 80 19 100 36c9 8 21 9 31 3l57 -34c15 -9 17 -29 5 -42c-44 -44 -112 -76 -193 -76c-168 0 -279 111 -279 265c0 159 119 266 259 266zM165 302h252c-13 67 -58 104 -126 104
c-62 0 -111 -39 -126 -104zM148 698c-9 12 -1 29 14 29h54c14 0 27 -7 35 -18l46 -62l45 62c9 11 22 18 36 18h54c14 0 23 -17 14 -29l-75 -94c-8 -11 -21 -17 -35 -17h-79c-13 0 -26 6 -35 17z" />
    <glyph glyph-name="ecircumflex" unicode="&#xea;" horiz-adv-x="574" 
d="M289 519c144 0 261 -101 254 -280c0 -19 -16 -35 -35 -35h-343c18 -67 74 -103 144 -103c46 0 80 19 100 36c9 8 21 9 31 3l57 -34c15 -9 17 -29 5 -42c-44 -44 -112 -76 -193 -76c-168 0 -279 111 -279 265c0 159 119 266 259 266zM165 302h252c-13 67 -58 104 -126 104
c-62 0 -111 -39 -126 -104zM446 616c10 -12 1 -29 -14 -29h-53c-14 0 -27 7 -36 18l-45 63l-46 -63c-8 -11 -21 -18 -36 -18h-53c-15 0 -23 17 -14 29l74 94c9 11 22 17 35 17h79c14 0 27 -6 35 -17z" />
    <glyph glyph-name="edieresis" unicode="&#xeb;" horiz-adv-x="574" 
d="M289 519c144 0 261 -101 254 -280c0 -19 -16 -35 -35 -35h-343c18 -67 74 -103 144 -103c46 0 80 19 100 36c9 8 21 9 31 3l57 -34c15 -9 17 -29 5 -42c-44 -44 -112 -76 -193 -76c-168 0 -279 111 -279 265c0 159 119 266 259 266zM165 302h252c-13 67 -58 104 -126 104
c-62 0 -111 -39 -126 -104zM191 716c38 0 68 -30 68 -68s-30 -69 -68 -69s-69 31 -69 69s31 68 69 68zM402 716c38 0 69 -30 69 -68s-31 -69 -69 -69c-37 0 -68 31 -68 69s31 68 68 68z" />
    <glyph glyph-name="edotaccent" unicode="&#x117;" horiz-adv-x="574" 
d="M289 519c144 0 261 -101 254 -280c0 -19 -16 -35 -35 -35h-343c18 -67 74 -103 144 -103c46 0 80 19 100 36c9 8 21 9 31 3l57 -34c15 -9 17 -29 5 -42c-44 -44 -112 -76 -193 -76c-168 0 -279 111 -279 265c0 159 119 266 259 266zM165 302h252c-13 67 -58 104 -126 104
c-62 0 -111 -39 -126 -104zM296 716c38 0 69 -30 69 -68s-31 -69 -69 -69c-37 0 -68 31 -68 69s31 68 68 68z" />
    <glyph glyph-name="egrave" unicode="&#xe8;" horiz-adv-x="574" 
d="M289 519c144 0 261 -101 254 -280c0 -19 -16 -35 -35 -35h-343c18 -67 74 -103 144 -103c46 0 80 19 100 36c9 8 21 9 31 3l57 -34c15 -9 17 -29 5 -42c-44 -44 -112 -76 -193 -76c-168 0 -279 111 -279 265c0 159 119 266 259 266zM165 302h252c-13 67 -58 104 -126 104
c-62 0 -111 -39 -126 -104zM269 727c13 0 26 -8 32 -20l44 -95c5 -11 -3 -25 -16 -25h-56c-12 0 -23 6 -30 15l-67 97c-8 12 1 28 15 28h78z" />
    <glyph glyph-name="emacron" unicode="&#x113;" horiz-adv-x="574" 
d="M289 519c144 0 261 -101 254 -280c0 -19 -16 -35 -35 -35h-343c18 -67 74 -103 144 -103c46 0 80 19 100 36c9 8 21 9 31 3l57 -34c15 -9 17 -29 5 -42c-44 -44 -112 -76 -193 -76c-168 0 -279 111 -279 265c0 159 119 266 259 266zM165 302h252c-13 67 -58 104 -126 104
c-62 0 -111 -39 -126 -104zM151 670c0 15 12 27 27 27h237c15 0 27 -12 27 -27v-44c0 -15 -12 -27 -27 -27h-237c-15 0 -27 12 -27 27v44z" />
    <glyph glyph-name="gbreve" unicode="&#x11f;" horiz-adv-x="623" 
d="M436 471c0 20 16 36 35 36h56c20 0 36 -16 36 -36v-416c0 -142 -95 -257 -275 -257c-88 0 -169 31 -217 76c-13 12 -11 33 4 42l58 34c10 6 23 5 31 -3c24 -19 64 -36 120 -36c98 0 152 55 152 153v38c-31 -45 -81 -79 -160 -79c-153 0 -246 118 -246 248
c0 131 93 248 246 248c79 0 129 -34 160 -78v30zM295 136c85 0 135 62 135 135c0 74 -50 135 -135 135c-82 0 -135 -59 -135 -135c0 -75 53 -135 135 -135zM399 723h37c16 0 29 -14 26 -31c-12 -73 -68 -118 -156 -118s-144 45 -156 118c-3 17 10 31 26 31h37
c12 0 23 -8 26 -20c6 -26 26 -49 67 -49s61 23 67 49c3 12 14 20 26 20z" />
    <glyph glyph-name="gcircumflex" unicode="&#x11d;" horiz-adv-x="623" 
d="M436 471c0 20 16 36 35 36h56c20 0 36 -16 36 -36v-416c0 -142 -95 -257 -275 -257c-88 0 -169 31 -217 76c-13 12 -11 33 4 42l58 34c10 6 23 5 31 -3c24 -19 64 -36 120 -36c98 0 152 55 152 153v38c-31 -45 -81 -79 -160 -79c-153 0 -246 118 -246 248
c0 131 93 248 246 248c79 0 129 -34 160 -78v30zM295 136c85 0 135 62 135 135c0 74 -50 135 -135 135c-82 0 -135 -59 -135 -135c0 -75 53 -135 135 -135zM456 616c10 -12 1 -29 -14 -29h-53c-14 0 -27 7 -36 18l-45 63l-46 -63c-8 -11 -21 -18 -36 -18h-53
c-15 0 -23 17 -14 29l74 94c9 11 22 17 35 17h79c14 0 27 -6 35 -17z" />
    <glyph glyph-name="gcommaaccent" unicode="&#x123;" horiz-adv-x="623" 
d="M436 471c0 20 16 36 35 36h56c20 0 36 -16 36 -36v-416c0 -142 -95 -257 -275 -257c-88 0 -169 31 -217 76c-13 12 -11 33 4 42l58 34c10 6 23 5 31 -3c24 -19 64 -36 120 -36c98 0 152 55 152 153v38c-31 -45 -81 -79 -160 -79c-153 0 -246 118 -246 248
c0 131 93 248 246 248c79 0 129 -34 160 -78v30zM295 136c85 0 135 62 135 135c0 74 -50 135 -135 135c-82 0 -135 -59 -135 -135c0 -75 53 -135 135 -135zM387 610c-5 -14 -18 -23 -33 -23h-70c-14 0 -22 15 -16 26l57 105c6 11 18 18 31 18h52c13 0 21 -12 17 -24z" />
    <glyph glyph-name="gdotaccent" unicode="&#x121;" horiz-adv-x="623" 
d="M436 471c0 20 16 36 35 36h56c20 0 36 -16 36 -36v-416c0 -142 -95 -257 -275 -257c-88 0 -169 31 -217 76c-13 12 -11 33 4 42l58 34c10 6 23 5 31 -3c24 -19 64 -36 120 -36c98 0 152 55 152 153v38c-31 -45 -81 -79 -160 -79c-153 0 -246 118 -246 248
c0 131 93 248 246 248c79 0 129 -34 160 -78v30zM295 136c85 0 135 62 135 135c0 74 -50 135 -135 135c-82 0 -135 -59 -135 -135c0 -75 53 -135 135 -135zM306 716c38 0 69 -30 69 -68s-31 -69 -69 -69c-37 0 -68 31 -68 69s31 68 68 68z" />
    <glyph glyph-name="hcircumflex" unicode="&#x125;" 
d="M334 519c128 0 186 -103 186 -211v-272c0 -20 -16 -36 -36 -36h-55c-20 0 -36 16 -36 36v246c0 65 -27 114 -99 114c-75 0 -108 -55 -108 -114v-246c0 -20 -15 -36 -35 -36h-56c-19 0 -35 16 -35 36v628c0 20 16 36 35 36h56c20 0 35 -16 35 -36v-219c28 41 74 74 148 74
zM407 816c10 -12 1 -29 -14 -29h-53c-14 0 -27 7 -36 18l-45 63l-46 -63c-8 -11 -21 -18 -36 -18h-53c-15 0 -23 17 -14 29l74 94c9 11 22 17 35 17h79c14 0 27 -6 35 -17z" />
    <glyph glyph-name="dotlessi" unicode="&#x131;" horiz-adv-x="247" 
d="M96 0c-20 0 -36 16 -36 36v435c0 20 16 36 36 36h55c20 0 36 -16 36 -36v-435c0 -20 -16 -36 -36 -36h-55z" />
    <glyph glyph-name="iacute" unicode="&#xed;" horiz-adv-x="247" 
d="M96 0c-20 0 -36 16 -36 36v435c0 20 16 36 36 36h55c20 0 36 -16 36 -36v-435c0 -20 -16 -36 -36 -36h-55zM162 727h77c15 0 23 -16 15 -28l-67 -97c-7 -9 -18 -15 -29 -15h-56c-13 0 -22 14 -17 25l44 95c6 12 19 20 33 20z" />
    <glyph glyph-name="ibreve" unicode="&#x12d;" horiz-adv-x="247" 
d="M96 0c-20 0 -36 16 -36 36v435c0 20 16 36 36 36h55c20 0 36 -16 36 -36v-435c0 -20 -16 -36 -36 -36h-55zM218 723h37c16 0 29 -14 26 -31c-12 -73 -68 -118 -156 -118s-144 45 -156 118c-3 17 10 31 26 31h37c12 0 23 -8 26 -20c6 -26 26 -49 67 -49s61 23 67 49
c3 12 14 20 26 20z" />
    <glyph glyph-name="icircumflex" unicode="&#xee;" horiz-adv-x="247" 
d="M96 0c-20 0 -36 16 -36 36v435c0 20 16 36 36 36h55c20 0 36 -16 36 -36v-435c0 -20 -16 -36 -36 -36h-55zM273 616c10 -12 1 -29 -14 -29h-53c-14 0 -27 7 -36 18l-45 63l-46 -63c-8 -11 -21 -18 -36 -18h-53c-15 0 -23 17 -14 29l74 94c9 11 22 17 35 17h79
c14 0 27 -6 35 -17z" />
    <glyph glyph-name="idieresis" unicode="&#xef;" horiz-adv-x="247" 
d="M96 0c-20 0 -36 16 -36 36v435c0 20 16 36 36 36h55c20 0 36 -16 36 -36v-435c0 -20 -16 -36 -36 -36h-55zM18 716c38 0 68 -30 68 -68s-30 -69 -68 -69s-69 31 -69 69s31 68 69 68zM229 716c38 0 69 -30 69 -68s-31 -69 -69 -69c-37 0 -68 31 -68 69s31 68 68 68z" />
    <glyph glyph-name="igrave" unicode="&#xec;" horiz-adv-x="247" 
d="M96 0c-20 0 -36 16 -36 36v435c0 20 16 36 36 36h55c20 0 36 -16 36 -36v-435c0 -20 -16 -36 -36 -36h-55zM86 727c13 0 26 -8 32 -20l44 -95c5 -11 -3 -25 -16 -25h-56c-12 0 -23 6 -30 15l-67 97c-8 12 1 28 15 28h78z" />
    <glyph glyph-name="imacron" unicode="&#x12b;" horiz-adv-x="247" 
d="M96 0c-20 0 -36 16 -36 36v435c0 20 16 36 36 36h55c20 0 36 -16 36 -36v-435c0 -20 -16 -36 -36 -36h-55zM-22 670c0 15 12 27 27 27h237c15 0 27 -12 27 -27v-44c0 -15 -12 -27 -27 -27h-237c-15 0 -27 12 -27 27v44z" />
    <glyph glyph-name="itilde" unicode="&#x129;" horiz-adv-x="247" 
d="M96 0c-20 0 -36 16 -36 36v435c0 20 16 36 36 36h55c20 0 36 -16 36 -36v-435c0 -20 -16 -36 -36 -36h-55zM224 691l41 -8c9 -1 16 -10 15 -19c-6 -55 -36 -88 -84 -88c-51 0 -86 30 -127 30c-16 0 -24 -11 -27 -23c-2 -9 -11 -14 -20 -13l-41 7c-9 2 -15 10 -14 20
c6 57 37 88 83 88c51 0 87 -30 126 -30c18 0 25 11 28 22c3 9 11 15 20 14z" />
    <glyph glyph-name="ij" unicode="&#x133;" horiz-adv-x="496" 
d="M96 0c-20 0 -36 16 -36 36v435c0 20 16 36 36 36h55c20 0 36 -16 36 -36v-435c0 -20 -16 -36 -36 -36h-55zM123 581c-37 0 -67 31 -67 68s30 68 67 68c38 0 68 -31 68 -68s-30 -68 -68 -68zM400 507c19 0 35 -16 35 -36v-462c0 -113 -57 -193 -184 -193h-19
c-14 2 -25 13 -25 27v65c0 14 12 26 26 27c50 3 76 29 76 92v444c0 20 15 36 35 36h56zM372 581c-37 0 -68 31 -68 68s31 68 68 68s68 -31 68 -68s-31 -68 -68 -68z" />
    <glyph glyph-name="kcommaaccent" unicode="&#x137;" horiz-adv-x="536" 
d="M493 36c11 -15 1 -36 -18 -36h-87c-14 0 -27 7 -35 18l-167 223v-205c0 -20 -16 -36 -35 -36h-56c-20 0 -35 16 -35 36v628c0 20 15 36 35 36h56c19 0 35 -16 35 -36v-372l144 197c9 11 22 18 36 18h78c19 0 29 -21 18 -36l-153 -197zM207 -105c5 14 18 23 33 23h70
c14 0 22 -15 16 -26l-57 -105c-6 -11 -18 -18 -31 -18h-52c-13 0 -21 12 -17 24z" />
    <glyph glyph-name="kgreenlandic" unicode="&#x138;" horiz-adv-x="536" 
d="M493 36c11 -15 1 -36 -18 -36h-87c-14 0 -27 7 -35 18l-167 223v-205c0 -20 -16 -36 -35 -36h-56c-20 0 -35 16 -35 36v435c0 20 15 36 35 36h56c19 0 35 -16 35 -36v-179l144 197c9 11 22 18 36 18h78c19 0 29 -21 18 -36l-153 -197z" />
    <glyph glyph-name="lacute" unicode="&#x13a;" horiz-adv-x="247" 
d="M60 664c0 20 16 36 36 36h56c19 0 35 -16 35 -36v-628c0 -20 -16 -36 -35 -36h-56c-20 0 -36 16 -36 36v628zM164 927h77c15 0 23 -16 15 -28l-67 -97c-7 -9 -18 -15 -29 -15h-56c-13 0 -22 14 -17 25l44 95c6 12 19 20 33 20z" />
    <glyph glyph-name="lcommaaccent" unicode="&#x13c;" horiz-adv-x="247" 
d="M60 664c0 20 16 36 36 36h56c19 0 35 -16 35 -36v-628c0 -20 -16 -36 -35 -36h-56c-20 0 -36 16 -36 36v628zM49 -105c5 14 18 23 33 23h70c14 0 22 -15 16 -26l-57 -105c-6 -11 -18 -18 -31 -18h-52c-13 0 -21 12 -17 24z" />
    <glyph glyph-name="nacute" unicode="&#x144;" 
d="M334 519c128 0 186 -103 186 -211v-272c0 -20 -16 -36 -36 -36h-55c-20 0 -36 16 -36 36v246c0 65 -27 114 -99 114c-75 0 -108 -55 -108 -114v-246c0 -20 -16 -36 -35 -36h-56c-19 0 -35 16 -35 36v435c0 20 16 36 35 36h56c19 0 35 -16 35 -36v-26c28 41 74 74 148 74z
M318 727h77c15 0 23 -16 15 -28l-67 -97c-7 -9 -18 -15 -29 -15h-56c-13 0 -22 14 -17 25l44 95c6 12 19 20 33 20z" />
    <glyph glyph-name="ncaron" unicode="&#x148;" 
d="M334 519c128 0 186 -103 186 -211v-272c0 -20 -16 -36 -36 -36h-55c-20 0 -36 16 -36 36v246c0 65 -27 114 -99 114c-75 0 -108 -55 -108 -114v-246c0 -20 -16 -36 -35 -36h-56c-19 0 -35 16 -35 36v435c0 20 16 36 35 36h56c19 0 35 -16 35 -36v-26c28 41 74 74 148 74z
M141 698c-9 12 -1 29 14 29h54c14 0 27 -7 35 -18l46 -62l45 62c9 11 22 18 36 18h54c14 0 23 -17 14 -29l-75 -94c-8 -11 -21 -17 -35 -17h-79c-13 0 -26 6 -35 17z" />
    <glyph glyph-name="ncommaaccent" unicode="&#x146;" 
d="M334 519c128 0 186 -103 186 -211v-272c0 -20 -16 -36 -36 -36h-55c-20 0 -36 16 -36 36v246c0 65 -27 114 -99 114c-75 0 -108 -55 -108 -114v-246c0 -20 -16 -36 -35 -36h-56c-19 0 -35 16 -35 36v435c0 20 16 36 35 36h56c19 0 35 -16 35 -36v-26c28 41 74 74 148 74z
M227 -105c5 14 18 23 33 23h70c14 0 22 -15 16 -26l-57 -105c-6 -11 -18 -18 -31 -18h-52c-13 0 -21 12 -17 24z" />
    <glyph glyph-name="ntilde" unicode="&#xf1;" 
d="M334 519c128 0 186 -103 186 -211v-272c0 -20 -16 -36 -36 -36h-55c-20 0 -36 16 -36 36v246c0 65 -27 114 -99 114c-75 0 -108 -55 -108 -114v-246c0 -20 -16 -36 -35 -36h-56c-19 0 -35 16 -35 36v435c0 20 16 36 35 36h56c19 0 35 -16 35 -36v-26c28 41 74 74 148 74z
M390 691l41 -8c9 -1 16 -10 15 -19c-6 -55 -36 -88 -84 -88c-51 0 -86 30 -127 30c-16 0 -24 -11 -27 -23c-2 -9 -11 -14 -20 -13l-41 7c-9 2 -15 10 -14 20c6 57 37 88 83 88c51 0 87 -30 126 -30c18 0 25 11 28 22c3 9 11 15 20 14z" />
    <glyph glyph-name="oacute" unicode="&#xf3;" horiz-adv-x="595" 
d="M297 519c153 0 268 -117 268 -266c0 -148 -115 -266 -268 -266c-152 0 -267 118 -267 266c0 149 115 266 267 266zM297 109c85 0 138 65 138 144s-53 144 -138 144c-84 0 -137 -65 -137 -144s53 -144 137 -144zM326 727h77c15 0 23 -16 15 -28l-67 -97
c-7 -9 -18 -15 -29 -15h-56c-13 0 -22 14 -17 25l44 95c6 12 19 20 33 20z" />
    <glyph glyph-name="obreve" unicode="&#x14f;" horiz-adv-x="595" 
d="M297 519c153 0 268 -117 268 -266c0 -148 -115 -266 -268 -266c-152 0 -267 118 -267 266c0 149 115 266 267 266zM297 109c85 0 138 65 138 144s-53 144 -138 144c-84 0 -137 -65 -137 -144s53 -144 137 -144zM390 723h37c16 0 29 -14 26 -31
c-12 -73 -68 -118 -156 -118s-144 45 -156 118c-3 17 10 31 26 31h37c12 0 23 -8 26 -20c6 -26 26 -49 67 -49s61 23 67 49c3 12 14 20 26 20z" />
    <glyph glyph-name="ocircumflex" unicode="&#xf4;" horiz-adv-x="595" 
d="M297 519c153 0 268 -117 268 -266c0 -148 -115 -266 -268 -266c-152 0 -267 118 -267 266c0 149 115 266 267 266zM297 109c85 0 138 65 138 144s-53 144 -138 144c-84 0 -137 -65 -137 -144s53 -144 137 -144zM447 616c10 -12 1 -29 -14 -29h-53c-14 0 -27 7 -36 18
l-45 63l-46 -63c-8 -11 -21 -18 -36 -18h-53c-15 0 -23 17 -14 29l74 94c9 11 22 17 35 17h79c14 0 27 -6 35 -17z" />
    <glyph glyph-name="odieresis" unicode="&#xf6;" horiz-adv-x="595" 
d="M297 519c153 0 268 -117 268 -266c0 -148 -115 -266 -268 -266c-152 0 -267 118 -267 266c0 149 115 266 267 266zM297 109c85 0 138 65 138 144s-53 144 -138 144c-84 0 -137 -65 -137 -144s53 -144 137 -144zM192 716c38 0 68 -30 68 -68s-30 -69 -68 -69
s-69 31 -69 69s31 68 69 68zM403 716c38 0 69 -30 69 -68s-31 -69 -69 -69c-37 0 -68 31 -68 69s31 68 68 68z" />
    <glyph glyph-name="ograve" unicode="&#xf2;" horiz-adv-x="595" 
d="M297 519c153 0 268 -117 268 -266c0 -148 -115 -266 -268 -266c-152 0 -267 118 -267 266c0 149 115 266 267 266zM297 109c85 0 138 65 138 144s-53 144 -138 144c-84 0 -137 -65 -137 -144s53 -144 137 -144zM259 727c13 0 26 -8 32 -20l44 -95c5 -11 -3 -25 -16 -25
h-56c-12 0 -23 6 -30 15l-67 97c-8 12 1 28 15 28h78z" />
    <glyph glyph-name="ohungarumlaut" unicode="&#x151;" horiz-adv-x="595" 
d="M297 519c153 0 268 -117 268 -266c0 -148 -115 -266 -268 -266c-152 0 -267 118 -267 266c0 149 115 266 267 266zM297 109c85 0 138 65 138 144s-53 144 -138 144c-84 0 -137 -65 -137 -144s53 -144 137 -144zM424 727h77c15 0 23 -16 15 -28l-67 -97
c-7 -9 -18 -15 -29 -15h-56c-13 0 -22 14 -17 25l44 95c6 12 19 20 33 20zM229 727h77c14 0 23 -16 15 -28l-67 -97c-7 -9 -18 -15 -30 -15h-56c-13 0 -21 14 -16 25l44 95c6 12 19 20 33 20z" />
    <glyph glyph-name="omacron" unicode="&#x14d;" horiz-adv-x="595" 
d="M297 519c153 0 268 -117 268 -266c0 -148 -115 -266 -268 -266c-152 0 -267 118 -267 266c0 149 115 266 267 266zM297 109c85 0 138 65 138 144s-53 144 -138 144c-84 0 -137 -65 -137 -144s53 -144 137 -144zM152 670c0 15 12 27 27 27h237c15 0 27 -12 27 -27v-44
c0 -15 -12 -27 -27 -27h-237c-15 0 -27 12 -27 27v44z" />
    <glyph glyph-name="oslashacute" unicode="&#x1ff;" horiz-adv-x="596" 
d="M513 414c33 -45 52 -100 52 -161c0 -148 -115 -265 -268 -265c-70 0 -132 25 -179 66l-38 -35c-7 -6 -18 -6 -25 2l-12 13c-6 7 -6 18 1 25l38 34c-33 44 -52 100 -52 160c0 149 115 266 267 266c70 0 133 -25 180 -66l37 34c7 7 19 7 25 -1l12 -13c7 -7 6 -18 -1 -25z
M159 253c0 -26 7 -51 18 -73l207 188c-23 19 -52 29 -87 29c-85 0 -138 -65 -138 -144zM297 109c85 0 138 66 138 144c0 27 -6 52 -18 74l-206 -188c23 -19 52 -30 86 -30zM326 727h77c15 0 23 -16 15 -28l-67 -97c-7 -9 -18 -15 -29 -15h-56c-13 0 -22 14 -17 25l44 95
c6 12 19 20 33 20z" />
    <glyph glyph-name="otilde" unicode="&#xf5;" horiz-adv-x="595" 
d="M297 519c153 0 268 -117 268 -266c0 -148 -115 -266 -268 -266c-152 0 -267 118 -267 266c0 149 115 266 267 266zM297 109c85 0 138 65 138 144s-53 144 -138 144c-84 0 -137 -65 -137 -144s53 -144 137 -144zM398 691l41 -8c9 -1 16 -10 15 -19c-6 -55 -36 -88 -84 -88
c-51 0 -86 30 -127 30c-16 0 -24 -11 -27 -23c-2 -9 -11 -14 -20 -13l-41 7c-9 2 -15 10 -14 20c6 57 37 88 83 88c51 0 87 -30 126 -30c18 0 25 11 28 22c3 9 11 15 20 14z" />
    <glyph glyph-name="racute" unicode="&#x155;" horiz-adv-x="386" 
d="M187 425c32 52 86 83 139 92c16 2 30 -10 30 -27v-80c0 -15 -12 -27 -27 -27c-125 4 -142 -86 -142 -174v-173c0 -20 -16 -36 -35 -36h-56c-20 0 -36 16 -36 36v435c0 20 16 36 36 36h56c19 0 35 -16 35 -36v-46zM216 727h77c15 0 23 -16 15 -28l-67 -97
c-7 -9 -18 -15 -29 -15h-56c-13 0 -22 14 -17 25l44 95c6 12 19 20 33 20z" />
    <glyph glyph-name="rcommaaccent" unicode="&#x157;" horiz-adv-x="386" 
d="M187 425c32 52 86 83 139 92c16 2 30 -10 30 -27v-80c0 -15 -12 -27 -27 -27c-125 4 -142 -86 -142 -174v-173c0 -20 -16 -36 -35 -36h-56c-20 0 -36 16 -36 36v435c0 20 16 36 36 36h56c19 0 35 -16 35 -36v-46zM48 -105c5 14 18 23 33 23h70c14 0 22 -15 16 -26
l-57 -105c-6 -11 -18 -18 -31 -18h-52c-13 0 -21 12 -17 24z" />
    <glyph glyph-name="sacute" unicode="&#x15b;" horiz-adv-x="473" 
d="M269 303c125 -27 179 -61 179 -147c0 -99 -72 -168 -215 -168c-85 0 -170 29 -206 94c-8 14 -1 33 16 38l71 22c12 4 24 -1 31 -12c11 -18 37 -36 90 -36s83 20 83 54c0 47 -73 46 -133 58c-98 20 -148 68 -148 154c0 96 81 159 199 159c77 0 152 -33 184 -100
c7 -15 -2 -33 -18 -37l-65 -16c-11 -3 -23 2 -29 12c-12 19 -35 34 -72 34s-75 -13 -75 -51c0 -45 68 -49 108 -58zM260 727h77c15 0 23 -16 15 -28l-67 -97c-7 -9 -18 -15 -29 -15h-56c-13 0 -22 14 -17 25l44 95c6 12 19 20 33 20z" />
    <glyph glyph-name="scaron" unicode="&#x161;" horiz-adv-x="473" 
d="M269 303c125 -27 179 -61 179 -147c0 -99 -72 -168 -215 -168c-85 0 -170 29 -206 94c-8 14 -1 33 16 38l71 22c12 4 24 -1 31 -12c11 -18 37 -36 90 -36s83 20 83 54c0 47 -73 46 -133 58c-98 20 -148 68 -148 154c0 96 81 159 199 159c77 0 152 -33 184 -100
c7 -15 -2 -33 -18 -37l-65 -16c-11 -3 -23 2 -29 12c-12 19 -35 34 -72 34s-75 -13 -75 -51c0 -45 68 -49 108 -58zM82 698c-9 12 -1 29 14 29h54c14 0 27 -7 35 -18l46 -62l45 62c9 11 22 18 36 18h54c14 0 23 -17 14 -29l-75 -94c-8 -11 -21 -17 -35 -17h-79
c-13 0 -26 6 -35 17z" />
    <glyph glyph-name="scircumflex" unicode="&#x15d;" horiz-adv-x="473" 
d="M269 303c125 -27 179 -61 179 -147c0 -99 -72 -168 -215 -168c-85 0 -170 29 -206 94c-8 14 -1 33 16 38l71 22c12 4 24 -1 31 -12c11 -18 37 -36 90 -36s83 20 83 54c0 47 -73 46 -133 58c-98 20 -148 68 -148 154c0 96 81 159 199 159c77 0 152 -33 184 -100
c7 -15 -2 -33 -18 -37l-65 -16c-11 -3 -23 2 -29 12c-12 19 -35 34 -72 34s-75 -13 -75 -51c0 -45 68 -49 108 -58zM381 616c10 -12 1 -29 -14 -29h-53c-14 0 -27 7 -36 18l-45 63l-46 -63c-8 -11 -21 -18 -36 -18h-53c-15 0 -23 17 -14 29l74 94c9 11 22 17 35 17h79
c14 0 27 -6 35 -17z" />
    <glyph glyph-name="scommaaccent" unicode="&#x219;" horiz-adv-x="473" 
d="M269 303c125 -27 179 -61 179 -147c0 -99 -72 -168 -215 -168c-85 0 -170 29 -206 94c-8 14 -1 33 16 38l71 22c12 4 24 -1 31 -12c11 -18 37 -36 90 -36s83 20 83 54c0 47 -73 46 -133 58c-98 20 -148 68 -148 154c0 96 81 159 199 159c77 0 152 -33 184 -100
c7 -15 -2 -33 -18 -37l-65 -16c-11 -3 -23 2 -29 12c-12 19 -35 34 -72 34s-75 -13 -75 -51c0 -45 68 -49 108 -58zM158 -105c5 14 18 23 33 23h70c14 0 22 -15 16 -26l-57 -105c-6 -11 -18 -18 -31 -18h-52c-13 0 -21 12 -17 24z" />
    <glyph glyph-name="tcommaaccent" unicode="&#x163;" horiz-adv-x="382" 
d="M337 426c0 -19 -16 -35 -36 -35h-72v-185c0 -58 8 -92 78 -92h2c15 0 28 -12 28 -27v-66c0 -14 -10 -25 -23 -27c-9 -1 -18 -1 -30 -1c-130 0 -182 87 -182 192v206h-46c-19 0 -35 16 -35 35v45c0 20 16 36 35 36h46v70c0 20 15 36 35 36h56c20 0 36 -16 36 -36v-70h72
c20 0 36 -16 36 -36v-45zM140 -105c5 14 18 23 33 23h70c14 0 22 -15 16 -26l-57 -105c-6 -11 -18 -18 -31 -18h-52c-13 0 -21 12 -17 24z" />
    <glyph glyph-name="uacute" unicode="&#xfa;" 
d="M428 507h56c20 0 36 -16 36 -36v-435c0 -20 -16 -36 -36 -36h-56c-19 0 -35 16 -35 36v26c-28 -41 -74 -74 -147 -74c-128 0 -186 103 -186 210v273c0 20 16 36 35 36h56c19 0 35 -16 35 -36v-246c0 -65 28 -114 99 -114c75 0 108 55 108 114v246c0 20 16 36 35 36z
M318 727h77c15 0 23 -16 15 -28l-67 -97c-7 -9 -18 -15 -29 -15h-56c-13 0 -22 14 -17 25l44 95c6 12 19 20 33 20z" />
    <glyph glyph-name="ubreve" unicode="&#x16d;" 
d="M428 507h56c20 0 36 -16 36 -36v-435c0 -20 -16 -36 -36 -36h-56c-19 0 -35 16 -35 36v26c-28 -41 -74 -74 -147 -74c-128 0 -186 103 -186 210v273c0 20 16 36 35 36h56c19 0 35 -16 35 -36v-246c0 -65 28 -114 99 -114c75 0 108 55 108 114v246c0 20 16 36 35 36z
M383 723h37c16 0 29 -14 26 -31c-12 -73 -68 -118 -156 -118s-144 45 -156 118c-3 17 10 31 26 31h37c12 0 23 -8 26 -20c6 -26 26 -49 67 -49s61 23 67 49c3 12 14 20 26 20z" />
    <glyph glyph-name="ucircumflex" unicode="&#xfb;" 
d="M428 507h56c20 0 36 -16 36 -36v-435c0 -20 -16 -36 -36 -36h-56c-19 0 -35 16 -35 36v26c-28 -41 -74 -74 -147 -74c-128 0 -186 103 -186 210v273c0 20 16 36 35 36h56c19 0 35 -16 35 -36v-246c0 -65 28 -114 99 -114c75 0 108 55 108 114v246c0 20 16 36 35 36z
M439 616c10 -12 1 -29 -14 -29h-53c-14 0 -27 7 -36 18l-45 63l-46 -63c-8 -11 -21 -18 -36 -18h-53c-15 0 -23 17 -14 29l74 94c9 11 22 17 35 17h79c14 0 27 -6 35 -17z" />
    <glyph glyph-name="udieresis" unicode="&#xfc;" 
d="M428 507h56c20 0 36 -16 36 -36v-435c0 -20 -16 -36 -36 -36h-56c-19 0 -35 16 -35 36v26c-28 -41 -74 -74 -147 -74c-128 0 -186 103 -186 210v273c0 20 16 36 35 36h56c19 0 35 -16 35 -36v-246c0 -65 28 -114 99 -114c75 0 108 55 108 114v246c0 20 16 36 35 36z
M185 716c38 0 68 -30 68 -68s-30 -69 -68 -69s-69 31 -69 69s31 68 69 68zM396 716c38 0 69 -30 69 -68s-31 -69 -69 -69c-37 0 -68 31 -68 69s31 68 68 68z" />
    <glyph glyph-name="uhungarumlaut" unicode="&#x171;" 
d="M428 507h56c20 0 36 -16 36 -36v-435c0 -20 -16 -36 -36 -36h-56c-19 0 -35 16 -35 36v26c-28 -41 -74 -74 -147 -74c-128 0 -186 103 -186 210v273c0 20 16 36 35 36h56c19 0 35 -16 35 -36v-246c0 -65 28 -114 99 -114c75 0 108 55 108 114v246c0 20 16 36 35 36z
M416 727h77c15 0 23 -16 15 -28l-67 -97c-7 -9 -18 -15 -29 -15h-56c-13 0 -22 14 -17 25l44 95c6 12 19 20 33 20zM221 727h77c14 0 23 -16 15 -28l-67 -97c-7 -9 -18 -15 -30 -15h-56c-13 0 -21 14 -16 25l44 95c6 12 19 20 33 20z" />
    <glyph glyph-name="ugrave" unicode="&#xf9;" 
d="M428 507h56c20 0 36 -16 36 -36v-435c0 -20 -16 -36 -36 -36h-56c-19 0 -35 16 -35 36v26c-28 -41 -74 -74 -147 -74c-128 0 -186 103 -186 210v273c0 20 16 36 35 36h56c19 0 35 -16 35 -36v-246c0 -65 28 -114 99 -114c75 0 108 55 108 114v246c0 20 16 36 35 36z
M272 727c13 0 26 -8 32 -20l44 -95c5 -11 -3 -25 -16 -25h-56c-12 0 -23 6 -30 15l-67 97c-8 12 1 28 15 28h78z" />
    <glyph glyph-name="umacron" unicode="&#x16b;" 
d="M428 507h56c20 0 36 -16 36 -36v-435c0 -20 -16 -36 -36 -36h-56c-19 0 -35 16 -35 36v26c-28 -41 -74 -74 -147 -74c-128 0 -186 103 -186 210v273c0 20 16 36 35 36h56c19 0 35 -16 35 -36v-246c0 -65 28 -114 99 -114c75 0 108 55 108 114v246c0 20 16 36 35 36z
M145 670c0 15 12 27 27 27h237c15 0 27 -12 27 -27v-44c0 -15 -12 -27 -27 -27h-237c-15 0 -27 12 -27 27v44z" />
    <glyph glyph-name="utilde" unicode="&#x169;" 
d="M428 507h56c20 0 36 -16 36 -36v-435c0 -20 -16 -36 -36 -36h-56c-19 0 -35 16 -35 36v26c-28 -41 -74 -74 -147 -74c-128 0 -186 103 -186 210v273c0 20 16 36 35 36h56c19 0 35 -16 35 -36v-246c0 -65 28 -114 99 -114c75 0 108 55 108 114v246c0 20 16 36 35 36z
M391 691l41 -8c9 -1 16 -10 15 -19c-6 -55 -36 -88 -84 -88c-51 0 -86 30 -127 30c-16 0 -24 -11 -27 -23c-2 -9 -11 -14 -20 -13l-41 7c-9 2 -15 10 -14 20c6 57 37 88 83 88c51 0 87 -30 126 -30c18 0 25 11 28 22c3 9 11 15 20 14z" />
    <glyph glyph-name="wacute" unicode="&#x1e83;" horiz-adv-x="799" 
d="M638 475c6 19 23 32 43 32h67c18 0 31 -18 25 -35l-148 -442c-6 -18 -23 -30 -43 -30h-48c-19 0 -36 12 -43 30l-91 269l-91 -269c-6 -18 -23 -30 -42 -30h-49c-19 0 -36 12 -43 30l-148 442c-6 17 7 35 26 35h67c19 0 36 -13 42 -32l88 -290l100 298c5 14 19 24 34 24
h32c16 0 29 -10 34 -24l100 -298zM438 727h77c15 0 23 -16 15 -28l-67 -97c-7 -9 -18 -15 -29 -15h-56c-13 0 -22 14 -17 25l44 95c6 12 19 20 33 20z" />
    <glyph glyph-name="wcircumflex" unicode="&#x175;" horiz-adv-x="799" 
d="M638 475c6 19 23 32 43 32h67c18 0 31 -18 25 -35l-148 -442c-6 -18 -23 -30 -43 -30h-48c-19 0 -36 12 -43 30l-91 269l-91 -269c-6 -18 -23 -30 -42 -30h-49c-19 0 -36 12 -43 30l-148 442c-6 17 7 35 26 35h67c19 0 36 -13 42 -32l88 -290l100 298c5 14 19 24 34 24
h32c16 0 29 -10 34 -24l100 -298zM549 616c10 -12 1 -29 -14 -29h-53c-14 0 -27 7 -36 18l-45 63l-46 -63c-8 -11 -21 -18 -36 -18h-53c-15 0 -23 17 -14 29l74 94c9 11 22 17 35 17h79c14 0 27 -6 35 -17z" />
    <glyph glyph-name="wdieresis" unicode="&#x1e85;" horiz-adv-x="799" 
d="M638 475c6 19 23 32 43 32h67c18 0 31 -18 25 -35l-148 -442c-6 -18 -23 -30 -43 -30h-48c-19 0 -36 12 -43 30l-91 269l-91 -269c-6 -18 -23 -30 -42 -30h-49c-19 0 -36 12 -43 30l-148 442c-6 17 7 35 26 35h67c19 0 36 -13 42 -32l88 -290l100 298c5 14 19 24 34 24
h32c16 0 29 -10 34 -24l100 -298zM294 716c38 0 68 -30 68 -68s-30 -69 -68 -69s-69 31 -69 69s31 68 69 68zM505 716c38 0 69 -30 69 -68s-31 -69 -69 -69c-37 0 -68 31 -68 69s31 68 68 68z" />
    <glyph glyph-name="wgrave" unicode="&#x1e81;" horiz-adv-x="799" 
d="M638 475c6 19 23 32 43 32h67c18 0 31 -18 25 -35l-148 -442c-6 -18 -23 -30 -43 -30h-48c-19 0 -36 12 -43 30l-91 269l-91 -269c-6 -18 -23 -30 -42 -30h-49c-19 0 -36 12 -43 30l-148 442c-6 17 7 35 26 35h67c19 0 36 -13 42 -32l88 -290l100 298c5 14 19 24 34 24
h32c16 0 29 -10 34 -24l100 -298zM361 727c13 0 26 -8 32 -20l44 -95c5 -11 -3 -25 -16 -25h-56c-12 0 -23 6 -30 15l-67 97c-8 12 1 28 15 28h78z" />
    <glyph glyph-name="yacute" unicode="&#xfd;" horiz-adv-x="554" 
d="M391 477c7 18 23 30 42 30h67c19 0 32 -19 25 -37c-42 -105 -161 -406 -187 -470c-48 -118 -93 -193 -195 -193c-9 0 -20 1 -31 3c-13 1 -23 13 -23 26v48c0 14 11 26 25 27c53 2 83 34 111 119c-7 17 -145 330 -194 439c-8 18 5 38 25 38h65c19 0 35 -11 42 -29
l118 -305zM315 727h77c15 0 23 -16 15 -28l-67 -97c-7 -9 -18 -15 -29 -15h-56c-13 0 -22 14 -17 25l44 95c6 12 19 20 33 20z" />
    <glyph glyph-name="ycircumflex" unicode="&#x177;" horiz-adv-x="554" 
d="M391 477c7 18 23 30 42 30h67c19 0 32 -19 25 -37c-42 -105 -161 -406 -187 -470c-48 -118 -93 -193 -195 -193c-9 0 -20 1 -31 3c-13 1 -23 13 -23 26v48c0 14 11 26 25 27c53 2 83 34 111 119c-7 17 -145 330 -194 439c-8 18 5 38 25 38h65c19 0 35 -11 42 -29
l118 -305zM427 616c10 -12 1 -29 -14 -29h-53c-14 0 -27 7 -36 18l-45 63l-46 -63c-8 -11 -21 -18 -36 -18h-53c-15 0 -23 17 -14 29l74 94c9 11 22 17 35 17h79c14 0 27 -6 35 -17z" />
    <glyph glyph-name="ydieresis" unicode="&#xff;" horiz-adv-x="554" 
d="M391 477c7 18 23 30 42 30h67c19 0 32 -19 25 -37c-42 -105 -161 -406 -187 -470c-48 -118 -93 -193 -195 -193c-9 0 -20 1 -31 3c-13 1 -23 13 -23 26v48c0 14 11 26 25 27c53 2 83 34 111 119c-7 17 -145 330 -194 439c-8 18 5 38 25 38h65c19 0 35 -11 42 -29
l118 -305zM172 716c38 0 68 -30 68 -68s-30 -69 -68 -69s-69 31 -69 69s31 68 69 68zM383 716c38 0 69 -30 69 -68s-31 -69 -69 -69c-37 0 -68 31 -68 69s31 68 68 68z" />
    <glyph glyph-name="ygrave" unicode="&#x1ef3;" horiz-adv-x="554" 
d="M391 477c7 18 23 30 42 30h67c19 0 32 -19 25 -37c-42 -105 -161 -406 -187 -470c-48 -118 -93 -193 -195 -193c-9 0 -20 1 -31 3c-13 1 -23 13 -23 26v48c0 14 11 26 25 27c53 2 83 34 111 119c-7 17 -145 330 -194 439c-8 18 5 38 25 38h65c19 0 35 -11 42 -29
l118 -305zM249 727c13 0 26 -8 32 -20l44 -95c5 -11 -3 -25 -16 -25h-56c-12 0 -23 6 -30 15l-67 97c-8 12 1 28 15 28h78z" />
    <glyph glyph-name="zacute" unicode="&#x17a;" horiz-adv-x="492" 
d="M205 116h207c20 0 36 -16 36 -36v-44c0 -20 -16 -36 -36 -36h-331c-20 0 -36 16 -36 36v38c0 10 4 19 10 27l223 290h-188c-20 0 -36 16 -36 36v44c0 20 16 36 36 36h313c20 0 36 -16 36 -36v-38c0 -10 -3 -19 -10 -27zM274 727h77c15 0 23 -16 15 -28l-67 -97
c-7 -9 -18 -15 -29 -15h-56c-13 0 -22 14 -17 25l44 95c6 12 19 20 33 20z" />
    <glyph glyph-name="zcaron" unicode="&#x17e;" horiz-adv-x="492" 
d="M205 116h207c20 0 36 -16 36 -36v-44c0 -20 -16 -36 -36 -36h-331c-20 0 -36 16 -36 36v38c0 10 4 19 10 27l223 290h-188c-20 0 -36 16 -36 36v44c0 20 16 36 36 36h313c20 0 36 -16 36 -36v-38c0 -10 -3 -19 -10 -27zM97 698c-9 12 -1 29 14 29h54c14 0 27 -7 35 -18
l46 -62l45 62c9 11 22 18 36 18h54c14 0 23 -17 14 -29l-75 -94c-8 -11 -21 -17 -35 -17h-79c-13 0 -26 6 -35 17z" />
    <glyph glyph-name="zdotaccent" unicode="&#x17c;" horiz-adv-x="492" 
d="M205 116h207c20 0 36 -16 36 -36v-44c0 -20 -16 -36 -36 -36h-331c-20 0 -36 16 -36 36v38c0 10 4 19 10 27l223 290h-188c-20 0 -36 16 -36 36v44c0 20 16 36 36 36h313c20 0 36 -16 36 -36v-38c0 -10 -3 -19 -10 -27zM246 716c38 0 69 -30 69 -68s-31 -69 -69 -69
c-37 0 -68 31 -68 69s31 68 68 68z" />
    <glyph glyph-name="Eth" unicode="&#xd0;" horiz-adv-x="733" 
d="M321 700c233 0 372 -144 372 -350s-139 -350 -372 -350h-182c-19 0 -35 16 -35 36v278h-71c-10 0 -18 8 -18 18v36c0 10 8 18 18 18h71v278c0 20 16 36 35 36h182zM321 126c128 0 237 68 237 224s-109 224 -237 224h-82v-188h141c10 0 18 -8 18 -18v-36
c0 -10 -8 -18 -18 -18h-141v-188h82z" />
    <glyph glyph-name="jcircumflex" unicode="&#x135;" horiz-adv-x="247" 
d="M151 507c19 0 35 -16 35 -36v-462c0 -113 -57 -193 -184 -193h-19c-14 2 -25 13 -25 27v65c0 14 12 26 26 27c50 3 76 29 76 92v444c0 20 15 36 35 36h56zM273 616c10 -12 1 -29 -14 -29h-53c-14 0 -27 7 -36 18l-45 63l-46 -63c-8 -11 -21 -18 -36 -18h-53
c-15 0 -23 17 -14 29l74 94c9 11 22 17 35 17h79c14 0 27 -6 35 -17z" />
    <glyph glyph-name="rcaron" unicode="&#x159;" horiz-adv-x="386" 
d="M187 425c32 52 86 83 139 92c16 2 30 -10 30 -27v-80c0 -15 -12 -27 -27 -27c-125 4 -142 -86 -142 -174v-173c0 -20 -16 -36 -35 -36h-56c-20 0 -36 16 -36 36v435c0 20 16 36 36 36h56c19 0 35 -16 35 -36v-46zM44 698c-9 12 -1 29 14 29h54c14 0 27 -7 35 -18l46 -62
l45 62c9 11 22 18 36 18h54c14 0 23 -17 14 -29l-75 -94c-8 -11 -21 -17 -35 -17h-79c-13 0 -26 6 -35 17z" />
    <glyph glyph-name="ellipsis" unicode="&#x2026;" horiz-adv-x="711" 
d="M119 135c40 0 73 -33 73 -74s-33 -74 -73 -74c-41 0 -74 33 -74 74s33 74 74 74zM356 135c40 0 73 -33 73 -74s-33 -74 -73 -74c-41 0 -74 33 -74 74s33 74 74 74zM593 135c40 0 73 -33 73 -74s-33 -74 -73 -74c-41 0 -74 33 -74 74s33 74 74 74z" />
    <glyph glyph-name="A" unicode="A" horiz-adv-x="700" 
d="M574 0c-19 0 -36 12 -42 30l-37 109h-288l-37 -109c-6 -18 -23 -30 -42 -30h-74c-19 0 -32 18 -26 36l229 635c6 17 23 29 42 29h104c19 0 35 -12 42 -29l228 -635c6 -18 -7 -36 -25 -36h-74zM248 260h206l-103 303z" />
    </font>
</defs>
</svg>
