<svg version="1.1" id="Layer_1" xmlns="http://www.w3.org/2000/svg" xmlns:xlink="http://www.w3.org/1999/xlink" x="0px" y="0px"
	 width="100%" viewBox="0 0 535 476" enable-background="new 0 0 535 476" xml:space="preserve">
<path fill="#FFFFFF" opacity="1.000000" stroke="none" 
	d="
M373.000000,477.000000 
	C248.666702,477.000000 124.833389,477.000000 1.000067,477.000000 
	C1.000044,318.333405 1.000044,159.666809 1.000022,1.000152 
	C179.333237,1.000101 357.666473,1.000101 535.999756,1.000051 
	C535.999878,159.666519 535.999878,318.333038 535.999939,476.999756 
	C481.833344,477.000000 427.666656,477.000000 373.000000,477.000000 
M140.552307,172.022690 
	C137.261688,168.068085 133.820679,164.225021 130.760971,160.099167 
	C129.671066,158.629486 129.176346,156.507782 128.982880,154.624832 
	C128.473541,149.667450 125.912086,146.476822 121.619919,145.998291 
	C117.922615,145.586105 113.475204,148.380585 112.776192,151.875580 
	C111.838692,156.563049 114.912888,159.106232 118.230782,161.598572 
	C121.972351,164.409164 125.507828,167.495529 129.112000,170.487198 
	C131.688492,172.625809 134.337570,174.696655 136.723755,177.033127 
	C137.456802,177.750900 137.428543,179.246155 137.110687,180.434845 
	C134.724503,181.571075 132.338318,182.707306 129.334671,183.443329 
	C122.555305,178.274643 113.589264,175.625443 110.907951,165.819107 
	C109.999115,162.495193 106.031784,161.028961 102.534935,162.393875 
	C99.052902,163.753036 96.225700,166.243332 96.507690,170.632706 
	C96.777847,174.837708 99.125702,178.085052 103.146919,178.083740 
	C111.607918,178.080994 116.382057,184.109711 122.147835,189.034424 
	C122.217407,189.695312 122.286980,190.356186 122.016792,191.490585 
	C121.913200,191.861099 121.809601,192.231598 121.048286,192.816483 
	C119.967232,193.570084 118.801804,194.227783 117.818550,195.092590 
	C110.356995,201.655396 103.607521,208.744141 100.351067,218.991592 
	C100.038246,219.633499 99.725426,220.275391 99.045654,221.632782 
	C98.407089,223.868408 97.519157,226.065842 97.170082,228.345795 
	C94.759209,244.092407 97.161453,259.658173 100.771675,274.793884 
	C106.943214,300.667755 120.301056,323.366028 134.908737,345.301758 
	C138.651108,350.921539 137.322311,357.087189 131.109604,359.787659 
	C125.783310,362.102875 120.170197,363.763550 114.866447,366.123871 
	C109.636520,368.451294 104.451576,371.006012 99.645325,374.083282 
	C98.179718,375.021698 98.032959,378.019989 97.282173,380.074860 
	C99.207542,380.653687 101.133385,381.728668 103.058220,381.726868 
	C112.203880,381.718231 121.348404,381.330627 130.494949,381.238983 
	C143.956497,381.104065 157.421112,381.209137 170.880630,380.984039 
	C174.741531,380.919495 177.042145,378.432404 176.959808,374.499939 
	C176.908676,372.057495 176.179779,369.627319 175.734818,367.195343 
	C173.768219,356.446594 170.930130,345.770233 170.039200,334.933533 
	C168.895920,321.027374 169.315643,306.992706 169.575562,292.519867 
	C169.871521,291.132568 170.167465,289.745270 170.761963,286.958435 
	C173.634232,290.365814 176.709503,292.598267 177.761551,295.551483 
	C180.080734,302.061676 181.376190,308.936157 183.095581,315.660431 
	C185.878510,326.544037 193.242157,333.100861 203.767807,331.796539 
	C212.900970,330.664703 220.079895,325.164764 224.662827,316.768311 
	C225.524536,315.189636 227.096191,313.998444 228.887207,313.038818 
	C246.146393,338.998047 287.575287,340.224335 306.516327,312.188171 
	C307.328003,313.205170 308.139709,314.222198 308.951385,315.239197 
	C311.778931,318.782104 314.087311,322.967499 317.529938,325.749146 
	C328.479706,334.596558 338.351715,334.725006 346.361389,324.917297 
	C350.414398,319.954498 352.399658,312.754272 353.707916,306.241852 
	C355.234070,298.644714 357.606171,292.093475 363.880432,287.676117 
	C364.192871,289.347717 364.536346,291.185669 364.901459,293.938477 
	C364.877258,302.238800 364.783844,310.539642 364.843231,318.839386 
	C364.967560,336.216522 363.111359,353.290741 357.680969,369.898071 
	C355.595306,376.276459 358.918701,380.796021 365.528717,381.064148 
	C371.006378,381.286316 376.484772,381.733765 381.960846,381.704651 
	C395.430389,381.633087 408.898376,381.288422 422.368011,381.181610 
	C425.841858,381.154053 429.319000,381.774323 432.795349,381.781982 
	C436.829773,381.790833 438.604828,379.064972 436.049316,376.035217 
	C433.626251,373.162506 430.094116,370.885986 426.613129,369.314056 
	C418.920746,365.840363 410.878143,363.150024 403.122314,359.806274 
	C396.651062,357.016266 395.293457,350.753204 399.359619,344.984375 
	C402.037292,341.185516 404.530182,337.249603 406.971771,333.292358 
	C420.301788,311.687469 431.818451,289.244781 435.389893,263.751343 
	C436.901581,252.960785 438.006165,241.843979 437.131866,231.050766 
	C435.783295,214.402466 426.227570,201.901321 412.692688,191.897385 
	C412.692688,191.897385 412.323059,191.810150 412.202393,191.119232 
	C412.016907,190.219788 411.831390,189.320358 412.265137,187.999847 
	C414.671997,186.230591 416.936798,184.208008 419.522644,182.757965 
	C422.573517,181.047134 425.780609,179.281433 429.140778,178.539230 
	C433.436218,177.590454 436.809143,176.111786 437.453094,171.404312 
	C438.018524,167.270782 436.175476,164.322556 432.189362,162.887848 
	C428.900177,161.703995 425.103210,164.119598 422.649414,168.093079 
	C418.102203,175.456497 411.079803,180.058228 403.335480,183.581406 
	C401.562134,182.348846 399.788818,181.116287 398.451324,179.287170 
	C401.375031,175.478424 404.050812,171.439255 407.305023,167.937668 
	C409.683838,165.377991 412.588074,163.071335 415.681000,161.467453 
	C419.997986,159.228836 422.378387,156.179108 421.324982,152.187256 
	C420.297760,148.294754 417.481201,146.551788 413.534302,146.501236 
	C409.401337,146.448288 406.278961,149.399216 405.063416,153.514923 
	C404.071228,156.874466 402.649231,160.241806 400.738312,163.160889 
	C398.390930,166.746674 395.337219,169.870071 392.073181,173.059570 
	C391.734833,173.173035 391.396484,173.286499 391.078156,172.556686 
	C390.430878,170.335205 389.680511,168.137939 389.152649,165.888428 
	C384.899384,147.762665 374.051819,134.652252 358.354706,125.189827 
	C342.517609,115.643013 324.896759,111.430992 306.910675,107.154312 
	C307.053345,105.998222 307.230347,104.845177 307.333405,103.685570 
	C308.252075,93.348892 306.384430,90.217636 296.614258,86.298531 
	C294.013092,85.255135 291.240204,84.603943 288.506195,83.936188 
	C284.545746,82.968872 280.548950,82.150322 275.169647,80.958603 
	C280.987793,75.055206 285.894318,70.076782 290.730896,65.169327 
	C281.463287,53.219872 249.516907,54.363781 242.533600,67.496208 
	C247.481430,71.251770 252.988846,75.432068 258.496246,79.612366 
	C258.107910,80.145782 257.719574,80.679207 257.331238,81.212631 
	C255.583832,81.632088 253.825027,82.009453 252.091141,82.478790 
	C246.501892,83.991714 240.775406,85.147110 235.374115,87.168083 
	C228.091217,89.893089 226.008392,93.736649 226.541519,101.409264 
	C226.714096,103.892914 226.956238,106.371727 226.278854,108.861687 
	C211.409088,111.272346 196.885162,114.312660 183.239120,121.496170 
	C170.162598,128.379883 158.521698,136.629608 151.325592,149.530106 
	C147.363434,156.633057 145.622604,164.975113 142.274597,172.480194 
	C141.844894,172.518906 141.415192,172.557617 140.552307,172.022690 
z"/>
<path fill="#FEDFB1" opacity="1.000000" stroke="none" 
	d="
M364.879822,293.023621 
	C364.536346,291.185669 364.192871,289.347717 363.880432,287.676117 
	C357.606171,292.093475 355.234070,298.644714 353.707916,306.241852 
	C352.399658,312.754272 350.414398,319.954498 346.361389,324.917297 
	C338.351715,334.725006 328.479706,334.596558 317.529938,325.749146 
	C314.087311,322.967499 311.778931,318.782104 308.951385,315.239197 
	C308.139709,314.222198 307.328003,313.205170 306.270447,311.648621 
	C307.561462,306.745728 309.376160,302.456696 310.568665,298.001160 
	C312.257233,291.692139 315.504486,286.880493 321.517059,284.008911 
	C322.784241,283.403717 324.252625,282.295135 324.713440,281.073456 
	C328.219147,271.779388 331.497498,262.399536 335.149750,252.829346 
	C336.105896,250.454010 336.758942,248.295761 337.741669,246.008698 
	C340.717987,238.585297 342.775330,230.994980 346.231628,224.106598 
	C348.315857,219.952759 347.173767,218.355713 344.201050,216.026184 
	C340.576752,213.186066 336.827515,210.274200 333.988251,206.711273 
	C327.960938,199.147705 321.565491,191.637802 317.028290,183.189011 
	C311.723755,173.311447 307.989716,162.549362 304.068848,151.987427 
	C302.139191,146.789490 301.323792,141.177902 299.984375,135.672287 
	C298.853149,136.262680 297.997620,136.709183 297.132629,136.748627 
	C297.781097,133.164963 298.439056,129.988373 299.433929,126.757599 
	C300.756195,125.126801 302.064606,123.663422 302.664581,121.951736 
	C304.278656,117.346855 305.590271,112.635948 307.021973,107.967133 
	C324.896759,111.430992 342.517609,115.643013 358.354706,125.189827 
	C374.051819,134.652252 384.899384,147.762665 389.152649,165.888428 
	C389.680511,168.137939 390.430878,170.335205 391.130249,173.270721 
	C391.581238,174.990097 391.980164,175.995468 392.526001,177.412262 
	C392.844940,179.271210 393.017029,180.718735 393.130920,182.560608 
	C393.429413,185.341476 393.730347,187.738052 394.160004,190.111328 
	C394.511414,192.052277 395.016388,193.965408 395.555420,196.263626 
	C395.711243,197.148621 395.764893,197.660873 395.635071,198.318985 
	C395.669586,198.989685 395.887573,199.514511 396.071594,200.417236 
	C396.111908,201.547150 396.186188,202.299149 396.197693,203.510300 
	C395.925659,212.965836 395.716431,221.962219 395.345673,231.291809 
	C394.846497,232.788986 394.508881,233.952957 393.888428,235.274109 
	C393.212128,236.610733 392.818634,237.790176 392.295105,239.309662 
	C392.054596,240.366989 391.944153,241.084259 391.554077,241.910645 
	C390.931946,242.664810 390.589478,243.309891 390.144226,244.261261 
	C389.980682,244.993088 389.919952,245.418640 389.551941,245.967438 
	C388.248260,248.046692 387.251831,250.002655 385.965881,252.118958 
	C385.534149,252.885880 385.392029,253.492508 385.138245,254.439880 
	C383.324585,258.152924 381.622589,261.525208 379.608551,264.968384 
	C378.892914,265.707031 378.489349,266.374756 377.925293,267.338654 
	C376.491577,269.730316 375.218323,271.825867 373.604401,273.989777 
	C368.406799,278.829498 365.769440,284.531189 365.858276,291.428223 
	C365.865082,291.955719 365.221252,292.491608 364.879822,293.023621 
z"/>
<path fill="#FEDFB1" opacity="1.000000" stroke="none" 
	d="
M228.340210,312.628418 
	C227.096191,313.998444 225.524536,315.189636 224.662827,316.768311 
	C220.079895,325.164764 212.900970,330.664703 203.767807,331.796539 
	C193.242157,333.100861 185.878510,326.544037 183.095581,315.660431 
	C181.376190,308.936157 180.080734,302.061676 177.761551,295.551483 
	C176.709503,292.598267 173.634232,290.365814 170.761963,286.958435 
	C170.167465,289.745270 169.871521,291.132568 169.021805,292.502197 
	C167.254105,286.920471 168.047394,280.549622 162.012970,276.565247 
	C161.140717,275.198486 160.441147,274.120026 159.763596,272.735870 
	C159.223907,271.933502 158.662231,271.436829 158.042725,270.699341 
	C157.984924,270.458527 157.802750,269.997955 157.806702,269.693359 
	C157.230728,268.922363 156.650818,268.455933 156.025711,267.735046 
	C155.930771,267.315643 155.881042,267.150665 155.839111,266.649689 
	C154.927078,265.197418 154.007278,264.081207 153.034668,262.718109 
	C152.925873,262.312531 152.869873,262.153839 152.819183,261.660767 
	C151.940521,260.176178 151.056534,259.025909 150.122849,257.559143 
	C149.955765,256.832123 149.838394,256.421600 149.749527,255.656250 
	C148.660736,252.892502 147.448639,250.522430 146.444077,248.067413 
	C143.557999,241.014313 139.152740,234.110718 138.315109,226.807663 
	C137.197235,217.061234 138.784119,206.988403 139.391006,197.066879 
	C139.716995,191.737518 140.422928,186.431396 140.980530,180.742981 
	C141.111237,179.886902 141.218826,179.402618 141.652008,178.829926 
	C142.278519,176.747162 142.579422,174.752853 142.880310,172.758530 
	C145.622604,164.975113 147.363434,156.633057 151.325592,149.530106 
	C158.521698,136.629608 170.162598,128.379883 183.239120,121.496170 
	C196.885162,114.312660 211.409088,111.272346 226.992340,109.137001 
	C229.022552,113.977829 230.181595,118.598465 231.746979,123.077072 
	C232.251663,124.520958 233.825516,125.591141 234.990585,127.240097 
	C235.364441,130.120682 235.657990,132.593445 235.708832,134.897095 
	C234.974503,134.918549 234.122391,135.014328 234.043747,135.313477 
	C231.785782,143.902252 230.262619,152.746872 227.280777,161.070099 
	C220.259277,180.669250 210.653107,198.867142 194.086914,212.275620 
	C187.976181,217.221558 185.815048,222.087387 189.850494,229.491043 
	C192.697296,234.713913 194.387314,240.567307 196.683609,246.503067 
	C197.558746,248.939163 198.344086,251.011383 199.161652,253.457397 
	C202.344299,262.539703 205.359085,271.301758 208.756622,279.912811 
	C209.457901,281.690216 211.349045,283.333130 213.099670,284.297729 
	C218.020676,287.009247 221.243332,290.841309 222.872910,296.228455 
	C224.540680,301.741913 226.505447,307.165497 228.340210,312.628418 
z"/>
<path fill="#FEBC66" opacity="1.000000" stroke="none" 
	d="
M364.890625,293.481049 
	C365.221252,292.491608 365.865082,291.955719 365.858276,291.428223 
	C365.769440,284.531189 368.406799,278.829498 373.599396,274.333923 
	C373.788330,275.594116 373.641632,276.578461 373.494904,277.562805 
	C373.871368,277.821259 374.247833,278.079681 374.624298,278.338104 
	C380.376709,272.968414 386.529388,267.958740 391.771576,262.130127 
	C397.273285,256.013000 402.123627,249.265564 406.846161,242.505432 
	C411.010406,236.544479 414.510651,230.247330 414.055786,222.431305 
	C413.469604,212.359467 413.298615,202.263458 412.948822,192.177856 
	C426.227570,201.901321 435.783295,214.402466 437.131866,231.050766 
	C438.006165,241.843979 436.901581,252.960785 435.389893,263.751343 
	C431.818451,289.244781 420.301788,311.687469 406.971771,333.292358 
	C404.530182,337.249603 402.037292,341.185516 399.359619,344.984375 
	C395.293457,350.753204 396.651062,357.016266 403.122314,359.806274 
	C410.878143,363.150024 418.920746,365.840363 426.613129,369.314056 
	C430.094116,370.885986 433.626251,373.162506 436.049316,376.035217 
	C438.604828,379.064972 436.829773,381.790833 432.795349,381.781982 
	C429.319000,381.774323 425.841858,381.154053 422.368011,381.181610 
	C408.898376,381.288422 395.430389,381.633087 381.960846,381.704651 
	C376.484772,381.733765 371.006378,381.286316 365.528717,381.064148 
	C358.918701,380.796021 355.595306,376.276459 357.680969,369.898071 
	C363.111359,353.290741 364.967560,336.216522 364.843231,318.839386 
	C364.783844,310.539642 364.877258,302.238800 364.890625,293.481049 
z"/>
<path fill="#FEBC66" opacity="1.000000" stroke="none" 
	d="
M162.185669,276.853577 
	C168.047394,280.549622 167.254105,286.920471 168.765015,292.748993 
	C169.315643,306.992706 168.895920,321.027374 170.039200,334.933533 
	C170.930130,345.770233 173.768219,356.446594 175.734818,367.195343 
	C176.179779,369.627319 176.908676,372.057495 176.959808,374.499939 
	C177.042145,378.432404 174.741531,380.919495 170.880630,380.984039 
	C157.421112,381.209137 143.956497,381.104065 130.494949,381.238983 
	C121.348404,381.330627 112.203880,381.718231 103.058220,381.726868 
	C101.133385,381.728668 99.207542,380.653687 97.282181,380.074860 
	C98.032959,378.019989 98.179718,375.021698 99.645325,374.083282 
	C104.451576,371.006012 109.636520,368.451294 114.866447,366.123871 
	C120.170197,363.763550 125.783310,362.102875 131.109604,359.787659 
	C137.322311,357.087189 138.651108,350.921539 134.908737,345.301758 
	C120.301056,323.366028 106.943214,300.667755 100.771675,274.793884 
	C97.161453,259.658173 94.759209,244.092407 97.170082,228.345795 
	C97.519157,226.065842 98.407089,223.868408 99.516907,221.205841 
	C100.277328,220.084915 100.566490,219.390915 100.855659,218.696915 
	C103.607521,208.744141 110.356995,201.655396 117.818550,195.092590 
	C118.801804,194.227783 119.967232,193.570084 121.473610,193.187561 
	C121.343590,199.973312 120.641701,206.379547 120.271736,212.804886 
	C119.853065,220.076080 118.881561,227.536636 122.672295,234.267075 
	C125.824081,239.863083 129.194626,245.372116 132.908325,250.607544 
	C139.832993,260.369690 147.522369,269.497314 157.604904,276.217163 
	C158.760071,276.987091 160.641159,276.667816 162.185669,276.853577 
z"/>
<path fill="#3B4B52" opacity="1.000000" stroke="none" 
	d="
M228.613708,312.833618 
	C226.505447,307.165497 224.540680,301.741913 222.872910,296.228455 
	C221.243332,290.841309 218.020676,287.009247 213.099670,284.297729 
	C211.349045,283.333130 209.457901,281.690216 208.756622,279.912811 
	C205.359085,271.301758 202.344299,262.539703 199.504395,253.527863 
	C231.087128,267.973236 263.920197,271.128754 297.506195,264.795685 
	C310.238800,262.394775 322.416229,257.049591 334.846680,253.046417 
	C331.497498,262.399536 328.219147,271.779388 324.713440,281.073456 
	C324.252625,282.295135 322.784241,283.403717 321.517059,284.008911 
	C315.504486,286.880493 312.257233,291.692139 310.568665,298.001160 
	C309.376160,302.456696 307.561462,306.745728 305.967255,311.453979 
	C287.575287,340.224335 246.146393,338.998047 228.613708,312.833618 
z"/>
<path fill="#3E4E55" opacity="1.000000" stroke="none" 
	d="
M234.910278,126.832283 
	C233.825516,125.591141 232.251663,124.520958 231.746979,123.077072 
	C230.181595,118.598465 229.022552,113.977829 227.436188,109.132538 
	C226.956238,106.371727 226.714096,103.892914 226.541519,101.409264 
	C226.008392,93.736649 228.091217,89.893089 235.374115,87.168083 
	C240.775406,85.147110 246.501892,83.991714 252.091141,82.478790 
	C253.825027,82.009453 255.583832,81.632088 257.331238,81.212631 
	C257.719574,80.679207 258.107910,80.145782 258.496246,79.612366 
	C252.988846,75.432068 247.481430,71.251770 242.533600,67.496208 
	C249.516907,54.363781 281.463287,53.219872 290.730896,65.169327 
	C285.894318,70.076782 280.987793,75.055206 275.169647,80.958603 
	C280.548950,82.150322 284.545746,82.968872 288.506195,83.936188 
	C291.240204,84.603943 294.013092,85.255135 296.614258,86.298531 
	C306.384430,90.217636 308.252075,93.348892 307.333405,103.685570 
	C307.230347,104.845177 307.053345,105.998222 306.966309,107.560722 
	C305.590271,112.635948 304.278656,117.346855 302.664581,121.951736 
	C302.064606,123.663422 300.756195,125.126801 299.531372,126.336487 
	C298.329285,120.609261 297.723022,115.151100 296.286926,109.920815 
	C295.213715,106.012238 292.158081,104.452881 288.049744,106.156433 
	C284.524353,107.618256 280.920624,108.912468 277.476440,110.544395 
	C270.790314,113.712440 264.194763,114.268105 257.391266,110.859543 
	C254.136200,109.228752 250.717102,107.896156 247.298355,106.627838 
	C241.681519,104.544052 238.695938,105.820602 237.235519,111.642860 
	C235.994827,116.589211 235.650955,121.760513 234.910278,126.832283 
z"/>
<path fill="#FCA841" opacity="1.000000" stroke="none" 
	d="
M412.820740,192.037628 
	C413.298615,202.263458 413.469604,212.359467 414.055786,222.431305 
	C414.510651,230.247330 411.010406,236.544479 406.846161,242.505432 
	C402.123627,249.265564 397.273285,256.013000 391.771576,262.130127 
	C386.529388,267.958740 380.376709,272.968414 374.624298,278.338104 
	C374.247833,278.079681 373.871368,277.821259 373.494904,277.562805 
	C373.641632,276.578461 373.788330,275.594116 373.940063,274.265564 
	C375.218323,271.825867 376.491577,269.730316 378.243103,267.280853 
	C379.121094,266.250458 379.520874,265.573975 379.920654,264.897491 
	C381.622589,261.525208 383.324585,258.152924 385.430634,254.362457 
	C386.251038,253.288483 386.667358,252.632675 387.379517,251.802231 
	C388.403290,249.699783 389.131226,247.771973 389.859192,245.844177 
	C389.919952,245.418640 389.980682,244.993088 390.445129,244.208954 
	C391.177124,243.167419 391.505402,242.484467 391.833679,241.801529 
	C391.944153,241.084259 392.054596,240.366989 392.564270,239.244781 
	C393.366089,237.598862 393.768677,236.357910 394.171265,235.116943 
	C394.508881,233.952957 394.846497,232.788986 395.652771,231.181412 
	C396.540802,229.878418 397.302368,229.028366 397.326172,228.158157 
	C397.544952,220.155136 397.655670,212.148697 397.699646,204.142731 
	C397.701599,203.781509 396.761688,203.415131 396.260468,203.051147 
	C396.186188,202.299149 396.111908,201.547150 396.411682,200.404510 
	C397.526306,199.366959 398.266846,198.720032 399.141052,197.823532 
	C399.770935,197.329575 400.267212,197.085190 401.094482,196.869171 
	C401.963135,196.321808 402.500793,195.746063 403.207825,194.932358 
	C403.888916,194.436020 404.400665,194.177643 405.231293,193.920410 
	C406.032074,193.334000 406.513977,192.746445 407.153931,192.031921 
	C407.311951,191.904953 407.704681,191.804260 408.164185,191.866333 
	C409.856812,191.888977 411.089935,191.849564 412.323059,191.810150 
	C412.323059,191.810150 412.692688,191.897385 412.820740,192.037628 
z"/>
<path fill="#FCA841" opacity="1.000000" stroke="none" 
	d="
M162.012970,276.565247 
	C160.641159,276.667816 158.760071,276.987091 157.604904,276.217163 
	C147.522369,269.497314 139.832993,260.369690 132.908325,250.607544 
	C129.194626,245.372116 125.824081,239.863083 122.672295,234.267075 
	C118.881561,227.536636 119.853065,220.076080 120.271736,212.804886 
	C120.641701,206.379547 121.343590,199.973312 121.802475,193.080383 
	C121.809601,192.231598 121.913200,191.861099 122.524124,191.255249 
	C123.711517,190.964050 124.391586,190.908173 125.352737,190.977692 
	C126.106461,191.496841 126.579094,191.890579 127.090836,192.574677 
	C127.760040,193.202225 128.390137,193.539444 129.322083,193.945724 
	C130.095184,194.394348 130.566437,194.773880 131.081879,195.462830 
	C131.789642,196.126282 132.453232,196.480331 133.389084,196.957230 
	C134.129471,197.450470 134.597595,197.820877 135.120621,198.531097 
	C135.665207,200.166809 136.631912,201.486084 136.569748,202.754959 
	C136.028458,213.799332 134.188019,224.974884 139.150253,235.514221 
	C142.422745,242.464722 146.180527,249.186768 149.721008,256.011108 
	C149.838394,256.421600 149.955765,256.832123 150.101181,257.908569 
	C151.024109,259.714722 151.919006,260.854950 152.813889,261.995148 
	C152.869873,262.153839 152.925873,262.312531 153.012543,263.076904 
	C153.972610,264.783600 154.901962,265.884674 155.831329,266.985718 
	C155.881042,267.150665 155.930771,267.315643 156.037567,268.041809 
	C156.663986,269.067993 157.233368,269.532990 157.802750,269.997955 
	C157.802750,269.997955 157.984924,270.458527 158.044006,271.006775 
	C158.649246,272.050537 159.195419,272.546082 159.741592,273.041595 
	C160.441147,274.120026 161.140717,275.198486 162.012970,276.565247 
z"/>
<path fill="#48555A" opacity="1.000000" stroke="none" 
	d="
M131.037689,195.153412 
	C130.566437,194.773880 130.095184,194.394348 129.254211,193.670349 
	C128.273575,192.978714 127.662651,192.631516 127.051727,192.284332 
	C126.579094,191.890579 126.106461,191.496841 125.288300,190.695526 
	C124.056290,189.655762 123.169800,189.023575 122.283310,188.391388 
	C116.382057,184.109711 111.607918,178.080994 103.146919,178.083740 
	C99.125702,178.085052 96.777847,174.837708 96.507690,170.632706 
	C96.225700,166.243332 99.052902,163.753036 102.534935,162.393875 
	C106.031784,161.028961 109.999115,162.495193 110.907951,165.819107 
	C113.589264,175.625443 122.555305,178.274643 129.771027,183.890594 
	C132.473389,185.967819 135.258163,187.214767 136.836578,189.352448 
	C138.037445,190.978821 137.985611,193.747284 137.902039,195.985611 
	C137.873306,196.755066 136.062439,197.457977 135.065704,198.191299 
	C134.597595,197.820877 134.129471,197.450470 133.299881,196.678619 
	C132.304840,195.902588 131.671265,195.528000 131.037689,195.153412 
z"/>
<path fill="#49565B" opacity="1.000000" stroke="none" 
	d="
M404.912415,193.919266 
	C404.400665,194.177643 403.888916,194.436020 402.901093,194.932022 
	C401.871185,195.726700 401.317352,196.283737 400.763489,196.840790 
	C400.267212,197.085190 399.770935,197.329575 398.741394,197.833008 
	C397.411591,198.119080 396.615051,198.146103 395.818512,198.173126 
	C395.764893,197.660873 395.711243,197.148621 395.685638,195.882629 
	C394.481537,188.650696 400.692688,187.557648 403.673187,184.127274 
	C411.079803,180.058228 418.102203,175.456497 422.649414,168.093079 
	C425.103210,164.119598 428.900177,161.703995 432.189362,162.887848 
	C436.175476,164.322556 438.018524,167.270782 437.453094,171.404312 
	C436.809143,176.111786 433.436218,177.590454 429.140778,178.539230 
	C425.780609,179.281433 422.573517,181.047134 419.522644,182.757965 
	C416.936798,184.208008 414.671997,186.230591 411.693787,188.270981 
	C409.983215,189.629501 408.843933,190.716873 407.704681,191.804260 
	C407.704681,191.804260 407.311951,191.904953 406.854736,192.045090 
	C405.902466,192.763229 405.407440,193.341248 404.912415,193.919266 
z"/>
<path fill="#48575D" opacity="1.000000" stroke="none" 
	d="
M393.189087,182.166260 
	C393.017029,180.718735 392.844940,179.271210 392.659119,177.047699 
	C392.626465,175.245575 392.607635,174.219467 392.588806,173.193359 
	C395.337219,169.870071 398.390930,166.746674 400.738312,163.160889 
	C402.649231,160.241806 404.071228,156.874466 405.063416,153.514923 
	C406.278961,149.399216 409.401337,146.448288 413.534302,146.501236 
	C417.481201,146.551788 420.297760,148.294754 421.324982,152.187256 
	C422.378387,156.179108 419.997986,159.228836 415.681000,161.467453 
	C412.588074,163.071335 409.683838,165.377991 407.305023,167.937668 
	C404.050812,171.439255 401.375031,175.478424 397.951111,179.653107 
	C396.030304,180.734772 394.609711,181.450516 393.189087,182.166260 
z"/>
<path fill="#4A585F" opacity="1.000000" stroke="none" 
	d="
M141.326401,178.918350 
	C141.218826,179.402618 141.111237,179.886902 140.703857,180.878998 
	C139.519012,181.053009 138.633957,180.719193 137.748901,180.385391 
	C137.428543,179.246155 137.456802,177.750900 136.723755,177.033127 
	C134.337570,174.696655 131.688492,172.625809 129.112000,170.487198 
	C125.507828,167.495529 121.972351,164.409164 118.230782,161.598572 
	C114.912888,159.106232 111.838692,156.563049 112.776192,151.875580 
	C113.475204,148.380585 117.922615,145.586105 121.619919,145.998291 
	C125.912086,146.476822 128.473541,149.667450 128.982880,154.624832 
	C129.176346,156.507782 129.671066,158.629486 130.760971,160.099167 
	C133.820679,164.225021 137.261688,168.068085 140.790955,172.692108 
	C141.128555,175.213806 141.227478,177.066071 141.326401,178.918350 
z"/>
<path fill="#DEA964" opacity="1.000000" stroke="none" 
	d="
M137.429794,180.410126 
	C138.633957,180.719193 139.519012,181.053009 140.680740,181.250809 
	C140.422928,186.431396 139.716995,191.737518 139.391006,197.066879 
	C138.784119,206.988403 137.197235,217.061234 138.315109,226.807663 
	C139.152740,234.110718 143.557999,241.014313 146.444077,248.067413 
	C147.448639,250.522430 148.660736,252.892502 149.749527,255.656250 
	C146.180527,249.186768 142.422745,242.464722 139.150253,235.514221 
	C134.188019,224.974884 136.028458,213.799332 136.569748,202.754959 
	C136.631912,201.486084 135.665207,200.166809 135.120621,198.531097 
	C136.062439,197.457977 137.873306,196.755066 137.902039,195.985611 
	C137.985611,193.747284 138.037445,190.978821 136.836578,189.352448 
	C135.258163,187.214767 132.473389,185.967819 130.079758,184.090698 
	C132.338318,182.707306 134.724503,181.571075 137.429794,180.410126 
z"/>
<path fill="#DFA253" opacity="1.000000" stroke="none" 
	d="
M393.130920,182.560623 
	C394.609711,181.450516 396.030304,180.734772 397.733185,179.951385 
	C399.788818,181.116287 401.562134,182.348846 403.504333,183.854340 
	C400.692688,187.557648 394.481537,188.650696 395.583435,195.509888 
	C395.016388,193.965408 394.511414,192.052277 394.160004,190.111328 
	C393.730347,187.738052 393.429413,185.341476 393.130920,182.560623 
z"/>
<path fill="#DEA964" opacity="1.000000" stroke="none" 
	d="
M141.652008,178.829926 
	C141.227478,177.066071 141.128555,175.213806 141.007553,172.978928 
	C141.415192,172.557617 141.844894,172.518906 142.577454,172.619354 
	C142.579422,174.752853 142.278519,176.747162 141.652008,178.829926 
z"/>
<path fill="#DFA253" opacity="1.000000" stroke="none" 
	d="
M408.164185,191.866333 
	C408.843933,190.716873 409.983215,189.629501 411.384186,188.481506 
	C411.831390,189.320358 412.016907,190.219788 412.262726,191.464691 
	C411.089935,191.849564 409.856812,191.888977 408.164185,191.866333 
z"/>
<path fill="#DFA253" opacity="1.000000" stroke="none" 
	d="
M392.330994,173.126465 
	C392.607635,174.219467 392.626465,175.245575 392.512207,176.636261 
	C391.980164,175.995468 391.581238,174.990097 391.120239,173.692352 
	C391.396484,173.286499 391.734833,173.173035 392.330994,173.126465 
z"/>
<path fill="#DEA964" opacity="1.000000" stroke="none" 
	d="
M122.215576,188.712906 
	C123.169800,189.023575 124.056290,189.655762 125.007217,190.570129 
	C124.391586,190.908173 123.711517,190.964050 122.694000,191.018494 
	C122.286980,190.356186 122.217407,189.695312 122.215576,188.712906 
z"/>
<path fill="#DEA964" opacity="1.000000" stroke="none" 
	d="
M100.603363,218.844254 
	C100.566490,219.390915 100.277328,220.084915 99.700378,220.848099 
	C99.725426,220.275391 100.038246,219.633499 100.603363,218.844254 
z"/>
<path fill="#FEC67B" opacity="1.000000" stroke="none" 
	d="
M196.593781,246.139206 
	C194.387314,240.567307 192.697296,234.713913 189.850494,229.491043 
	C185.815048,222.087387 187.976181,217.221558 194.086914,212.275620 
	C210.653107,198.867142 220.259277,180.669250 227.280777,161.070099 
	C230.262619,152.746872 231.785782,143.902252 234.043747,135.313477 
	C234.122391,135.014328 234.974503,134.918549 235.727005,135.283722 
	C237.309067,144.103592 241.413147,150.938461 247.952896,155.844543 
	C259.329742,164.379410 272.900848,164.151199 286.293274,155.909485 
	C287.068420,155.257202 287.519928,154.622162 288.133301,153.701935 
	C289.580231,151.669968 290.865295,149.923233 292.452759,148.084595 
	C293.170105,147.328262 293.585052,146.663834 294.136688,145.723145 
	C294.563965,144.688202 294.854553,143.929489 295.447449,143.077271 
	C296.116974,142.304672 296.484192,141.625549 296.900360,140.567261 
	C297.013580,139.177277 297.077850,138.166489 297.142090,137.155701 
	C297.997620,136.709183 298.853149,136.262680 299.984375,135.672287 
	C301.323792,141.177902 302.139191,146.789490 304.068848,151.987427 
	C307.989716,162.549362 311.723755,173.311447 317.028290,183.189011 
	C321.565491,191.637802 327.960938,199.147705 333.988251,206.711273 
	C336.827515,210.274200 340.576752,213.186066 344.201050,216.026184 
	C347.173767,218.355713 348.315857,219.952759 346.231628,224.106598 
	C342.775330,230.994980 340.717987,238.585297 337.604126,245.597015 
	C335.911469,244.549133 334.754211,243.281204 333.449097,243.104340 
	C327.063110,242.238937 320.534393,242.172928 314.244995,240.894913 
	C292.168915,236.409058 274.700623,226.071259 268.032318,202.771759 
	C267.882019,202.246582 267.441437,201.804474 266.772583,200.750549 
	C265.986084,202.940918 265.431641,204.452469 264.899658,205.971863 
	C261.364349,216.068832 255.509277,224.330444 246.461639,230.333923 
	C232.999176,239.266830 217.865463,242.094727 202.156647,243.006775 
	C199.731018,243.147598 196.914673,242.360291 196.593781,246.139206 
M316.126434,228.530380 
	C314.056702,231.171616 315.264923,233.340637 317.522339,234.769058 
	C318.660187,235.489059 321.182190,235.789917 321.848877,235.097168 
	C323.030121,233.869720 324.157806,231.481766 323.736755,230.037491 
	C322.647003,226.299698 319.699524,226.441116 316.126434,228.530380 
M212.946701,235.408951 
	C216.815903,236.207748 218.773590,234.350830 218.142761,230.727890 
	C217.897995,229.322052 215.779968,227.841309 214.192566,227.222610 
	C213.259277,226.858826 210.557007,228.240219 210.597992,228.633820 
	C210.825012,230.813614 211.650269,232.931091 212.946701,235.408951 
z"/>
<path fill="#FBA53E" opacity="1.000000" stroke="none" 
	d="
M196.683594,246.503067 
	C196.914673,242.360291 199.731018,243.147598 202.156647,243.006775 
	C217.865463,242.094727 232.999176,239.266830 246.461639,230.333923 
	C255.509277,224.330444 261.364349,216.068832 264.899658,205.971863 
	C265.431641,204.452469 265.986084,202.940918 266.772583,200.750549 
	C267.441437,201.804474 267.882019,202.246582 268.032318,202.771759 
	C274.700623,226.071259 292.168915,236.409058 314.244995,240.894913 
	C320.534393,242.172928 327.063110,242.238937 333.449097,243.104340 
	C334.754211,243.281204 335.911469,244.549133 337.274475,245.725800 
	C336.758942,248.295761 336.105896,250.454010 335.149750,252.829346 
	C322.416229,257.049591 310.238800,262.394775 297.506195,264.795685 
	C263.920197,271.128754 231.087128,267.973236 199.472183,253.154083 
	C198.344086,251.011383 197.558746,248.939163 196.683594,246.503067 
z"/>
<path fill="#FBE6C9" opacity="1.000000" stroke="none" 
	d="
M285.969574,155.926727 
	C272.900848,164.151199 259.329742,164.379410 247.952896,155.844543 
	C241.413147,150.938461 237.309067,144.103592 235.969727,135.452835 
	C235.657990,132.593445 235.364441,130.120682 234.990570,127.240097 
	C235.650955,121.760513 235.994827,116.589211 237.235519,111.642860 
	C238.695938,105.820602 241.681519,104.544052 247.298355,106.627838 
	C250.717102,107.896156 254.136200,109.228752 257.391266,110.859543 
	C264.194763,114.268105 270.790314,113.712440 277.476440,110.544395 
	C280.920624,108.912468 284.524353,107.618256 288.049744,106.156433 
	C292.158081,104.452881 295.213715,106.012238 296.286926,109.920815 
	C297.723022,115.151100 298.329285,120.609261 299.194458,126.390671 
	C298.439056,129.988373 297.781097,133.164963 297.132629,136.748627 
	C297.077850,138.166489 297.013580,139.177277 296.587311,140.634308 
	C295.865234,141.777267 295.505188,142.474014 295.145142,143.170776 
	C294.854553,143.929489 294.563965,144.688202 293.804565,145.767120 
	C292.940613,146.783691 292.545502,147.480087 292.150391,148.176483 
	C290.865295,149.923233 289.580231,151.669968 287.819214,153.742035 
	C286.885376,154.687149 286.427490,155.306946 285.969574,155.926727 
z"/>
<path fill="#DFA253" opacity="1.000000" stroke="none" 
	d="
M396.197693,203.510300 
	C396.761688,203.415131 397.701599,203.781509 397.699646,204.142731 
	C397.655670,212.148697 397.544952,220.155136 397.326172,228.158157 
	C397.302368,229.028366 396.540802,229.878418 395.814331,230.848206 
	C395.716431,221.962219 395.925659,212.965836 396.197693,203.510300 
z"/>
<path fill="#DFA253" opacity="1.000000" stroke="none" 
	d="
M389.551910,245.967438 
	C389.131226,247.771973 388.403290,249.699783 387.172150,251.790497 
	C386.668945,251.953415 386.255432,251.958633 386.255432,251.958633 
	C387.251831,250.002655 388.248260,248.046692 389.551910,245.967438 
z"/>
<path fill="#DFA253" opacity="1.000000" stroke="none" 
	d="
M395.635071,198.318985 
	C396.615051,198.146103 397.411591,198.119080 398.607788,198.082581 
	C398.266846,198.720032 397.526306,199.366959 396.445679,200.026611 
	C395.887573,199.514511 395.669586,198.989685 395.635071,198.318985 
z"/>
<path fill="#DFA253" opacity="1.000000" stroke="none" 
	d="
M393.888458,235.274109 
	C393.768677,236.357910 393.366089,237.598862 392.694336,238.904724 
	C392.818634,237.790176 393.212128,236.610733 393.888458,235.274109 
z"/>
<path fill="#FEBC66" opacity="1.000000" stroke="none" 
	d="
M379.608582,264.968384 
	C379.520874,265.573975 379.121094,266.250458 378.403534,266.984711 
	C378.489349,266.374756 378.892914,265.707031 379.608582,264.968384 
z"/>
<path fill="#FEBC66" opacity="1.000000" stroke="none" 
	d="
M385.965881,252.118958 
	C386.255432,251.958633 386.668945,251.953415 386.876312,251.965149 
	C386.667358,252.632675 386.251038,253.288483 385.542297,254.021698 
	C385.392029,253.492508 385.534149,252.885880 385.965881,252.118958 
z"/>
<path fill="#DFA253" opacity="1.000000" stroke="none" 
	d="
M391.554047,241.910645 
	C391.505402,242.484467 391.177124,243.167419 390.547943,243.902664 
	C390.589478,243.309891 390.931946,242.664810 391.554047,241.910645 
z"/>
<path fill="#DEA964" opacity="1.000000" stroke="none" 
	d="
M155.839111,266.649689 
	C154.901962,265.884674 153.972610,264.783600 153.065369,263.323761 
	C154.007278,264.081207 154.927078,265.197418 155.839111,266.649689 
z"/>
<path fill="#DEA964" opacity="1.000000" stroke="none" 
	d="
M152.819183,261.660767 
	C151.919006,260.854950 151.024109,259.714722 150.150894,258.225098 
	C151.056534,259.025909 151.940521,260.176178 152.819183,261.660767 
z"/>
<path fill="#DEA964" opacity="1.000000" stroke="none" 
	d="
M157.806702,269.693359 
	C157.233368,269.532990 156.663986,269.067993 156.082764,268.296265 
	C156.650818,268.455933 157.230728,268.922363 157.806702,269.693359 
z"/>
<path fill="#DEA964" opacity="1.000000" stroke="none" 
	d="
M159.763596,272.735870 
	C159.195419,272.546082 158.649246,272.050537 158.101807,271.247589 
	C158.662231,271.436829 159.223907,271.933502 159.763596,272.735870 
z"/>
<path fill="#DFA253" opacity="1.000000" stroke="none" 
	d="
M401.094482,196.869171 
	C401.317352,196.283737 401.871185,195.726700 402.731750,195.169983 
	C402.500793,195.746063 401.963135,196.321808 401.094482,196.869171 
z"/>
<path fill="#DFA253" opacity="1.000000" stroke="none" 
	d="
M405.231293,193.920410 
	C405.407440,193.341248 405.902466,192.763229 406.696716,192.172058 
	C406.513977,192.746445 406.032074,193.334000 405.231293,193.920410 
z"/>
<path fill="#DEA964" opacity="1.000000" stroke="none" 
	d="
M131.081879,195.462830 
	C131.671265,195.528000 132.304840,195.902588 133.027618,196.555786 
	C132.453232,196.480331 131.789642,196.126282 131.081879,195.462830 
z"/>
<path fill="#DEA964" opacity="1.000000" stroke="none" 
	d="
M127.090836,192.574677 
	C127.662651,192.631516 128.273575,192.978714 128.952377,193.601273 
	C128.390137,193.539444 127.760040,193.202225 127.090836,192.574677 
z"/>
<path fill="#E6933A" opacity="1.000000" stroke="none" 
	d="
M316.401917,228.260696 
	C319.699524,226.441116 322.647003,226.299698 323.736755,230.037491 
	C324.157806,231.481766 323.030121,233.869720 321.848877,235.097168 
	C321.182190,235.789917 318.660187,235.489059 317.522339,234.769058 
	C315.264923,233.340637 314.056702,231.171616 316.401917,228.260696 
z"/>
<path fill="#E6933A" opacity="1.000000" stroke="none" 
	d="
M212.608643,235.239441 
	C211.650269,232.931091 210.825012,230.813614 210.597992,228.633820 
	C210.557007,228.240219 213.259277,226.858826 214.192566,227.222610 
	C215.779968,227.841309 217.897995,229.322052 218.142761,230.727890 
	C218.773590,234.350830 216.815903,236.207748 212.608643,235.239441 
z"/>
<path fill="#FEDFB1" opacity="1.000000" stroke="none" 
	d="
M286.293274,155.909485 
	C286.427490,155.306946 286.885376,154.687149 287.657349,154.027252 
	C287.519928,154.622162 287.068420,155.257202 286.293274,155.909485 
z"/>
<path fill="#FEDFB1" opacity="1.000000" stroke="none" 
	d="
M295.447449,143.077271 
	C295.505188,142.474014 295.865234,141.777267 296.538330,141.013474 
	C296.484192,141.625549 296.116974,142.304672 295.447449,143.077271 
z"/>
<path fill="#FEDFB1" opacity="1.000000" stroke="none" 
	d="
M292.452759,148.084595 
	C292.545502,147.480087 292.940613,146.783691 293.667877,146.043350 
	C293.585052,146.663834 293.170105,147.328262 292.452759,148.084595 
z"/>
</svg>