<?xml version="1.0" standalone="no"?><svg xmlns="http://www.w3.org/2000/svg" viewBox="0 0 1440 320"><path fill="#12142B" fill-opacity="1" d="M0,288L6.2,250.7C12.3,213,25,139,37,138.7C49.2,139,62,213,74,218.7C86.2,224,98,160,111,138.7C123.1,117,135,139,148,160C160,181,172,203,185,181.3C196.9,160,209,96,222,96C233.8,96,246,160,258,181.3C270.8,203,283,181,295,192C307.7,203,320,245,332,256C344.6,267,357,245,369,224C381.5,203,394,181,406,149.3C418.5,117,431,75,443,74.7C455.4,75,468,117,480,138.7C492.3,160,505,160,517,170.7C529.2,181,542,203,554,186.7C566.2,171,578,117,591,112C603.1,107,615,149,628,186.7C640,224,652,256,665,272C676.9,288,689,288,702,250.7C713.8,213,726,139,738,117.3C750.8,96,763,128,775,170.7C787.7,213,800,267,812,272C824.6,277,837,235,849,213.3C861.5,192,874,192,886,202.7C898.5,213,911,235,923,202.7C935.4,171,948,85,960,58.7C972.3,32,985,64,997,106.7C1009.2,149,1022,203,1034,234.7C1046.2,267,1058,277,1071,234.7C1083.1,192,1095,96,1108,85.3C1120,75,1132,149,1145,186.7C1156.9,224,1169,224,1182,229.3C1193.8,235,1206,245,1218,256C1230.8,267,1243,277,1255,250.7C1267.7,224,1280,160,1292,133.3C1304.6,107,1317,117,1329,122.7C1341.5,128,1354,128,1366,154.7C1378.5,181,1391,235,1403,245.3C1415.4,256,1428,224,1434,208L1440,192L1440,320L1433.8,320C1427.7,320,1415,320,1403,320C1390.8,320,1378,320,1366,320C1353.8,320,1342,320,1329,320C1316.9,320,1305,320,1292,320C1280,320,1268,320,1255,320C1243.1,320,1231,320,1218,320C1206.2,320,1194,320,1182,320C1169.2,320,1157,320,1145,320C1132.3,320,1120,320,1108,320C1095.4,320,1083,320,1071,320C1058.5,320,1046,320,1034,320C1021.5,320,1009,320,997,320C984.6,320,972,320,960,320C947.7,320,935,320,923,320C910.8,320,898,320,886,320C873.8,320,862,320,849,320C836.9,320,825,320,812,320C800,320,788,320,775,320C763.1,320,751,320,738,320C726.2,320,714,320,702,320C689.2,320,677,320,665,320C652.3,320,640,320,628,320C615.4,320,603,320,591,320C578.5,320,566,320,554,320C541.5,320,529,320,517,320C504.6,320,492,320,480,320C467.7,320,455,320,443,320C430.8,320,418,320,406,320C393.8,320,382,320,369,320C356.9,320,345,320,332,320C320,320,308,320,295,320C283.1,320,271,320,258,320C246.2,320,234,320,222,320C209.2,320,197,320,185,320C172.3,320,160,320,148,320C135.4,320,123,320,111,320C98.5,320,86,320,74,320C61.5,320,49,320,37,320C24.6,320,12,320,6,320L0,320Z"></path></svg>